G04 ================== begin FILE IDENTIFICATION RECORD ==================*
G04 Layout Name:  CC13xxEM_5XD_7793_4L.brd*
G04 Film Name:    silk_bottom*
G04 File Format:  Gerber RS274X*
G04 File Origin:  Cadence Allegro 16.6-S026*
G04 Origin Date:  Wed Aug 05 15:39:24 2015*
G04 *
G04 Layer:  REF DES/SILKSCREEN_BOTTOM*
G04 Layer:  PACKAGE GEOMETRY/SILKSCREEN_BOTTOM*
G04 Layer:  MANUFACTURING/AUTOSILK_BOTTOM*
G04 Layer:  BOARD GEOMETRY/OUTLINE*
G04 *
G04 Offset:    (0.000 0.000)*
G04 Mirror:    No*
G04 Mode:      Positive*
G04 Rotation:  0*
G04 FullContactRelief:  No*
G04 UndefLineWidth:     0.020*
G04 ================== end FILE IDENTIFICATION RECORD ====================*
%FSLAX25Y25*MOMM*%
%IR0*IPPOS*OFA0.00000B0.00000*MIA0B0*SFA1.00000B1.00000*%
%ADD10C,.1*%
%ADD11C,.02*%
G75*
%LPD*%
G75*
G36*
G01X12660800Y10213400D02*
G02X12693300Y10212400I7717J-277820D01*
G02X12725200Y10207600I-24777J-273063D01*
G02X12756400Y10199200I-56141J-270666D01*
G02X12828100Y10163700I-93443J-278885D01*
G02X12887100Y10110400I-160981J-237501D01*
G02X12928900Y10043100I-218547J-182371D01*
G02X12950700Y9967000I-259823J-115603D01*
G02X12952100Y9948300I-158272J-21252D01*
G02Y9922500I-556044J-12900D01*
G02X12950800Y9896400I-558333J14727D01*
G02X12948300Y9876500I-196586J14590D01*
G02X12925400Y9805300I-268781J47165D01*
G02X12883700Y9741900I-259974J125579D01*
G02X12826900Y9691400I-219292J189456D01*
G02X12759500Y9658100I-155541J229958D01*
G02X12725200Y9648900I-92478J276242D01*
G02X12689700Y9643800I-60245J293251D01*
G02X12654300Y9643100I-23464J291130D01*
G02X12620200Y9646700I10022J258229D01*
G02X12542400Y9671800I51064J291403D01*
G02X12475500Y9716900I121779J252812D01*
G02X12424100Y9779400I190159J208773D01*
G02X12391300Y9855000I259350J157438D01*
G02X12387300Y9871100I284315J79184D01*
G02X12385400Y9883700I103460J22044D01*
G02X12384500Y9899200I189653J18788D01*
G02X12384300Y9928500I2064769J28745D01*
G02X12384500Y9957900I2072016J605D01*
G02X12385400Y9973400I189985J-3255D01*
G02X12387300Y9986000I105223J-9424D01*
G02X12391400Y10002200I292580J-65429D01*
G02X12425100Y10078800I284203J-79322D01*
G02X12478700Y10142100I242082J-150643D01*
G02X12548200Y10187100I187433J-213311D01*
G02X12628100Y10210600I120973J-263730D01*
G02X12660800Y10213400I41146J-288185D01*
G37*
%LPC*%
G75*
G36*
G01X12600500Y9839500D02*
G03X12598300Y9840100I-1444J-963D01*
G03X12594000Y9837100I7494J-15324D01*
G03X12585000Y9828300I274042J-289272D01*
G03X12576700Y9819400I161480J-158914D01*
G03X12574500Y9814800I7342J-6338D01*
G03X12576100Y9813500I1146J-224D01*
G03X12582800Y9817000I-19053J44636D01*
G03X12590800Y9822500I-60855J97085D01*
G03X12596600Y9827600I-28943J38764D01*
G03X12600300Y9832300I-20920J20275D01*
G03X12601500Y9836300I-6302J4071D01*
G03X12600500Y9839500I-5763J-45D01*
G37*
G36*
G01X12566800Y9949300D02*
G03X12560600Y9949600I-4300J-24655D01*
G03X12554300Y9948300I2190J-26527D01*
G03X12546400Y9945200I25542J-76707D01*
G03X12532300Y9934800I17446J-38410D01*
G03X12522100Y9918700I44732J-39620D01*
G03X12516400Y9897900I71527J-30782D01*
G03X12515800Y9874000I116133J-14873D01*
G03X12516500Y9866900I119367J8184D01*
G03X12517800Y9859200I166851J24210D01*
G03X12519300Y9852000I153965J28320D01*
G03X12520800Y9846800I47859J10989D01*
G03X12524600Y9838300I56560J20186D01*
G03X12529900Y9829600I75472J40013D01*
G03X12535500Y9822500I71982J51016D01*
G03X12539200Y9820700I3985J3488D01*
G03X12540800Y9821300I79J2222D01*
G03X12549700Y9829400I-900214J998064D01*
G03X12559900Y9839000I-364529J397531D01*
G03X12571600Y9850400I-683862J713562D01*
G01X12594000Y9872800D01*
G03X12601500Y9890700I-17873J18010D01*
G01Y9917400D01*
G03X12592200Y9937000I-25379J-36D01*
G01X12591900Y9937300D01*
G03X12587700Y9940500I-38797J-46565D01*
G03X12583000Y9943500I-44627J-64735D01*
G03X12578400Y9946000I-36842J-62307D01*
G03X12574800Y9947400I-9771J-19796D01*
G03X12566800Y9949300I-20396J-68087D01*
G37*
G36*
G01X12743200Y10022300D02*
G03X12747500Y10027500I-35720J33916D01*
G03X12748600Y10030200I-4489J3403D01*
G03X12747400Y10031400I-1142J58D01*
G03X12740400Y10029600I105J-14918D01*
G03X12732000Y10024100I24613J-46755D01*
G03X12724200Y10016400I37839J-46131D01*
G03X12718700Y10008200I30178J-26186D01*
G03X12716800Y10003900I78918J-37440D01*
G03X12715300Y10000200I44120J-20040D01*
G03X12714400Y9997100I47720J-15535D01*
G03X12714700Y9996100I1019J-239D01*
G03X12715700I500J547D01*
G03X12720900Y10000600I-233070J274580D01*
G03X12727100Y10006200I-124153J143687D01*
G03X12734200Y10013100I-257042J271595D01*
G03X12743200Y10022300I-385942J386554D01*
G37*
G36*
G01X12786900Y9979800D02*
G03X12751300Y9994600I-24147J-7867D01*
G03X12737700Y9980700I594692J-595461D01*
G03X12726200Y9968200I350353J-333865D01*
G03X12716800Y9957500I632567J-565192D01*
G03X12715800Y9954700I3269J-2746D01*
G03X12717600Y9949000I9759J-52D01*
G03X12724500Y9940600I70059J50514D01*
G03X12732800Y9932700I62098J56932D01*
G03X12740400Y9928200I19184J23731D01*
G03X12748100Y9925900I13762J32033D01*
G03X12758100Y9924900I13541J84906D01*
G03X12768800Y9925000I4464J94851D01*
G03X12778900Y9926300I-4749J76782D01*
G03X12786900Y9936100I-15050J20451D01*
G01Y9979800D01*
G37*
G36*
G01X12869000Y10092600D02*
G03X12864900Y10097800I-187785J-143845D01*
G03X12861300Y10102100I-428784J-355325D01*
G03X12860600Y10102500I-811J-606D01*
G03X12858100Y10101500I-129J-3303D01*
G01X12833100Y10076400D01*
G03X12808300Y10051200I9613285J-9485497D01*
G03X12807200Y10048600I2620J-2641D01*
G03X12807900Y10047800I797J-8D01*
G03X12814500Y10047100I33052J280165D01*
G03X12822500Y10046600I14204J163011D01*
G03X12832000Y10046400I11522J321573D01*
G02X12848700Y10046200I-39798J-4020428D01*
G02X12851800Y10045800I-177J-13587D01*
G02Y10045100I-93J-350D01*
G02X12844700Y10043200I-57066J199029D01*
G03X12833800Y10039700I17601J-73537D01*
G03X12827300Y10035200I7173J-17306D01*
G03X12823400Y10028600I12441J-11804D01*
G03X12821200Y10018300I55206J-17176D01*
G03X12820600Y10009200I84370J-10133D01*
G03X12820300Y9982000I4122706J-59073D01*
G03X12820200Y9949600I3308985J-26413D01*
G03X12820400Y9913700I4956508J9662D01*
G01X12821100Y9832100D01*
G03X12828300Y9816500I25312J2221D01*
G03X12832100Y9813800I17860J21112D01*
G03X12836100Y9811900I11558J19173D01*
G03X12840500Y9810800I7865J22111D01*
G03X12845400Y9810400I5117J32475D01*
G02X12849300Y9810200I-138J-40808D01*
G02X12852500Y9809700I-1671J-21182D01*
G02X12854800Y9808900I-3317J-13244D01*
G02X12855500Y9807900I-427J-1044D01*
G02X12854400Y9806700I-1191J-12D01*
G02X12842100Y9806000I-49791J766487D01*
G02X12826300Y9805500I-21976J444555D01*
G02X12804700Y9805300I-24656J1496354D01*
G02X12783100Y9805500I3056J1496554D01*
G02X12767200Y9806000I6126J447870D01*
G02X12754900Y9806700I37491J767187D01*
G02X12753900Y9807900I141J1134D01*
G02X12754500Y9808900I1066J40D01*
G02X12756900Y9809700I5828J-13485D01*
G02X12760200Y9810200I4999J-21852D01*
G02X12764100Y9810400I4092J-41668D01*
G03X12769300Y9810800I-387J39032D01*
G03X12773500Y9811800I-2279J18893D01*
G03X12777100Y9813700I-5962J15657D01*
G03X12780600Y9816700I-14801J20810D01*
G03X12784300Y9821900I-12722J12969D01*
G03X12786100Y9828300I-19054J8812D01*
G03X12786800Y9839500I-104440J12149D01*
G03X12786900Y9871000I-4226668J29168D01*
G01Y9908000D01*
G03X12776100Y9916700I-20722J-14670D01*
G02X12763200Y9914700I-19793J85064D01*
G02X12746800Y9914200I-14856J218069D01*
G02X12730700Y9914800I22J216893D01*
G02X12719300Y9916800I4720J60392D01*
G02X12714600Y9918300I11432J43932D01*
G02X12709100Y9920700I36270J90620D01*
G02X12703600Y9923500I42955J91177D01*
G02X12699200Y9926200I25632J46705D01*
G03X12681400Y9924500I-6641J-24507D01*
G01X12636800Y9880000D01*
G03X12629300Y9862800I17859J-18023D01*
G01X12628800Y9846100D01*
X12628400Y9831800D01*
G02X12617200Y9813400I-25239J2754D01*
G02X12606000Y9808200I-43562J79165D01*
G02X12593200Y9804000I-46524J120183D01*
G02X12580200Y9801200I-32979J121539D01*
G02X12568500Y9800300I-11682J75361D01*
G03X12560800Y9799200I192J-28841D01*
G03X12554500Y9796100I5412J-18951D01*
G03X12546100Y9789100I45306J-62907D01*
G03X12525900Y9769200I1689115J-1734781D01*
G03X12514000Y9757100I764344J-763612D01*
G03X12503900Y9746500I425662J-415696D01*
G03X12495500Y9737200I1108217J-1009414D01*
G03X12494800Y9735500I1809J-1739D01*
G03X12497000Y9731300I5358J130D01*
G03X12514700Y9718300I546230J725164D01*
G03X12533300Y9705800I241625J339449D01*
G03X12549300Y9696800I100339J159659D01*
G03X12671500Y9668600I118628J235190D01*
G03X12792300Y9700400I-3671J259291D01*
G03X12884200Y9784900I-124188J227288D01*
G03X12926300Y9902900I-219146J144697D01*
G03X12926600Y9951200I-252065J25717D01*
G03X12917800Y9998700I-253606J-22419D01*
G03X12900000Y10044200I-250560J-71790D01*
G03X12873700Y10086600I-251537J-126667D01*
G03X12869000Y10092600I-338716J-260486D01*
G37*
G36*
G01X12644000Y10187200D02*
G03X12585500Y10174400I28019J-268139D01*
G03X12530900Y10148900I87645J-258868D01*
G03X12484600Y10112500I129344J-212169D01*
G03X12430200Y10033200I185840J-185796D01*
G03X12408200Y9939900I238008J-105366D01*
G03X12421400Y9844900I260084J-12279D01*
G03X12468100Y9760900I248787J83332D01*
G03X12481400Y9760300I7754J24180D01*
G01X12517000Y9795900D01*
G03X12516600Y9823100I-21650J13285D01*
G02X12510500Y9829400I66803J70785D01*
G02X12504500Y9836800I101413J88359D01*
G02X12499200Y9844200I99545J76894D01*
G02X12495500Y9850800I50268J32518D01*
G02X12491700Y9859700I88892J43215D01*
G02X12489700Y9867200I38142J14188D01*
G02X12488800Y9876500I68602J11332D01*
G02X12488500Y9893000I589937J18979D01*
G02X12488700Y9908700I536143J1021D01*
G02X12489500Y9918300I82871J-2073D01*
G02X12491300Y9926000I47194J-6972D01*
G02X12494400Y9934200I72711J-22802D01*
G02X12504100Y9949900I65478J-29608D01*
G02X12517300Y9962300I52514J-42676D01*
G02X12532700Y9970200I35526J-50292D01*
G02X12548700Y9973000I16145J-45145D01*
G02X12559400Y9971200I-184J-33797D01*
G02X12571900Y9965800I-26714J-79006D01*
G02X12583600Y9958300I-40155J-75518D01*
G02X12591700Y9950100I-24690J-32489D01*
G03X12594000Y9947200I45633J33829D01*
G03X12596300Y9944700I29284J24633D01*
G03X12598300Y9942900I23575J24183D01*
G03X12599400Y9942500I1097J1306D01*
G03X12600200Y9943300I-16J816D01*
G03X12600900Y9959700I-3355539J151439D01*
G03X12601300Y9978500I-851949J27531D01*
G03X12601500Y10000900I-1693049J26317D01*
G02X12601600Y10023300I1833492J3015D01*
G02X12602000Y10042200I929687J-10222D01*
G02X12602600Y10058600I3948407J-136243D01*
G02X12603400Y10059400I828J-28D01*
G02X12608800Y10058400I301J-13454D01*
G02X12630700Y10049600I-716607J-1815024D01*
G02X12653500Y10040100I-1653152J-3999674D01*
G02X12654800Y10038200I-778J-1927D01*
G02X12654300Y10037500I-745J4D01*
G02X12652700Y10037200I-1946J5964D01*
G02X12650500I-1100J11684D01*
G02X12647800Y10037600I2323J24991D01*
G03X12644500Y10038000I-3716J-16849D01*
G03X12641300Y10037800I-593J-16212D01*
G03X12638300Y10036900I2855J-14966D01*
G03X12635700Y10035500I4265J-11036D01*
G03X12632800Y10031300I4718J-6359D01*
G03X12631300Y10023500I39602J-11660D01*
G03X12630500Y10008900I202847J-18437D01*
G03X12629900Y9971900I5839746J-113203D01*
G03X12629800Y9949000I1845318J-19508D01*
G03X12629900Y9929600I938023J-4865D01*
G03X12630300Y9912800I3913076J84764D01*
G03X12631100Y9912000I810J10D01*
G03X12632400Y9912500I-8J1960D01*
G03X12638600Y9918100I-519462J581351D01*
G03X12645700Y9924700I-234266J259133D01*
G03X12653800Y9932600I-437535J456714D01*
G01X12666400Y9945100D01*
G03X12673800Y9964600I-17948J17965D01*
G01X12673300Y9973900D01*
G02X12672800Y9986400I299747J18250D01*
G02X12673400Y9993500I37124J438D01*
G02X12675300Y9999900I28504J-4980D01*
G02X12679400Y10008500I112524J-48368D01*
G02X12683400Y10015300I65779J-34117D01*
G02X12687900Y10021100I46307J-31282D01*
G02X12693000Y10026200I40368J-35268D01*
G02X12698900Y10030700I39806J-46072D01*
G02X12709900Y10037200I58614J-86636D01*
G02X12720300Y10041400I28774J-56274D01*
G02X12732500Y10044000I23141J-78661D01*
G02X12749200Y10045800I36335J-258739D01*
G01X12759200Y10046600D01*
G03X12775200Y10054000I-1981J25280D01*
G01X12836100Y10114900D01*
G03X12836300Y10125500I-24765J5769D01*
G03X12826100Y10134400I-43572J-39641D01*
G03X12806900Y10147000I-252047J-363143D01*
G03X12786000Y10159100I-223513J-361967D01*
G03X12768400Y10167400I-84826J-157061D01*
G03X12751200Y10173900I-133253J-326601D01*
G03X12734700Y10179100I-91098J-260285D01*
G03X12718300Y10183100I-70020J-251460D01*
G03X12701600Y10186100I-56147J-264571D01*
G03X12644000Y10187200I-33193J-229475D01*
G37*
%LPD*%
G75*
G54D10*
G01X11215000Y9755000D02*
X11300000D01*
Y9805000D01*
G01X10960000D02*
Y9755000D01*
X11045000D01*
G01X10899700Y11255000D02*
Y11166000D01*
X10922900D01*
X10930600Y11170500D01*
X10936400Y11180800D01*
X10938300Y11192700D01*
X10936400Y11204600D01*
X10931600Y11213500D01*
X10922900Y11217900D01*
X10899700D01*
G01X10985000Y11255000D02*
Y11166000D01*
X10973400Y11183800D01*
G01Y11255000D02*
X10996600D01*
G01X11220000Y11100000D02*
X11300000D01*
Y11050000D01*
G01X11055000Y11100000D02*
X10945000D01*
X10895000Y11050000D01*
G01X10977500Y12255000D02*
G03Y12015000I0J-120000D01*
G03Y12255000I0J120000D01*
G01X11487500Y9732500D02*
G03Y9492500I0J-120000D01*
G03Y9732500I0J120000D01*
G01X13827500Y9725000D02*
G03Y9485000I0J-120000D01*
G03Y9725000I0J120000D01*
G01X14008000Y9805000D02*
Y9755000D01*
X14093000D01*
G01X13919700Y11230000D02*
Y11141000D01*
X13942900D01*
X13950600Y11145500D01*
X13956400Y11155800D01*
X13958300Y11167700D01*
X13956400Y11179600D01*
X13951600Y11188500D01*
X13942900Y11192900D01*
X13919700D01*
G01X13986600Y11155800D02*
X13992400Y11146900D01*
X13999200Y11142500D01*
X14006900Y11141000D01*
X14016600Y11144000D01*
X14023400Y11151400D01*
X14025300Y11160300D01*
X14024300Y11169200D01*
X14020500Y11176600D01*
X14001100Y11191400D01*
X13992400Y11201800D01*
X13986600Y11216700D01*
X13984700Y11230000D01*
X14025300D01*
G01X14103000Y11100000D02*
X13993000D01*
X13943000Y11050000D01*
G01X14263000Y9755000D02*
X14348000D01*
Y9805000D01*
G01X14268000Y11100000D02*
X14348000D01*
Y11050000D01*
G54D11*
G01X10735000Y13935000D02*
Y9450000D01*
X14512500D01*
Y13935000D01*
X10735000D01*
M02*
