G04 Layer_Color=8421504*
%FSLAX25Y25*%
%MOIN*%
G70*
G01*
G75*
%ADD10R,0.03200X0.04500*%
%ADD11R,0.04500X0.03200*%
%ADD12R,0.01575X0.03543*%
%ADD13R,0.05500X0.06300*%
%ADD14R,0.06300X0.05500*%
G04:AMPARAMS|DCode=15|XSize=66.93mil|YSize=57.09mil|CornerRadius=4.28mil|HoleSize=0mil|Usage=FLASHONLY|Rotation=0.000|XOffset=0mil|YOffset=0mil|HoleType=Round|Shape=RoundedRectangle|*
%AMROUNDEDRECTD15*
21,1,0.06693,0.04852,0,0,0.0*
21,1,0.05837,0.05709,0,0,0.0*
1,1,0.00856,0.02918,-0.02426*
1,1,0.00856,-0.02918,-0.02426*
1,1,0.00856,-0.02918,0.02426*
1,1,0.00856,0.02918,0.02426*
%
%ADD15ROUNDEDRECTD15*%
%ADD16R,0.06299X0.09409*%
G04:AMPARAMS|DCode=17|XSize=114.96mil|YSize=37.4mil|CornerRadius=0.94mil|HoleSize=0mil|Usage=FLASHONLY|Rotation=0.000|XOffset=0mil|YOffset=0mil|HoleType=Round|Shape=RoundedRectangle|*
%AMROUNDEDRECTD17*
21,1,0.11496,0.03553,0,0,0.0*
21,1,0.11309,0.03740,0,0,0.0*
1,1,0.00187,0.05655,-0.01777*
1,1,0.00187,-0.05655,-0.01777*
1,1,0.00187,-0.05655,0.01777*
1,1,0.00187,0.05655,0.01777*
%
%ADD17ROUNDEDRECTD17*%
G04:AMPARAMS|DCode=18|XSize=114.96mil|YSize=37.4mil|CornerRadius=9.35mil|HoleSize=0mil|Usage=FLASHONLY|Rotation=0.000|XOffset=0mil|YOffset=0mil|HoleType=Round|Shape=RoundedRectangle|*
%AMROUNDEDRECTD18*
21,1,0.11496,0.01870,0,0,0.0*
21,1,0.09626,0.03740,0,0,0.0*
1,1,0.01870,0.04813,-0.00935*
1,1,0.01870,-0.04813,-0.00935*
1,1,0.01870,-0.04813,0.00935*
1,1,0.01870,0.04813,0.00935*
%
%ADD18ROUNDEDRECTD18*%
%ADD19O,0.00984X0.04134*%
%ADD20O,0.04134X0.00984*%
G04:AMPARAMS|DCode=21|XSize=59.06mil|YSize=177.16mil|CornerRadius=14.76mil|HoleSize=0mil|Usage=FLASHONLY|Rotation=0.000|XOffset=0mil|YOffset=0mil|HoleType=Round|Shape=RoundedRectangle|*
%AMROUNDEDRECTD21*
21,1,0.05906,0.14764,0,0,0.0*
21,1,0.02953,0.17716,0,0,0.0*
1,1,0.02953,0.01476,-0.07382*
1,1,0.02953,-0.01476,-0.07382*
1,1,0.02953,-0.01476,0.07382*
1,1,0.02953,0.01476,0.07382*
%
%ADD21ROUNDEDRECTD21*%
%ADD22C,0.03937*%
D10*
X30000Y93500D02*
D03*
Y86500D02*
D03*
X10000Y118500D02*
D03*
Y111500D02*
D03*
X7874Y147988D02*
D03*
Y140988D02*
D03*
X88583Y102406D02*
D03*
Y109406D02*
D03*
X95043Y97106D02*
D03*
Y104106D02*
D03*
X66929Y150209D02*
D03*
Y143209D02*
D03*
X112323Y154091D02*
D03*
Y147091D02*
D03*
X106323Y154091D02*
D03*
Y147091D02*
D03*
X126043Y148606D02*
D03*
Y155606D02*
D03*
Y140606D02*
D03*
Y133606D02*
D03*
Y118106D02*
D03*
Y111106D02*
D03*
X133543Y103606D02*
D03*
Y110606D02*
D03*
Y125606D02*
D03*
Y118606D02*
D03*
X123543Y96106D02*
D03*
Y103106D02*
D03*
X158543Y113106D02*
D03*
Y106106D02*
D03*
X183543Y116106D02*
D03*
Y123106D02*
D03*
X208543Y113106D02*
D03*
Y106106D02*
D03*
X233543D02*
D03*
Y113106D02*
D03*
D11*
X31500Y102500D02*
D03*
X38500D02*
D03*
Y110000D02*
D03*
X31500D02*
D03*
X38500Y122500D02*
D03*
X31500D02*
D03*
Y130000D02*
D03*
X38500D02*
D03*
X77799Y132579D02*
D03*
X84799D02*
D03*
X72543Y116606D02*
D03*
X79543D02*
D03*
X78402Y109153D02*
D03*
X71402D02*
D03*
X149543Y119606D02*
D03*
X142543D02*
D03*
Y127106D02*
D03*
X149543D02*
D03*
X167543Y114606D02*
D03*
X174543D02*
D03*
X192543D02*
D03*
X199543D02*
D03*
X224543D02*
D03*
X217543D02*
D03*
X142543Y112106D02*
D03*
X149543D02*
D03*
D12*
X23917Y150571D02*
D03*
X19980D02*
D03*
X16043D02*
D03*
X23917Y138839D02*
D03*
X19980D02*
D03*
X16043D02*
D03*
D13*
X43602Y150000D02*
D03*
Y140000D02*
D03*
X33602Y150000D02*
D03*
Y140000D02*
D03*
D14*
X76043Y149606D02*
D03*
X86043D02*
D03*
X76043Y140106D02*
D03*
X86043D02*
D03*
X82165Y124409D02*
D03*
X72165D02*
D03*
X113543Y103106D02*
D03*
X103543D02*
D03*
Y78106D02*
D03*
X113543D02*
D03*
D15*
X103622Y94346D02*
D03*
X113465D02*
D03*
Y86866D02*
D03*
X103622D02*
D03*
D16*
X57185Y124784D02*
D03*
Y87815D02*
D03*
D17*
X87933Y157106D02*
D03*
X64153D02*
D03*
X87933Y162106D02*
D03*
X64153D02*
D03*
X87933Y167106D02*
D03*
X64153D02*
D03*
X87933Y172106D02*
D03*
X64153D02*
D03*
X87933Y177106D02*
D03*
D18*
X64153D02*
D03*
D19*
X112933Y117461D02*
D03*
X110965D02*
D03*
X108996D02*
D03*
X107028D02*
D03*
X105059D02*
D03*
X103091D02*
D03*
X101122D02*
D03*
X99154D02*
D03*
Y136752D02*
D03*
X101122D02*
D03*
X103091D02*
D03*
X105059D02*
D03*
X107028D02*
D03*
X108996D02*
D03*
X110965D02*
D03*
X112933D02*
D03*
D20*
X96398Y120217D02*
D03*
Y122185D02*
D03*
Y124153D02*
D03*
Y126122D02*
D03*
Y128091D02*
D03*
Y130059D02*
D03*
Y132028D02*
D03*
Y133996D02*
D03*
X115689D02*
D03*
Y132028D02*
D03*
Y130059D02*
D03*
Y128091D02*
D03*
Y126122D02*
D03*
Y124153D02*
D03*
Y122185D02*
D03*
Y120217D02*
D03*
D21*
X158543Y144606D02*
D03*
D22*
X261417Y114567D02*
D03*
M02*
