G04 Layer_Color=32896*
%FSLAX25Y25*%
%MOIN*%
G70*
G01*
G75*
%ADD24C,0.01000*%
%ADD27C,0.01181*%
%ADD28C,0.00100*%
%ADD42C,0.00787*%
D24*
X49705Y3347D02*
Y100157D01*
X258287Y3347D02*
Y100157D01*
X49705D02*
X258287D01*
X49705Y3347D02*
X258287D01*
X76732Y20846D02*
Y32658D01*
X70827Y26752D02*
X82638D01*
X112165Y20256D02*
Y43878D01*
Y20256D02*
X198779D01*
Y43878D01*
X112165D02*
X198779D01*
X108228Y36004D02*
X112165D01*
X108228Y28130D02*
Y36004D01*
Y28130D02*
X112165D01*
X198779Y75374D02*
X202716D01*
Y67500D02*
Y75374D01*
X198779Y67500D02*
X202716D01*
X112165Y59626D02*
X198779D01*
X112165D02*
Y83248D01*
X198779D01*
Y59626D02*
Y83248D01*
X25700Y67700D02*
Y74700D01*
X34300Y67700D02*
Y74700D01*
X25700D02*
X34300D01*
X32756Y54764D02*
X34300Y56308D01*
Y62300D01*
X25700Y56308D02*
Y62300D01*
X27933Y54764D02*
X32756D01*
X27244D02*
X27933D01*
X25700Y56308D02*
X27244Y54764D01*
X17276Y96573D02*
X18276Y97573D01*
X20275D01*
X21275Y96573D01*
Y95574D01*
X20275Y94574D01*
X18276D01*
X17276Y93574D01*
Y92575D01*
X18276Y91575D01*
X20275D01*
X21275Y92575D01*
X15277Y97573D02*
Y91575D01*
X13277Y93574D01*
X11278Y91575D01*
Y97573D01*
X9279Y91575D02*
X7279D01*
X8279D01*
Y97573D01*
X9279Y96573D01*
X33775Y84173D02*
Y78175D01*
X30776D01*
X29776Y79175D01*
Y83173D01*
X30776Y84173D01*
X33775D01*
X27777Y78175D02*
X25777D01*
X26777D01*
Y84173D01*
X27777Y83173D01*
X231890Y109541D02*
Y103543D01*
X228891D01*
X227891Y104543D01*
Y105543D01*
X228891Y106542D01*
X231890D01*
X228891D01*
X227891Y107542D01*
Y108542D01*
X228891Y109541D01*
X231890D01*
X225892D02*
X221893D01*
X223892D01*
Y103543D01*
X219894D02*
X217894D01*
X218894D01*
Y109541D01*
X219894Y108542D01*
X171221Y24193D02*
Y32064D01*
X167285Y36000D01*
X163349Y32064D01*
Y24193D01*
Y30097D01*
X171221D01*
X159413Y24193D02*
Y32064D01*
X155477Y36000D01*
X151542Y32064D01*
Y24193D01*
Y30097D01*
X159413D01*
X147606Y24193D02*
Y32064D01*
X143670Y36000D01*
X139735Y32064D01*
Y24193D01*
Y30097D01*
X147606D01*
X171221Y63563D02*
Y71434D01*
X167285Y75370D01*
X163349Y71434D01*
Y63563D01*
Y69467D01*
X171221D01*
X159413Y63563D02*
Y71434D01*
X155477Y75370D01*
X151542Y71434D01*
Y63563D01*
Y69467D01*
X159413D01*
X147606Y63563D02*
Y71434D01*
X143670Y75370D01*
X139735Y71434D01*
Y63563D01*
Y69467D01*
X147606D01*
D27*
X219079Y120573D02*
Y119574D01*
X220079D01*
X218079D01*
X219079D01*
Y116575D01*
X218079Y115575D01*
X212081D02*
X214081D01*
X215080Y116575D01*
Y118574D01*
X214081Y119574D01*
X212081D01*
X211082Y118574D01*
Y117574D01*
X215080D01*
X209082Y115575D02*
Y119574D01*
X208083D01*
X207083Y118574D01*
Y115575D01*
Y118574D01*
X206083Y119574D01*
X205084Y118574D01*
Y115575D01*
X203084Y113576D02*
Y119574D01*
X200085D01*
X199085Y118574D01*
Y116575D01*
X200085Y115575D01*
X203084D01*
X194087D02*
X196087D01*
X197086Y116575D01*
Y118574D01*
X196087Y119574D01*
X194087D01*
X193087Y118574D01*
Y117574D01*
X197086D01*
X191088Y119574D02*
Y115575D01*
Y117574D01*
X190088Y118574D01*
X189089Y119574D01*
X188089D01*
X184090D02*
X182091D01*
X181091Y118574D01*
Y115575D01*
X184090D01*
X185090Y116575D01*
X184090Y117574D01*
X181091D01*
X178092Y120573D02*
Y119574D01*
X179092D01*
X177093D01*
X178092D01*
Y116575D01*
X177093Y115575D01*
X174094Y119574D02*
Y116575D01*
X173094Y115575D01*
X170095D01*
Y119574D01*
X168096D02*
Y115575D01*
Y117574D01*
X167096Y118574D01*
X166096Y119574D01*
X165096D01*
X159098Y115575D02*
X161098D01*
X162098Y116575D01*
Y118574D01*
X161098Y119574D01*
X159098D01*
X158099Y118574D01*
Y117574D01*
X162098D01*
X152101Y120573D02*
X153100Y121573D01*
X155100D01*
X156099Y120573D01*
Y119574D01*
X155100Y118574D01*
X153100D01*
X152101Y117574D01*
Y116575D01*
X153100Y115575D01*
X155100D01*
X156099Y116575D01*
X147102Y115575D02*
X149102D01*
X150101Y116575D01*
Y118574D01*
X149102Y119574D01*
X147102D01*
X146103Y118574D01*
Y117574D01*
X150101D01*
X144103Y115575D02*
Y119574D01*
X141104D01*
X140105Y118574D01*
Y115575D01*
X138105D02*
X135106D01*
X134107Y116575D01*
X135106Y117574D01*
X137106D01*
X138105Y118574D01*
X137106Y119574D01*
X134107D01*
X131107Y115575D02*
X129108D01*
X128109Y116575D01*
Y118574D01*
X129108Y119574D01*
X131107D01*
X132107Y118574D01*
Y116575D01*
X131107Y115575D01*
X126109Y119574D02*
Y115575D01*
Y117574D01*
X125110Y118574D01*
X124110Y119574D01*
X123110D01*
X175593Y109541D02*
Y105543D01*
X173594Y103543D01*
X171594Y105543D01*
Y109541D01*
X169595Y103543D02*
X167596D01*
X168595D01*
Y109541D01*
X169595Y108542D01*
D28*
X160001Y125491D02*
X163301D01*
X160001Y125591D02*
X163301D01*
X160001Y125691D02*
X163301D01*
X160001Y125791D02*
X163301D01*
X160001Y125891D02*
X163301D01*
X160001Y125991D02*
X163301D01*
X160001Y126091D02*
X163301D01*
X160001Y126191D02*
X163301D01*
X160001Y126291D02*
X163301D01*
X160001Y126391D02*
X163301D01*
X160001Y126491D02*
X163301D01*
X160001Y126591D02*
X163301D01*
X160001Y126691D02*
X163301D01*
X160001Y126791D02*
X163301D01*
X160001Y126891D02*
X163301D01*
X160001Y126991D02*
X163301D01*
X160001Y127091D02*
X163301D01*
X160001Y127191D02*
X163301D01*
X160001Y127291D02*
X163301D01*
X160001Y127391D02*
X163301D01*
X160001Y127491D02*
X163301D01*
X160001Y127591D02*
X163301D01*
X160001Y127691D02*
X163301D01*
X160001Y127791D02*
X163301D01*
X160001Y127891D02*
X163301D01*
X160001Y127991D02*
X163301D01*
X160001Y128091D02*
X163301D01*
X160001Y128191D02*
X163301D01*
X160001Y128291D02*
X163301D01*
X160001Y128391D02*
X163301D01*
X160001Y128491D02*
X163301D01*
X160001Y128591D02*
X163301D01*
X160001Y128691D02*
X163301D01*
X160001Y128791D02*
X163301D01*
X160001Y128891D02*
X163301D01*
X160001Y128991D02*
X163301D01*
X160001Y129091D02*
X163301D01*
X160001Y129191D02*
X163301D01*
X160001Y129291D02*
X163301D01*
X160001Y129391D02*
X163301D01*
X160001Y129491D02*
X163301D01*
X160001Y129591D02*
X163301D01*
X160001Y129691D02*
X163301D01*
X160001Y129791D02*
X163301D01*
X160001Y129891D02*
X163301D01*
X160001Y129991D02*
X163301D01*
X160001Y130091D02*
X163301D01*
X160001Y130191D02*
X163301D01*
X160001Y130291D02*
X163301D01*
X160001Y130391D02*
X163301D01*
X160001Y130491D02*
X163301D01*
X160001Y130591D02*
X163301D01*
X160001Y130791D02*
X163301D01*
X160001Y130891D02*
X163301D01*
X160001Y130991D02*
X163301D01*
X160001Y131091D02*
X163301D01*
X160001Y131191D02*
X163301D01*
X160001Y131291D02*
X163301D01*
X160001Y131391D02*
X163301D01*
X160001Y131491D02*
X163301D01*
X160001Y131591D02*
X163301D01*
X160001Y131691D02*
X163301D01*
X160001Y131791D02*
X163301D01*
X160001Y131891D02*
X163301D01*
X160001Y131991D02*
X163301D01*
X160001Y132091D02*
X163301D01*
X160001Y132191D02*
X163301D01*
X160001Y132291D02*
X163301D01*
X160001Y132391D02*
X163301D01*
X160001Y132491D02*
X163301D01*
X160001Y132591D02*
X163301D01*
X160001Y132691D02*
X163301D01*
X160001Y132791D02*
X163301D01*
X160001Y132891D02*
X163301D01*
X160001Y132991D02*
X163301D01*
X160001Y133091D02*
X163301D01*
X160001Y133191D02*
X163301D01*
X160001Y133291D02*
X163301D01*
X160001Y133391D02*
X163301D01*
X160001Y133491D02*
X163301D01*
X160001Y133591D02*
X163301D01*
X160001Y133691D02*
X163301D01*
X160001Y133791D02*
X163301D01*
X160001Y133891D02*
X163301D01*
X160001Y133991D02*
X163301D01*
X160001Y134091D02*
X163301D01*
X160001Y134191D02*
X163301D01*
X160001Y134291D02*
X163301D01*
X160001Y134391D02*
X163301D01*
X160001Y134491D02*
X163301D01*
X160001Y134591D02*
X163301D01*
X160001Y134691D02*
X163301D01*
X160001Y134791D02*
X163301D01*
X160001Y134891D02*
X163301D01*
X160001Y134991D02*
X163301D01*
X160001Y135091D02*
X163201D01*
X160001Y136491D02*
X166201D01*
X160001Y136591D02*
X166101D01*
X160001Y136691D02*
X166101D01*
X160001Y136791D02*
X166001D01*
X160001Y136891D02*
X166001D01*
X160001Y136991D02*
X165901D01*
X160001Y137091D02*
X165801D01*
X160001Y137191D02*
X165801D01*
X160001Y137291D02*
X165701D01*
X160001Y137391D02*
X165701D01*
X160001Y137491D02*
X165601D01*
X160001Y137591D02*
X165501D01*
X160001Y137691D02*
X165501D01*
X160001Y137791D02*
X165401D01*
X160001Y137891D02*
X165401D01*
X160001Y137991D02*
X165301D01*
X160001Y138091D02*
X165301D01*
X160001Y138191D02*
X165201D01*
X160001Y138291D02*
X165101D01*
X160001Y138391D02*
X165101D01*
X160001Y138491D02*
X165001D01*
X160001Y138591D02*
X165001D01*
X160001Y138791D02*
X164901D01*
X160001Y138891D02*
X164801D01*
X160001Y138991D02*
X164801D01*
X160001Y139091D02*
X164701D01*
X160001Y139191D02*
X164601D01*
X160001Y139291D02*
X164601D01*
X160001Y139391D02*
X164501D01*
X160001Y139491D02*
X164501D01*
X160001Y139591D02*
X164401D01*
X160001Y139691D02*
X164401D01*
X160001Y139791D02*
X164301D01*
X160001Y139891D02*
X164201D01*
X160001Y139991D02*
X164201D01*
X160001Y140091D02*
X164101D01*
X160001Y140191D02*
X164101D01*
X160001Y140291D02*
X164001D01*
X160001Y140391D02*
X163901D01*
X160001Y140491D02*
X163901D01*
X160001Y140591D02*
X163801D01*
X160001Y140691D02*
X163801D01*
X160001Y140791D02*
X163701D01*
X160001Y140891D02*
X163701D01*
X160001Y140991D02*
X163601D01*
X160001Y141091D02*
X163501D01*
X160001Y141191D02*
X163501D01*
X160001Y141291D02*
X163401D01*
X160001Y141391D02*
X163401D01*
X160001Y141491D02*
X163301D01*
X160001Y141591D02*
X163301D01*
X160001Y141691D02*
X163201D01*
X160101Y141791D02*
X163101D01*
X160101Y141891D02*
X163101D01*
X160201Y141991D02*
X163001D01*
X160301Y142091D02*
X163001D01*
X160301Y142191D02*
X162901D01*
X160401Y142291D02*
X162801D01*
X160501Y142391D02*
X162601D01*
X160701Y142491D02*
X162501D01*
X160801Y142591D02*
X162301D01*
X161101Y142691D02*
X162101D01*
X169601Y125191D02*
X170201D01*
X169201Y125291D02*
X170601D01*
X169001Y125391D02*
X170801D01*
X168901Y125491D02*
X170901D01*
X168801Y125591D02*
X171001D01*
X168701Y125691D02*
X171201D01*
X168601Y125791D02*
X171201D01*
X168501Y125891D02*
X171301D01*
X168501Y125991D02*
X171301D01*
X168401Y126091D02*
X171401D01*
X168401Y126191D02*
X171501D01*
X168301Y126291D02*
X171501D01*
X168201Y126391D02*
X171601D01*
X168201Y126491D02*
X171601D01*
X168101Y126591D02*
X171701D01*
X168101Y126691D02*
X171701D01*
X168001Y126791D02*
X171801D01*
X168001Y126891D02*
X171901D01*
X167901Y126991D02*
X171901D01*
X167801Y127091D02*
X172001D01*
X167801Y127191D02*
X172001D01*
X167701Y127291D02*
X172101D01*
X167701Y127391D02*
X172101D01*
X167601Y127491D02*
X172201D01*
X167601Y127591D02*
X172301D01*
X167501Y127691D02*
X172301D01*
X167401Y127791D02*
X172401D01*
X167401Y127891D02*
X172401D01*
X167301Y127991D02*
X172501D01*
X167301Y128091D02*
X172501D01*
X167201Y128191D02*
X172601D01*
X167201Y128291D02*
X172701D01*
X167101Y128391D02*
X172701D01*
X167101Y128491D02*
X172801D01*
X167001Y128591D02*
X172801D01*
X166901Y128691D02*
X172901D01*
X166901Y128791D02*
X172901D01*
X166801Y128891D02*
X173001D01*
X166801Y128991D02*
X173101D01*
X166701Y129091D02*
X173101D01*
X166701Y129191D02*
X173201D01*
X166601Y129291D02*
X173201D01*
X166501Y129391D02*
X173301D01*
X166501Y129491D02*
X173301D01*
X166401Y129591D02*
X173401D01*
X166401Y129691D02*
X173501D01*
X170001Y130091D02*
X173701D01*
X170001Y130191D02*
X173701D01*
X170101Y130291D02*
X173801D01*
X170201Y130391D02*
X173901D01*
X170201Y130491D02*
X173901D01*
X170301Y130591D02*
X174001D01*
X170401Y130791D02*
X174101D01*
X170401Y130891D02*
X174101D01*
X170501Y130991D02*
X174201D01*
X176601Y125491D02*
X179901D01*
X176601Y125591D02*
X179901D01*
X176601Y125691D02*
X179901D01*
X176601Y125791D02*
X179901D01*
X176601Y125891D02*
X179901D01*
X176601Y125991D02*
X179901D01*
X176601Y126091D02*
X179901D01*
X176601Y126191D02*
X179901D01*
X176601Y126291D02*
X179901D01*
X176601Y126391D02*
X179901D01*
X176601Y126491D02*
X179901D01*
X176601Y126591D02*
X179901D01*
X176601Y126691D02*
X179901D01*
X176601Y126791D02*
X179901D01*
X176601Y126891D02*
X179901D01*
X176601Y126991D02*
X179901D01*
X176601Y127091D02*
X179901D01*
X176601Y127191D02*
X179901D01*
X176601Y127291D02*
X179901D01*
X176601Y127391D02*
X179901D01*
X176601Y127491D02*
X179901D01*
X176601Y127591D02*
X179901D01*
X176601Y127691D02*
X179901D01*
X176601Y127791D02*
X179901D01*
X176601Y127891D02*
X179901D01*
X176601Y127991D02*
X179901D01*
X176601Y128091D02*
X179901D01*
X176601Y128191D02*
X179901D01*
X176601Y128291D02*
X179901D01*
X176601Y128391D02*
X179901D01*
X176601Y128491D02*
X179901D01*
X176601Y128591D02*
X179901D01*
X176601Y128691D02*
X179901D01*
X176601Y128791D02*
X179901D01*
X176601Y128891D02*
X179901D01*
X176601Y128991D02*
X179901D01*
X176601Y129091D02*
X179901D01*
X176601Y129191D02*
X179901D01*
X176601Y129291D02*
X179901D01*
X176601Y129391D02*
X179901D01*
X176601Y129491D02*
X179901D01*
X176601Y129591D02*
X179901D01*
X176601Y129691D02*
X179901D01*
X176601Y129791D02*
X179901D01*
X176601Y129891D02*
X179901D01*
X176601Y129991D02*
X179901D01*
X176601Y130091D02*
X179901D01*
X176601Y130191D02*
X179901D01*
X176601Y130291D02*
X179901D01*
X176601Y130391D02*
X179901D01*
X176601Y130491D02*
X179901D01*
X176601Y130591D02*
X179901D01*
X176601Y130791D02*
X179901D01*
X176601Y130891D02*
X179901D01*
X176601Y130991D02*
X179901D01*
X176601Y131091D02*
X179901D01*
X176601Y131191D02*
X179901D01*
X176601Y131291D02*
X179901D01*
X176601Y131391D02*
X179901D01*
X176601Y131491D02*
X179901D01*
X176601Y131591D02*
X179901D01*
X176601Y131691D02*
X179901D01*
X176601Y131791D02*
X179901D01*
X176601Y131891D02*
X179901D01*
X176601Y131991D02*
X179901D01*
X176601Y132091D02*
X179901D01*
X176601Y132191D02*
X179901D01*
X176601Y132291D02*
X179901D01*
X176601Y132391D02*
X179901D01*
X176601Y132491D02*
X179901D01*
X176601Y132591D02*
X179901D01*
X176601Y132691D02*
X179901D01*
X176601Y132791D02*
X179901D01*
X176601Y132891D02*
X179901D01*
X176601Y132991D02*
X179901D01*
X176601Y133091D02*
X179901D01*
X176601Y133191D02*
X179901D01*
X176601Y133291D02*
X179901D01*
X176601Y133391D02*
X179901D01*
X176601Y133491D02*
X179901D01*
X176601Y133591D02*
X179901D01*
X176601Y133691D02*
X179901D01*
X176601Y133791D02*
X179901D01*
X176601Y133891D02*
X179901D01*
X176601Y133991D02*
X179901D01*
X176601Y134091D02*
X179901D01*
X176601Y134191D02*
X179901D01*
X176601Y134291D02*
X179901D01*
X176601Y134391D02*
X179901D01*
X176601Y134491D02*
X179901D01*
X176601Y134591D02*
X179901D01*
X176601Y134691D02*
X179901D01*
X176601Y134791D02*
X179901D01*
X176601Y134891D02*
X179901D01*
X176601Y134991D02*
X179901D01*
X176601Y135091D02*
X179901D01*
X174401Y137691D02*
X179901D01*
X174401Y137791D02*
X179901D01*
X174501Y137891D02*
X179901D01*
X174501Y137991D02*
X179901D01*
X174601Y138091D02*
X179901D01*
X174601Y138191D02*
X179901D01*
X174701Y138291D02*
X179901D01*
X174801Y138391D02*
X179901D01*
X174801Y138491D02*
X179901D01*
X174901Y138591D02*
X179901D01*
X175001Y138791D02*
X179901D01*
X175101Y138891D02*
X179901D01*
X175101Y138991D02*
X179901D01*
X175201Y139091D02*
X179901D01*
X175201Y139191D02*
X179901D01*
X175301Y139291D02*
X179901D01*
X175301Y139391D02*
X179901D01*
X175401Y139491D02*
X179901D01*
X175501Y139591D02*
X179901D01*
X175501Y139691D02*
X179901D01*
X175601Y139791D02*
X179901D01*
X175601Y139891D02*
X179901D01*
X175701Y139991D02*
X179901D01*
X175701Y140091D02*
X179901D01*
X175801Y140191D02*
X179901D01*
X175801Y140291D02*
X179901D01*
X175901Y140391D02*
X179901D01*
X176001Y140491D02*
X179901D01*
X176001Y140591D02*
X179901D01*
X176101Y140691D02*
X179901D01*
X176101Y140791D02*
X179901D01*
X176201Y140891D02*
X179901D01*
X176201Y140991D02*
X179901D01*
X176301Y141091D02*
X179901D01*
X176401Y141191D02*
X179901D01*
X176401Y141291D02*
X179901D01*
X176501Y141391D02*
X179801D01*
X176501Y141491D02*
X179801D01*
X176601Y141591D02*
X179801D01*
X176701Y141691D02*
X179801D01*
X176701Y141791D02*
X179701D01*
X176801Y141891D02*
X179701D01*
X176801Y141991D02*
X179601D01*
X176901Y142091D02*
X179601D01*
X177001Y142191D02*
X179501D01*
X177101Y142291D02*
X179401D01*
X177201Y142391D02*
X179301D01*
X177301Y142491D02*
X179101D01*
X177501Y142591D02*
X179001D01*
X177701Y142691D02*
X178701D01*
X192301Y128491D02*
X197701D01*
X192801Y128591D02*
X197801D01*
X193101Y128691D02*
X197901D01*
X193401Y128791D02*
X197901D01*
X193601Y128891D02*
X198001D01*
X193701Y128991D02*
X198001D01*
X193901Y129091D02*
X198101D01*
X194001Y129191D02*
X198101D01*
X194201Y129291D02*
X198201D01*
X194301Y129391D02*
X198201D01*
X194401Y129491D02*
X198201D01*
X194401Y138491D02*
X198201D01*
X194201Y138591D02*
X198201D01*
X194001Y138791D02*
X198101D01*
X193801Y138891D02*
X198001D01*
X193701Y138991D02*
X198001D01*
X193501Y139091D02*
X197901D01*
X193301Y139191D02*
X197901D01*
X193001Y139291D02*
X197801D01*
X192601Y139391D02*
X197801D01*
X191901Y139491D02*
X197701D01*
X199201Y125491D02*
X202501D01*
X199201Y125591D02*
X202501D01*
X199201Y125691D02*
X202501D01*
X199201Y125791D02*
X202501D01*
X199201Y125891D02*
X202501D01*
X199201Y125991D02*
X202501D01*
X199201Y126091D02*
X202501D01*
X199201Y126191D02*
X202501D01*
X199201Y126291D02*
X202501D01*
X199201Y126391D02*
X202501D01*
X199201Y126491D02*
X202501D01*
X199201Y126591D02*
X202501D01*
X199201Y126691D02*
X202501D01*
X199201Y126791D02*
X202501D01*
X199201Y126891D02*
X202501D01*
X199201Y126991D02*
X202501D01*
X199201Y127091D02*
X202501D01*
X199201Y127191D02*
X202501D01*
X199201Y127291D02*
X202501D01*
X199201Y127391D02*
X202501D01*
X199201Y127491D02*
X202501D01*
X199201Y127591D02*
X202501D01*
X199201Y127691D02*
X202501D01*
X199201Y127791D02*
X202501D01*
X199201Y127891D02*
X202501D01*
X199201Y127991D02*
X202501D01*
X199201Y128091D02*
X202501D01*
X199201Y128191D02*
X202501D01*
X199201Y128291D02*
X202501D01*
X199201Y128391D02*
X202501D01*
X199201Y128491D02*
X202501D01*
X199201Y128591D02*
X202501D01*
X199201Y128691D02*
X202501D01*
X199201Y128791D02*
X202501D01*
X199201Y128891D02*
X202501D01*
X199201Y128991D02*
X202501D01*
X199201Y129091D02*
X202501D01*
X199201Y129191D02*
X202501D01*
X199201Y129291D02*
X202501D01*
X199201Y129391D02*
X202501D01*
X199201Y129491D02*
X202501D01*
X199201Y129591D02*
X202501D01*
X199201Y129691D02*
X202501D01*
X199201Y129791D02*
X202501D01*
X199201Y129891D02*
X202501D01*
X199201Y129991D02*
X202501D01*
X199201Y130091D02*
X202501D01*
X199201Y130191D02*
X202501D01*
X199201Y130291D02*
X202501D01*
X199201Y130391D02*
X202501D01*
X199201Y130491D02*
X202501D01*
X199201Y130591D02*
X202501D01*
X199201Y130791D02*
X202501D01*
X199201Y130891D02*
X202501D01*
X199201Y130991D02*
X202501D01*
X199201Y131091D02*
X202501D01*
X199201Y131191D02*
X202501D01*
X199201Y131291D02*
X202501D01*
X199201Y131391D02*
X202501D01*
X199201Y131491D02*
X202501D01*
X199201Y131591D02*
X202501D01*
X199201Y131691D02*
X202501D01*
X199201Y131791D02*
X202501D01*
X199201Y131891D02*
X202501D01*
X199201Y131991D02*
X202501D01*
X199201Y132091D02*
X202501D01*
X199201Y132191D02*
X202501D01*
X199201Y132291D02*
X202501D01*
X199201Y135691D02*
X202501D01*
X199201Y135791D02*
X202501D01*
X199201Y135891D02*
X202501D01*
X199201Y135991D02*
X202501D01*
X199201Y136091D02*
X202501D01*
X199201Y136191D02*
X202501D01*
X199201Y136291D02*
X202501D01*
X199201Y136391D02*
X202501D01*
X199201Y136491D02*
X202501D01*
X199201Y136591D02*
X202501D01*
X199201Y136691D02*
X202501D01*
X199201Y136791D02*
X202501D01*
X199201Y136891D02*
X202501D01*
X199201Y136991D02*
X202501D01*
X199201Y137091D02*
X202501D01*
X199201Y137191D02*
X202501D01*
X199201Y137291D02*
X202501D01*
X199201Y137391D02*
X202501D01*
X199201Y137491D02*
X202501D01*
X199201Y137591D02*
X202501D01*
X199201Y137691D02*
X202501D01*
X199201Y137791D02*
X202501D01*
X199201Y137891D02*
X202501D01*
X199201Y137991D02*
X202501D01*
X199201Y138091D02*
X202501D01*
X199201Y138191D02*
X202501D01*
X199201Y138291D02*
X202501D01*
X199201Y138391D02*
X202501D01*
X199201Y138491D02*
X202501D01*
X199201Y138591D02*
X202501D01*
X199201Y138791D02*
X202501D01*
X199201Y138891D02*
X202501D01*
X199201Y138991D02*
X202501D01*
X199201Y139091D02*
X202501D01*
X199201Y139191D02*
X202501D01*
X199201Y139291D02*
X202501D01*
X199201Y139391D02*
X202501D01*
X199201Y139491D02*
X202501D01*
X199201Y139591D02*
X202501D01*
X199201Y139691D02*
X202501D01*
X199201Y139791D02*
X202501D01*
X199201Y139891D02*
X202501D01*
X199201Y139991D02*
X202501D01*
X199201Y140091D02*
X202501D01*
X199201Y140191D02*
X202501D01*
X199201Y140291D02*
X202501D01*
X199201Y140391D02*
X202501D01*
X199201Y140491D02*
X202501D01*
X199201Y140591D02*
X202501D01*
X199201Y140691D02*
X202501D01*
X199201Y140791D02*
X202501D01*
X199201Y140891D02*
X202501D01*
X199201Y140991D02*
X202501D01*
X199201Y141091D02*
X202501D01*
X199201Y141191D02*
X202501D01*
X199201Y141291D02*
X202501D01*
X199201Y141391D02*
X202501D01*
X199201Y141491D02*
X202501D01*
X199201Y141591D02*
X202501D01*
X199201Y141691D02*
X202501D01*
X199201Y141791D02*
X202501D01*
X199201Y141891D02*
X202501D01*
X199201Y141991D02*
X202501D01*
X199201Y142091D02*
X202501D01*
X199201Y142191D02*
X202501D01*
X199201Y142291D02*
X202501D01*
X199201Y142391D02*
X202501D01*
X199201Y142491D02*
X202501D01*
X218001Y125491D02*
X219801D01*
X217601Y125591D02*
X220201D01*
X217401Y125691D02*
X220401D01*
X217201Y125791D02*
X220601D01*
X217101Y125891D02*
X220801D01*
X217001Y125991D02*
X221001D01*
X216901Y126091D02*
X221101D01*
X216701Y126191D02*
X221301D01*
X216701Y126291D02*
X221401D01*
X216601Y126391D02*
X221501D01*
X216601Y126491D02*
X221701D01*
X216601Y126591D02*
X221801D01*
X216601Y126691D02*
X221901D01*
X216701Y126791D02*
X222001D01*
X216801Y126891D02*
X222101D01*
X216901Y126991D02*
X222201D01*
X217201Y141491D02*
X222201D01*
X217101Y141591D02*
X222101D01*
X216901Y141691D02*
X221901D01*
X216801Y141791D02*
X221801D01*
X216801Y141891D02*
X221601D01*
X217001Y141991D02*
X221401D01*
X217201Y142091D02*
X221201D01*
X217401Y142191D02*
X220901D01*
X217601Y142291D02*
X220601D01*
X217901Y142391D02*
X220201D01*
X218401Y142491D02*
X219701D01*
X227801Y125491D02*
X230201D01*
X222401Y132891D02*
X227301D01*
X222501Y132991D02*
X227401D01*
X222601Y133091D02*
X227501D01*
X222701Y133191D02*
X227601D01*
X222701Y133291D02*
X227601D01*
X222801Y133391D02*
X227701D01*
X222901Y133491D02*
X227801D01*
X160001Y130691D02*
X163301D01*
X160001Y138691D02*
X164901D01*
X170301Y130691D02*
X174001D01*
X176601D02*
X179901D01*
X174901Y138691D02*
X179901D01*
X194101D02*
X198101D01*
X199201Y130691D02*
X202501D01*
X199201Y138691D02*
X202501D01*
X143501Y125491D02*
X155501D01*
X143501Y125591D02*
X156001D01*
X143501Y125691D02*
X156301D01*
X143501Y125791D02*
X156501D01*
X143501Y125891D02*
X156701D01*
X143501Y125991D02*
X156901D01*
X143501Y126091D02*
X157101D01*
X143501Y126191D02*
X157301D01*
X143501Y126291D02*
X157401D01*
X143501Y126391D02*
X157501D01*
X143501Y126491D02*
X157701D01*
X143501Y126591D02*
X157801D01*
X143501Y126691D02*
X157901D01*
X143501Y126791D02*
X158001D01*
X143501Y126891D02*
X158101D01*
X143501Y126991D02*
X158201D01*
X143501Y127091D02*
X158301D01*
X143501Y127191D02*
X158301D01*
X143501Y127291D02*
X158401D01*
X143501Y127391D02*
X158501D01*
X143501Y127491D02*
X158501D01*
X143501Y127591D02*
X158601D01*
X143501Y127691D02*
X158601D01*
X143501Y127791D02*
X158701D01*
X143501Y127891D02*
X158701D01*
X143501Y127991D02*
X158801D01*
X143501Y128091D02*
X158801D01*
X143501Y128191D02*
X158901D01*
X143501Y128291D02*
X158901D01*
X143501Y128391D02*
X158901D01*
X143501Y128491D02*
X158901D01*
X143501Y128591D02*
X159001D01*
X154901Y128691D02*
X159001D01*
X155301Y128791D02*
X159001D01*
X155401Y128891D02*
X159001D01*
X155501Y128991D02*
X159001D01*
X155601Y129091D02*
X159101D01*
X155701Y129191D02*
X159101D01*
X155701Y129291D02*
X159101D01*
X155801Y129391D02*
X159101D01*
X155801Y129491D02*
X159101D01*
X155801Y129591D02*
X159101D01*
X155801Y129691D02*
X159101D01*
X155801Y129791D02*
X159101D01*
X155801Y129891D02*
X159101D01*
X155801Y129991D02*
X159101D01*
X155801Y130091D02*
X159101D01*
X166101D02*
X169901D01*
X155801Y130191D02*
X159101D01*
X166101D02*
X169801D01*
X155801Y130291D02*
X159101D01*
X166001D02*
X169701D01*
X155801Y130391D02*
X159101D01*
X166001D02*
X169701D01*
X155801Y130491D02*
X159101D01*
X165901D02*
X169601D01*
X155801Y130591D02*
X159101D01*
X165901D02*
X169601D01*
X155801Y130791D02*
X159101D01*
X165701D02*
X169501D01*
X155801Y130891D02*
X159101D01*
X165701D02*
X169401D01*
X155801Y130991D02*
X159101D01*
X165601D02*
X169301D01*
X155801Y131091D02*
X159101D01*
X165601D02*
X169301D01*
X155801Y131191D02*
X159101D01*
X165501D02*
X169201D01*
X155801Y131291D02*
X159101D01*
X165501D02*
X169201D01*
X155801Y131391D02*
X159101D01*
X165401D02*
X169101D01*
X155801Y131491D02*
X159101D01*
X165401D02*
X169101D01*
X155801Y131591D02*
X159101D01*
X165301D02*
X169001D01*
X155801Y131691D02*
X159101D01*
X165201D02*
X168901D01*
X155801Y131791D02*
X159101D01*
X165201D02*
X168901D01*
X155801Y131891D02*
X159101D01*
X165101D02*
X168801D01*
X155801Y131991D02*
X159101D01*
X165101D02*
X168801D01*
X155801Y132091D02*
X159101D01*
X165001D02*
X168701D01*
X155801Y132191D02*
X159101D01*
X165001D02*
X168701D01*
X155801Y132291D02*
X159101D01*
X164901D02*
X168601D01*
X144901Y132391D02*
X154801D01*
X155801D02*
X159101D01*
X164801D02*
X168601D01*
X144901Y132491D02*
X154801D01*
X155801D02*
X159101D01*
X164801D02*
X168501D01*
X144901Y132591D02*
X154801D01*
X155801D02*
X159101D01*
X164701D02*
X168401D01*
X144901Y132691D02*
X154801D01*
X155801D02*
X159101D01*
X164701D02*
X168401D01*
X144901Y132791D02*
X154801D01*
X155801D02*
X159101D01*
X164601D02*
X168301D01*
X144901Y132891D02*
X154801D01*
X155801D02*
X159101D01*
X164601D02*
X168301D01*
X144901Y132991D02*
X154801D01*
X155801D02*
X159101D01*
X164501D02*
X168201D01*
X144901Y133091D02*
X154801D01*
X155801D02*
X159101D01*
X164401D02*
X168101D01*
X144901Y133191D02*
X154801D01*
X155801D02*
X159101D01*
X164401D02*
X168101D01*
X144901Y133291D02*
X154801D01*
X155801D02*
X159101D01*
X164301D02*
X168001D01*
X144901Y133391D02*
X154801D01*
X155801D02*
X159101D01*
X164301D02*
X168001D01*
X144901Y133491D02*
X154801D01*
X155801D02*
X159101D01*
X164201D02*
X167901D01*
X144901Y133591D02*
X154801D01*
X155801D02*
X159101D01*
X164201D02*
X167901D01*
X144901Y133691D02*
X154801D01*
X155801D02*
X159101D01*
X164101D02*
X167801D01*
X144901Y133791D02*
X154801D01*
X155801D02*
X159101D01*
X164001D02*
X167701D01*
X144901Y133891D02*
X154801D01*
X155801D02*
X159101D01*
X164001D02*
X167701D01*
X144901Y133991D02*
X154801D01*
X155801D02*
X159101D01*
X163901D02*
X167601D01*
X144901Y134091D02*
X154801D01*
X155801D02*
X159101D01*
X163901D02*
X167601D01*
X144901Y134191D02*
X154801D01*
X155801D02*
X159101D01*
X163801D02*
X167501D01*
X144901Y134291D02*
X154801D01*
X155801D02*
X159101D01*
X163801D02*
X167401D01*
X144901Y134391D02*
X154801D01*
X155801D02*
X159101D01*
X163701D02*
X167401D01*
X144901Y134491D02*
X154801D01*
X155801D02*
X159101D01*
X163601D02*
X167301D01*
X144901Y134591D02*
X154801D01*
X155801D02*
X159101D01*
X163601D02*
X167301D01*
X144901Y134691D02*
X154801D01*
X155801D02*
X159101D01*
X163501D02*
X167201D01*
X144901Y134791D02*
X154801D01*
X155801D02*
X159101D01*
X163501D02*
X167201D01*
X144901Y134891D02*
X154801D01*
X155801D02*
X159101D01*
X163401D02*
X167101D01*
X144901Y134991D02*
X154801D01*
X155801D02*
X159101D01*
X163401D02*
X167001D01*
X144901Y135091D02*
X154801D01*
X155801D02*
X159101D01*
X163301D02*
X167001D01*
X144901Y135191D02*
X154801D01*
X155801D02*
X159101D01*
X160001D02*
X166901D01*
X144901Y135291D02*
X154801D01*
X155801D02*
X159101D01*
X160001D02*
X166901D01*
X144901Y135391D02*
X154801D01*
X155801D02*
X159101D01*
X160001D02*
X166801D01*
X144901Y135491D02*
X154801D01*
X155801D02*
X159101D01*
X160001D02*
X166801D01*
X144901Y135591D02*
X154701D01*
X155801D02*
X159101D01*
X160001D02*
X166701D01*
X155801Y135691D02*
X159101D01*
X160001D02*
X166601D01*
X155801Y135791D02*
X159101D01*
X160001D02*
X166601D01*
X155801Y135891D02*
X159101D01*
X160001D02*
X166501D01*
X155801Y135991D02*
X159101D01*
X160001D02*
X166501D01*
X155801Y136091D02*
X159101D01*
X160001D02*
X166401D01*
X155801Y136191D02*
X159101D01*
X160001D02*
X166401D01*
X155801Y136291D02*
X159101D01*
X160001D02*
X166301D01*
X155801Y136391D02*
X159101D01*
X160001D02*
X166301D01*
X155801Y136491D02*
X159101D01*
X155801Y136591D02*
X159101D01*
X155801Y136691D02*
X159101D01*
X155801Y136791D02*
X159101D01*
X155801Y136891D02*
X159101D01*
X155801Y136991D02*
X159101D01*
X155801Y137091D02*
X159101D01*
X155801Y137191D02*
X159101D01*
X155801Y137291D02*
X159101D01*
X155801Y137391D02*
X159101D01*
X155801Y137491D02*
X159101D01*
X155801Y137591D02*
X159101D01*
X155801Y137691D02*
X159101D01*
X155801Y137791D02*
X159101D01*
X155801Y137891D02*
X159101D01*
X155801Y137991D02*
X159101D01*
X155801Y138091D02*
X159101D01*
X155801Y138191D02*
X159101D01*
X155801Y138291D02*
X159101D01*
X155801Y138391D02*
X159101D01*
X155801Y138491D02*
X159101D01*
X155801Y138591D02*
X159101D01*
X155801Y138791D02*
X159101D01*
X155801Y138891D02*
X159101D01*
X155801Y138991D02*
X159101D01*
X155801Y139091D02*
X159101D01*
X155801Y139191D02*
X159101D01*
X143501Y139291D02*
X159101D01*
X143501Y139391D02*
X159101D01*
X143501Y139491D02*
X159101D01*
X143501Y139591D02*
X159101D01*
X143501Y139691D02*
X159101D01*
X143501Y139791D02*
X159101D01*
X143501Y139891D02*
X159101D01*
X143501Y139991D02*
X159101D01*
X143501Y140091D02*
X159101D01*
X143501Y140191D02*
X159101D01*
X143501Y140291D02*
X159101D01*
X143501Y140391D02*
X159101D01*
X143501Y140491D02*
X159101D01*
X143501Y140591D02*
X159101D01*
X143501Y140691D02*
X159101D01*
X143501Y140791D02*
X159101D01*
X143501Y140891D02*
X159101D01*
X143501Y140991D02*
X159101D01*
X143501Y141091D02*
X159101D01*
X143501Y141191D02*
X159101D01*
X143501Y141291D02*
X159101D01*
X143501Y141391D02*
X159001D01*
X143501Y141491D02*
X159001D01*
X143501Y141591D02*
X158901D01*
X143501Y141691D02*
X158901D01*
X143501Y141791D02*
X158801D01*
X143501Y141891D02*
X158801D01*
X143501Y141991D02*
X158701D01*
X143501Y142091D02*
X158501D01*
X143501Y142191D02*
X158401D01*
X143501Y142291D02*
X158301D01*
X143501Y142391D02*
X158101D01*
X143501Y142491D02*
X157801D01*
X186701Y125191D02*
X192301D01*
X185901Y125291D02*
X193101D01*
X185501Y125391D02*
X193501D01*
X185101Y125491D02*
X193901D01*
X184801Y125591D02*
X194201D01*
X184601Y125691D02*
X194401D01*
X184301Y125791D02*
X194701D01*
X184101Y125891D02*
X194901D01*
X183901Y125991D02*
X195101D01*
X183701Y126091D02*
X195301D01*
X183601Y126191D02*
X195501D01*
X183401Y126291D02*
X195601D01*
X183301Y126391D02*
X195801D01*
X183101Y126491D02*
X195901D01*
X183001Y126591D02*
X196001D01*
X182901Y126691D02*
X196201D01*
X182701Y126791D02*
X196301D01*
X182601Y126891D02*
X196401D01*
X182501Y126991D02*
X196501D01*
X182401Y127091D02*
X196601D01*
X182301Y127191D02*
X196701D01*
X182201Y127291D02*
X196801D01*
X182101Y127391D02*
X196901D01*
X182001Y127491D02*
X197001D01*
X181901Y127591D02*
X197101D01*
X181801Y127691D02*
X197201D01*
X181801Y127791D02*
X197301D01*
X181701Y127891D02*
X197301D01*
X181601Y127991D02*
X197401D01*
X181501Y128091D02*
X197501D01*
X181501Y128191D02*
X197601D01*
X181401Y128291D02*
X197601D01*
X181301Y128391D02*
X197701D01*
X181301Y128491D02*
X186701D01*
X181201Y128591D02*
X186201D01*
X181201Y128691D02*
X185901D01*
X181101Y128791D02*
X185701D01*
X181101Y128891D02*
X185501D01*
X181001Y128991D02*
X185301D01*
X181001Y129091D02*
X185101D01*
X180901Y129191D02*
X185001D01*
X180901Y129291D02*
X184901D01*
X180801Y129391D02*
X184801D01*
X180801Y129491D02*
X184601D01*
X180801Y129591D02*
X184501D01*
X194501D02*
X198301D01*
X180701Y129691D02*
X184501D01*
X194601D02*
X198301D01*
X180701Y129791D02*
X184401D01*
X194701D02*
X198301D01*
X180601Y129891D02*
X184301D01*
X194701D02*
X198401D01*
X180601Y129991D02*
X184201D01*
X194801D02*
X198401D01*
X180601Y130091D02*
X184201D01*
X194901D02*
X198401D01*
X180601Y130191D02*
X184101D01*
X194901D02*
X198501D01*
X180501Y130291D02*
X184001D01*
X195001D02*
X198501D01*
X180501Y130391D02*
X184001D01*
X195101D02*
X198501D01*
X180501Y130491D02*
X183901D01*
X195101D02*
X198601D01*
X180401Y130591D02*
X183901D01*
X195101D02*
X198601D01*
X180401Y130791D02*
X183801D01*
X195201D02*
X198601D01*
X180401Y130891D02*
X183801D01*
X195301D02*
X198601D01*
X180401Y130991D02*
X183701D01*
X195301D02*
X198701D01*
X170601Y131091D02*
X174301D01*
X180401D02*
X183701D01*
X195301D02*
X198701D01*
X170601Y131191D02*
X174301D01*
X180301D02*
X183701D01*
X195401D02*
X198701D01*
X170701Y131291D02*
X174401D01*
X180301D02*
X183701D01*
X195401D02*
X198701D01*
X170701Y131391D02*
X174401D01*
X180301D02*
X183601D01*
X195401D02*
X198701D01*
X170801Y131491D02*
X174501D01*
X180301D02*
X183601D01*
X195401D02*
X198701D01*
X170801Y131591D02*
X174501D01*
X180301D02*
X183601D01*
X195401D02*
X198701D01*
X170901Y131691D02*
X174601D01*
X180301D02*
X183601D01*
X195501D02*
X198701D01*
X171001Y131791D02*
X174701D01*
X180301D02*
X183601D01*
X195501D02*
X198701D01*
X171001Y131891D02*
X174701D01*
X180301D02*
X183601D01*
X195501D02*
X198801D01*
X171101Y131991D02*
X174801D01*
X180301D02*
X183601D01*
X195501D02*
X198801D01*
X171101Y132091D02*
X174801D01*
X180301D02*
X183501D01*
X195501D02*
X198801D01*
X171201Y132191D02*
X174901D01*
X180301D02*
X183501D01*
X195501D02*
X198801D01*
X171201Y132291D02*
X174901D01*
X180301D02*
X183501D01*
X195501D02*
X198801D01*
X171301Y132391D02*
X175001D01*
X180301D02*
X183501D01*
X195501D02*
X198801D01*
X171401Y132491D02*
X175101D01*
X180301D02*
X183501D01*
X195501D02*
X198801D01*
X171401Y132591D02*
X175101D01*
X180301D02*
X183501D01*
X195501D02*
X198801D01*
X171501Y132691D02*
X175201D01*
X180301D02*
X183501D01*
X195501D02*
X198801D01*
X171501Y132791D02*
X175201D01*
X180301D02*
X183501D01*
X195501D02*
X198801D01*
X171601Y132891D02*
X175301D01*
X180301D02*
X183501D01*
X195501D02*
X198801D01*
X171601Y132991D02*
X175301D01*
X180301D02*
X183501D01*
X195501D02*
X198801D01*
X171701Y133091D02*
X175401D01*
X180301D02*
X183501D01*
X195501D02*
X198801D01*
X171801Y133191D02*
X175501D01*
X180301D02*
X183501D01*
X195501D02*
X198801D01*
X171801Y133291D02*
X175501D01*
X180301D02*
X183501D01*
X195501D02*
X198801D01*
X171901Y133391D02*
X175601D01*
X180301D02*
X183501D01*
X195501D02*
X198801D01*
X171901Y133491D02*
X175601D01*
X180301D02*
X183501D01*
X195501D02*
X198801D01*
X172001Y133591D02*
X175701D01*
X180301D02*
X183501D01*
X195501D02*
X198801D01*
X172001Y133691D02*
X175701D01*
X180301D02*
X183501D01*
X195501D02*
X198801D01*
X172101Y133791D02*
X175801D01*
X180301D02*
X183501D01*
X195501D02*
X198801D01*
X172201Y133891D02*
X175901D01*
X180301D02*
X183501D01*
X195501D02*
X198801D01*
X172201Y133991D02*
X175901D01*
X180301D02*
X183501D01*
X195501D02*
X198801D01*
X172301Y134091D02*
X176001D01*
X180301D02*
X183501D01*
X195501D02*
X198801D01*
X172301Y134191D02*
X176001D01*
X180301D02*
X183501D01*
X195501D02*
X198801D01*
X172401Y134291D02*
X176101D01*
X180301D02*
X183501D01*
X195501D02*
X198801D01*
X172501Y134391D02*
X176101D01*
X180301D02*
X183501D01*
X195501D02*
X198801D01*
X172501Y134491D02*
X176201D01*
X180301D02*
X183501D01*
X195501D02*
X198801D01*
X172601Y134591D02*
X176201D01*
X180301D02*
X183501D01*
X195501D02*
X198801D01*
X172601Y134691D02*
X176301D01*
X180301D02*
X183501D01*
X195501D02*
X198801D01*
X172701Y134791D02*
X176401D01*
X180301D02*
X183501D01*
X195501D02*
X198801D01*
X172801Y134891D02*
X176401D01*
X180301D02*
X183501D01*
X195501D02*
X198801D01*
X172801Y134991D02*
X176501D01*
X180301D02*
X183501D01*
X195501D02*
X198801D01*
X172901Y135091D02*
X176501D01*
X180301D02*
X183501D01*
X195501D02*
X198801D01*
X172901Y135191D02*
X179901D01*
X180301D02*
X183501D01*
X195501D02*
X198801D01*
X173001Y135291D02*
X179901D01*
X180301D02*
X183501D01*
X195501D02*
X198801D01*
X173001Y135391D02*
X179901D01*
X180301D02*
X183501D01*
X195501D02*
X198801D01*
X173101Y135491D02*
X179901D01*
X180301D02*
X183501D01*
X195501D02*
X198801D01*
X173201Y135591D02*
X179901D01*
X180301D02*
X183501D01*
X195501D02*
X198801D01*
X173201Y135691D02*
X179901D01*
X180301D02*
X183501D01*
X195501D02*
X198801D01*
X173301Y135791D02*
X179901D01*
X180301D02*
X183501D01*
X195501D02*
X198801D01*
X173301Y135891D02*
X179901D01*
X180301D02*
X183501D01*
X195501D02*
X198801D01*
X173401Y135991D02*
X179901D01*
X180301D02*
X183601D01*
X195501D02*
X198801D01*
X173401Y136091D02*
X179901D01*
X180301D02*
X183601D01*
X195501D02*
X198801D01*
X173501Y136191D02*
X179901D01*
X180301D02*
X183601D01*
X195501D02*
X198701D01*
X173601Y136291D02*
X179901D01*
X180301D02*
X183601D01*
X195401D02*
X198701D01*
X173601Y136391D02*
X179901D01*
X180301D02*
X183601D01*
X195401D02*
X198701D01*
X173701Y136491D02*
X179901D01*
X180301D02*
X183601D01*
X195401D02*
X198701D01*
X173701Y136591D02*
X179901D01*
X180301D02*
X183601D01*
X195401D02*
X198701D01*
X173801Y136691D02*
X179901D01*
X180301D02*
X183701D01*
X195401D02*
X198701D01*
X173801Y136791D02*
X179901D01*
X180301D02*
X183701D01*
X195301D02*
X198701D01*
X173901Y136891D02*
X179901D01*
X180401D02*
X183701D01*
X195301D02*
X198701D01*
X173901Y136991D02*
X179901D01*
X180401D02*
X183701D01*
X195301D02*
X198701D01*
X174001Y137091D02*
X179901D01*
X180401D02*
X183801D01*
X195201D02*
X198601D01*
X174101Y137191D02*
X179901D01*
X180401D02*
X183801D01*
X195201D02*
X198601D01*
X174101Y137291D02*
X179901D01*
X180401D02*
X183901D01*
X195201D02*
X198601D01*
X174201Y137391D02*
X179901D01*
X180501D02*
X183901D01*
X195101D02*
X198601D01*
X174201Y137491D02*
X179901D01*
X180501D02*
X184001D01*
X195101D02*
X198501D01*
X174301Y137591D02*
X179901D01*
X180501D02*
X184001D01*
X195001D02*
X198501D01*
X180501Y137691D02*
X184101D01*
X195001D02*
X198501D01*
X180601Y137791D02*
X184101D01*
X194901D02*
X198501D01*
X180601Y137891D02*
X184201D01*
X194801D02*
X198401D01*
X180601Y137991D02*
X184201D01*
X194801D02*
X198401D01*
X180701Y138091D02*
X184301D01*
X194701D02*
X198401D01*
X180701Y138191D02*
X184401D01*
X194601D02*
X198301D01*
X180701Y138291D02*
X184501D01*
X194601D02*
X198301D01*
X180801Y138391D02*
X184601D01*
X194501D02*
X198301D01*
X180801Y138491D02*
X184701D01*
X180901Y138591D02*
X184801D01*
X180901Y138791D02*
X185001D01*
X181001Y138891D02*
X185201D01*
X181001Y138991D02*
X185301D01*
X181101Y139091D02*
X185501D01*
X181101Y139191D02*
X185801D01*
X181201Y139291D02*
X186001D01*
X181201Y139391D02*
X186401D01*
X181301Y139491D02*
X187101D01*
X181401Y139591D02*
X197601D01*
X181401Y139691D02*
X197601D01*
X181501Y139791D02*
X197501D01*
X181601Y139891D02*
X197401D01*
X181701Y139991D02*
X197401D01*
X181701Y140091D02*
X197301D01*
X181801Y140191D02*
X197201D01*
X181901Y140291D02*
X197101D01*
X182001Y140391D02*
X197101D01*
X182101Y140491D02*
X197001D01*
X182201Y140591D02*
X196901D01*
X182201Y140691D02*
X196801D01*
X182301Y140791D02*
X196701D01*
X182501Y140891D02*
X196601D01*
X182601Y140991D02*
X196501D01*
X182701Y141091D02*
X196301D01*
X182801Y141191D02*
X196201D01*
X182901Y141291D02*
X196101D01*
X183101Y141391D02*
X196001D01*
X183201Y141491D02*
X195801D01*
X183401Y141591D02*
X195701D01*
X183501Y141691D02*
X195501D01*
X183701Y141791D02*
X195301D01*
X183901Y141891D02*
X195201D01*
X184001Y141991D02*
X195001D01*
X184301Y142091D02*
X194801D01*
X184501Y142191D02*
X194501D01*
X184701Y142291D02*
X194301D01*
X185001Y142391D02*
X194001D01*
X185301Y142491D02*
X193701D01*
X185701Y142591D02*
X193301D01*
X186301Y142691D02*
X192701D01*
X213001Y125491D02*
X216301D01*
X213001Y125591D02*
X216301D01*
X227801D02*
X230601D01*
X213001Y125691D02*
X216301D01*
X227801D02*
X230801D01*
X213001Y125791D02*
X216301D01*
X227801D02*
X231001D01*
X213001Y125891D02*
X216301D01*
X227801D02*
X231201D01*
X213001Y125991D02*
X216301D01*
X227801D02*
X231301D01*
X213001Y126091D02*
X216301D01*
X227801D02*
X231401D01*
X213001Y126191D02*
X216301D01*
X227801D02*
X231501D01*
X213001Y126291D02*
X216301D01*
X227801D02*
X231501D01*
X213001Y126391D02*
X216301D01*
X227801D02*
X231601D01*
X213001Y126491D02*
X216301D01*
X227801D02*
X231701D01*
X213001Y126591D02*
X216301D01*
X227801D02*
X231701D01*
X213001Y126691D02*
X216301D01*
X227801D02*
X231801D01*
X213001Y126791D02*
X216301D01*
X227801D02*
X231801D01*
X213001Y126891D02*
X216301D01*
X227801D02*
X231801D01*
X213001Y126991D02*
X216301D01*
X227801D02*
X231901D01*
X213001Y127091D02*
X216301D01*
X217001D02*
X222301D01*
X227801D02*
X231901D01*
X213001Y127191D02*
X216301D01*
X217101D02*
X222401D01*
X227801D02*
X231901D01*
X213001Y127291D02*
X216301D01*
X217201D02*
X222501D01*
X227801D02*
X231901D01*
X213001Y127391D02*
X216301D01*
X217301D02*
X222601D01*
X227801D02*
X232001D01*
X213001Y127491D02*
X216301D01*
X217301D02*
X222701D01*
X227801D02*
X232001D01*
X213001Y127591D02*
X216301D01*
X217401D02*
X222801D01*
X227801D02*
X232001D01*
X213001Y127691D02*
X216301D01*
X217601D02*
X222901D01*
X227801D02*
X232001D01*
X213001Y127791D02*
X216301D01*
X217701D02*
X223001D01*
X227801D02*
X232001D01*
X213001Y127891D02*
X216301D01*
X217701D02*
X223101D01*
X227801D02*
X232001D01*
X213001Y127991D02*
X216301D01*
X217801D02*
X223101D01*
X227801D02*
X232001D01*
X213001Y128091D02*
X216301D01*
X217901D02*
X223201D01*
X227801D02*
X232001D01*
X213001Y128191D02*
X216301D01*
X218001D02*
X223301D01*
X227801D02*
X232001D01*
X213001Y128291D02*
X216301D01*
X218101D02*
X223401D01*
X227801D02*
X232001D01*
X213001Y128391D02*
X216301D01*
X218201D02*
X223501D01*
X227801D02*
X232001D01*
X213001Y128491D02*
X216301D01*
X218301D02*
X223601D01*
X227801D02*
X232001D01*
X213001Y128591D02*
X216301D01*
X218401D02*
X223601D01*
X227801D02*
X232001D01*
X213001Y128691D02*
X216301D01*
X218501D02*
X223701D01*
X227801D02*
X232001D01*
X213001Y128791D02*
X216301D01*
X218601D02*
X223801D01*
X227801D02*
X232001D01*
X213001Y128891D02*
X216301D01*
X218601D02*
X223901D01*
X227801D02*
X232001D01*
X213001Y128991D02*
X216301D01*
X218801D02*
X224001D01*
X227801D02*
X232001D01*
X213001Y129091D02*
X216301D01*
X218901D02*
X224001D01*
X227801D02*
X232001D01*
X213001Y129191D02*
X216301D01*
X218901D02*
X224101D01*
X227801D02*
X232001D01*
X213001Y129291D02*
X216301D01*
X219001D02*
X224201D01*
X227801D02*
X232001D01*
X213001Y129391D02*
X216301D01*
X219101D02*
X224301D01*
X227801D02*
X232001D01*
X213001Y129491D02*
X216301D01*
X219201D02*
X224401D01*
X227801D02*
X232001D01*
X213001Y129591D02*
X216301D01*
X219301D02*
X224401D01*
X227801D02*
X232001D01*
X213001Y129691D02*
X216301D01*
X219401D02*
X224501D01*
X227801D02*
X232001D01*
X213001Y129791D02*
X216301D01*
X219501D02*
X224601D01*
X227801D02*
X232001D01*
X213001Y129891D02*
X216301D01*
X219601D02*
X224701D01*
X227801D02*
X232001D01*
X213001Y129991D02*
X216301D01*
X219701D02*
X224801D01*
X227801D02*
X232001D01*
X213001Y130091D02*
X216301D01*
X219801D02*
X224901D01*
X227801D02*
X232001D01*
X213001Y130191D02*
X216301D01*
X219901D02*
X225001D01*
X227801D02*
X232001D01*
X213001Y130291D02*
X216301D01*
X220001D02*
X225101D01*
X227801D02*
X232001D01*
X213001Y130391D02*
X216301D01*
X220101D02*
X225101D01*
X227801D02*
X232001D01*
X213001Y130491D02*
X216301D01*
X220101D02*
X225201D01*
X227801D02*
X232001D01*
X213001Y130591D02*
X216301D01*
X220201D02*
X225301D01*
X227801D02*
X232001D01*
X213001Y130791D02*
X216301D01*
X220401D02*
X225501D01*
X227801D02*
X232001D01*
X213001Y130891D02*
X216301D01*
X220501D02*
X225601D01*
X227801D02*
X232001D01*
X213001Y130991D02*
X216301D01*
X220601D02*
X225701D01*
X227801D02*
X232001D01*
X213001Y131091D02*
X216301D01*
X220701D02*
X225701D01*
X227801D02*
X232001D01*
X213001Y131191D02*
X216301D01*
X220801D02*
X225801D01*
X227801D02*
X232001D01*
X213001Y131291D02*
X216301D01*
X220901D02*
X225901D01*
X227801D02*
X232001D01*
X213001Y131391D02*
X216301D01*
X221001D02*
X226001D01*
X227801D02*
X232001D01*
X213001Y131491D02*
X216301D01*
X221101D02*
X226101D01*
X227801D02*
X232001D01*
X213001Y131591D02*
X216301D01*
X221101D02*
X226201D01*
X227801D02*
X232001D01*
X213001Y131691D02*
X216301D01*
X221201D02*
X226201D01*
X227801D02*
X232001D01*
X213001Y131791D02*
X216301D01*
X221301D02*
X226301D01*
X227801D02*
X232001D01*
X213001Y131891D02*
X216301D01*
X221401D02*
X226401D01*
X227801D02*
X232001D01*
X213001Y131991D02*
X216301D01*
X221501D02*
X226501D01*
X227801D02*
X232001D01*
X213001Y132091D02*
X216301D01*
X221601D02*
X226601D01*
X227801D02*
X232001D01*
X213001Y132191D02*
X216301D01*
X221701D02*
X226701D01*
X227801D02*
X232001D01*
X213101Y132291D02*
X216301D01*
X221801D02*
X226801D01*
X227801D02*
X232001D01*
X221901Y132391D02*
X226901D01*
X227801D02*
X232001D01*
X222001Y132491D02*
X227001D01*
X227801D02*
X232001D01*
X222101Y132591D02*
X227001D01*
X227801D02*
X232001D01*
X222201Y132691D02*
X227101D01*
X227801D02*
X232001D01*
X222301Y132791D02*
X227201D01*
X227801D02*
X232001D01*
X227801Y132891D02*
X232001D01*
X227801Y132991D02*
X232001D01*
X227801Y133091D02*
X232001D01*
X227801Y133191D02*
X232001D01*
X227801Y133291D02*
X232001D01*
X227801Y133391D02*
X232001D01*
X227901Y133491D02*
X232001D01*
X223001Y133591D02*
X232001D01*
X223101Y133691D02*
X232001D01*
X223201Y133791D02*
X232001D01*
X223301Y133891D02*
X232001D01*
X223401Y133991D02*
X232001D01*
X223501Y134091D02*
X232001D01*
X223601Y134191D02*
X232001D01*
X223601Y134291D02*
X232001D01*
X223801Y134391D02*
X232001D01*
X223901Y134491D02*
X232001D01*
X223901Y134591D02*
X232001D01*
X224001Y134691D02*
X232001D01*
X224101Y134791D02*
X232001D01*
X224201Y134891D02*
X232001D01*
X224301Y134991D02*
X232001D01*
X224301Y135091D02*
X232001D01*
X224201Y135191D02*
X232001D01*
X224101Y135291D02*
X232001D01*
X224001Y135391D02*
X232001D01*
X223901Y135491D02*
X232001D01*
X223801Y135591D02*
X232001D01*
X213001Y135691D02*
X216301D01*
X223701D02*
X232001D01*
X213001Y135791D02*
X216301D01*
X223601D02*
X232001D01*
X213001Y135891D02*
X216301D01*
X223401D02*
X232001D01*
X213001Y135991D02*
X216301D01*
X223301D02*
X232001D01*
X213001Y136091D02*
X216301D01*
X223201D02*
X232001D01*
X213001Y136191D02*
X216301D01*
X223101D02*
X232001D01*
X213001Y136291D02*
X216301D01*
X223001D02*
X232001D01*
X213001Y136391D02*
X216301D01*
X222901D02*
X232001D01*
X213001Y136491D02*
X216301D01*
X222801D02*
X232001D01*
X213001Y136591D02*
X216301D01*
X222701D02*
X232001D01*
X213001Y136691D02*
X216301D01*
X222601D02*
X232001D01*
X213001Y136791D02*
X216301D01*
X222401D02*
X232001D01*
X213001Y136891D02*
X216301D01*
X222301D02*
X227601D01*
X227801D02*
X232001D01*
X213001Y136991D02*
X216301D01*
X222201D02*
X227501D01*
X227801D02*
X232001D01*
X213001Y137091D02*
X216301D01*
X222101D02*
X227401D01*
X227801D02*
X232001D01*
X213001Y137191D02*
X216301D01*
X222001D02*
X227301D01*
X227801D02*
X232001D01*
X213001Y137291D02*
X216301D01*
X221901D02*
X227201D01*
X227801D02*
X232001D01*
X213001Y137391D02*
X216301D01*
X221801D02*
X227001D01*
X227801D02*
X232001D01*
X213001Y137491D02*
X216301D01*
X221601D02*
X227001D01*
X227801D02*
X232001D01*
X213001Y137591D02*
X216301D01*
X221501D02*
X226801D01*
X227801D02*
X232001D01*
X213001Y137691D02*
X216301D01*
X221401D02*
X226701D01*
X227801D02*
X232001D01*
X213001Y137791D02*
X216301D01*
X221301D02*
X226601D01*
X227801D02*
X232001D01*
X213001Y137891D02*
X216301D01*
X221201D02*
X226501D01*
X227801D02*
X232001D01*
X213001Y137991D02*
X216301D01*
X221101D02*
X226401D01*
X227801D02*
X232001D01*
X213001Y138091D02*
X216301D01*
X221001D02*
X226301D01*
X227801D02*
X232001D01*
X213001Y138191D02*
X216301D01*
X220901D02*
X226101D01*
X227801D02*
X232001D01*
X213001Y138291D02*
X216301D01*
X220701D02*
X226001D01*
X227801D02*
X232001D01*
X213001Y138391D02*
X216301D01*
X220701D02*
X225901D01*
X227801D02*
X232001D01*
X213001Y138491D02*
X216301D01*
X220501D02*
X225801D01*
X227801D02*
X232001D01*
X213001Y138591D02*
X216301D01*
X220401D02*
X225601D01*
X227801D02*
X232001D01*
X213001Y138791D02*
X216301D01*
X220201D02*
X225401D01*
X227801D02*
X232001D01*
X213001Y138891D02*
X216301D01*
X220101D02*
X225301D01*
X227801D02*
X232001D01*
X213001Y138991D02*
X216301D01*
X220001D02*
X225201D01*
X227801D02*
X232001D01*
X213001Y139091D02*
X216301D01*
X219901D02*
X225101D01*
X227801D02*
X232001D01*
X213001Y139191D02*
X216301D01*
X219701D02*
X224901D01*
X227801D02*
X232001D01*
X213001Y139291D02*
X216301D01*
X219601D02*
X224801D01*
X227801D02*
X232001D01*
X213001Y139391D02*
X216301D01*
X219501D02*
X224701D01*
X227801D02*
X232001D01*
X213001Y139491D02*
X216301D01*
X219401D02*
X224601D01*
X227801D02*
X232001D01*
X213001Y139591D02*
X216301D01*
X219301D02*
X224501D01*
X227801D02*
X232001D01*
X213001Y139691D02*
X216301D01*
X219201D02*
X224401D01*
X227801D02*
X232001D01*
X213001Y139791D02*
X216301D01*
X219101D02*
X224201D01*
X227801D02*
X232001D01*
X213001Y139891D02*
X216301D01*
X219001D02*
X224101D01*
X227801D02*
X232001D01*
X213001Y139991D02*
X216301D01*
X218801D02*
X224001D01*
X227801D02*
X232001D01*
X213001Y140091D02*
X216301D01*
X218701D02*
X223901D01*
X227801D02*
X232001D01*
X213001Y140191D02*
X216301D01*
X218601D02*
X223801D01*
X227801D02*
X232001D01*
X213001Y140291D02*
X216301D01*
X218501D02*
X223701D01*
X227801D02*
X232001D01*
X213001Y140391D02*
X216301D01*
X218401D02*
X223601D01*
X227801D02*
X232001D01*
X213001Y140491D02*
X216301D01*
X218301D02*
X223401D01*
X227801D02*
X232001D01*
X213001Y140591D02*
X216301D01*
X218201D02*
X223301D01*
X227801D02*
X232001D01*
X213001Y140691D02*
X216301D01*
X218101D02*
X223201D01*
X227801D02*
X232001D01*
X213001Y140791D02*
X216301D01*
X218001D02*
X223101D01*
X227801D02*
X232001D01*
X213001Y140891D02*
X216301D01*
X217801D02*
X223001D01*
X227801D02*
X232001D01*
X213001Y140991D02*
X216301D01*
X217701D02*
X222901D01*
X227801D02*
X232001D01*
X213001Y141091D02*
X216301D01*
X217601D02*
X222801D01*
X227801D02*
X232001D01*
X213001Y141191D02*
X216301D01*
X217501D02*
X222701D01*
X227801D02*
X232001D01*
X213001Y141291D02*
X216301D01*
X217401D02*
X222501D01*
X227801D02*
X232001D01*
X213001Y141391D02*
X216301D01*
X217301D02*
X222401D01*
X227801D02*
X232001D01*
X213001Y141491D02*
X216301D01*
X227801D02*
X232001D01*
X213001Y141591D02*
X216301D01*
X227801D02*
X232001D01*
X213001Y141691D02*
X216301D01*
X227801D02*
X232001D01*
X213001Y141791D02*
X216301D01*
X227801D02*
X232001D01*
X213001Y141891D02*
X216301D01*
X227801D02*
X232001D01*
X213001Y141991D02*
X216301D01*
X227801D02*
X232001D01*
X213001Y142091D02*
X216301D01*
X227801D02*
X232001D01*
X213001Y142191D02*
X216301D01*
X227801D02*
X232001D01*
X213001Y142291D02*
X216301D01*
X227801D02*
X232001D01*
X213001Y142391D02*
X216301D01*
X227801D02*
X232001D01*
X213001Y142491D02*
X216301D01*
X227801D02*
X232001D01*
X227801Y142591D02*
X232001D01*
X227801Y142691D02*
X232001D01*
X227801Y142791D02*
X232001D01*
X227801Y142891D02*
X232001D01*
X227801Y142991D02*
X232001D01*
X227801Y143091D02*
X232001D01*
X227801Y143191D02*
X232001D01*
X227801Y143291D02*
X232001D01*
X227801Y143391D02*
X232001D01*
X227801Y143491D02*
X232001D01*
X227801Y143591D02*
X232001D01*
X227801Y143691D02*
X232001D01*
X227801Y143791D02*
X232001D01*
X227801Y143891D02*
X232001D01*
X227801Y143991D02*
X232001D01*
X227801Y144091D02*
X232001D01*
X227801Y144191D02*
X232001D01*
X227801Y144291D02*
X232001D01*
X227801Y144391D02*
X232001D01*
X227801Y144491D02*
X232001D01*
X227801Y144591D02*
X232001D01*
X227801Y144691D02*
X232001D01*
X227801Y144791D02*
X232001D01*
X227801Y144891D02*
X232001D01*
X227801Y144991D02*
X232001D01*
X227801Y145091D02*
X232001D01*
X227801Y145191D02*
X232001D01*
X227801Y145291D02*
X232001D01*
X227801Y145391D02*
X232001D01*
X227801Y145491D02*
X232001D01*
X227801Y145591D02*
X232001D01*
X227801Y145691D02*
X232001D01*
X227801Y145791D02*
X232001D01*
X227801Y145891D02*
X232001D01*
X227801Y145991D02*
X232001D01*
X227901Y146091D02*
X232001D01*
X227901Y146191D02*
X232001D01*
X227901Y146291D02*
X232001D01*
X228001Y146391D02*
X232001D01*
X228001Y146491D02*
X232001D01*
X228101Y146591D02*
X232001D01*
X228301Y146791D02*
X232001D01*
X228301Y146891D02*
X232001D01*
X228401Y146991D02*
X232001D01*
X228501Y147091D02*
X232001D01*
X228601Y147191D02*
X232001D01*
X228701Y147291D02*
X232001D01*
X228901Y147391D02*
X232001D01*
X229101Y147491D02*
X232001D01*
X229301Y147591D02*
X232001D01*
X229801Y147691D02*
X232001D01*
X155801Y130691D02*
X159101D01*
X165801D02*
X169501D01*
X155801Y138691D02*
X159101D01*
X180401Y130691D02*
X183801D01*
X195201D02*
X198601D01*
X180901Y138691D02*
X184901D01*
X213001Y130691D02*
X216301D01*
X220301D02*
X225401D01*
X227801D02*
X232001D01*
X213001Y138691D02*
X216301D01*
X220301D02*
X225601D01*
X227801D02*
X232001D01*
X228101Y146691D02*
X232001D01*
X166301Y129791D02*
X173501D01*
X166301Y129891D02*
X173601D01*
X166201Y129991D02*
X173601D01*
X199201Y132391D02*
X216301D01*
X199201Y132491D02*
X216301D01*
X199201Y132591D02*
X216301D01*
X199201Y132691D02*
X216301D01*
X199201Y132791D02*
X216301D01*
X199201Y132891D02*
X216301D01*
X199201Y132991D02*
X216301D01*
X199201Y133091D02*
X216301D01*
X199201Y133191D02*
X216301D01*
X199201Y133291D02*
X216301D01*
X199201Y133391D02*
X216301D01*
X199201Y133491D02*
X216301D01*
X199201Y133591D02*
X216301D01*
X199201Y133691D02*
X216301D01*
X199201Y133791D02*
X216301D01*
X199201Y133891D02*
X216301D01*
X199201Y133991D02*
X216301D01*
X199201Y134091D02*
X216301D01*
X199201Y134191D02*
X216301D01*
X199201Y134291D02*
X216301D01*
X199201Y134391D02*
X216301D01*
X199201Y134491D02*
X216301D01*
X199201Y134591D02*
X216301D01*
X199201Y134691D02*
X216301D01*
X199201Y134791D02*
X216301D01*
X199201Y134891D02*
X216301D01*
X199201Y134991D02*
X216301D01*
X199201Y135091D02*
X216301D01*
X199201Y135191D02*
X216301D01*
X199201Y135291D02*
X216301D01*
X199201Y135391D02*
X216301D01*
X199201Y135491D02*
X216301D01*
X199201Y135591D02*
X216301D01*
D42*
X21890Y53189D02*
Y76811D01*
X8110Y53189D02*
Y76811D01*
M02*
