G04 Layer_Color=8388736*
%FSLAX25Y25*%
%MOIN*%
G70*
G01*
G75*
%ADD38C,0.02362*%
%ADD47R,0.04000X0.05300*%
%ADD48R,0.05300X0.04000*%
%ADD49R,0.02375X0.04343*%
%ADD50R,0.06300X0.07100*%
%ADD51R,0.07100X0.06300*%
G04:AMPARAMS|DCode=52|XSize=74.93mil|YSize=65.09mil|CornerRadius=8.28mil|HoleSize=0mil|Usage=FLASHONLY|Rotation=0.000|XOffset=0mil|YOffset=0mil|HoleType=Round|Shape=RoundedRectangle|*
%AMROUNDEDRECTD52*
21,1,0.07493,0.04852,0,0,0.0*
21,1,0.05837,0.06509,0,0,0.0*
1,1,0.01656,0.02918,-0.02426*
1,1,0.01656,-0.02918,-0.02426*
1,1,0.01656,-0.02918,0.02426*
1,1,0.01656,0.02918,0.02426*
%
%ADD52ROUNDEDRECTD52*%
%ADD53R,0.07099X0.10209*%
G04:AMPARAMS|DCode=54|XSize=122.96mil|YSize=45.4mil|CornerRadius=4.94mil|HoleSize=0mil|Usage=FLASHONLY|Rotation=0.000|XOffset=0mil|YOffset=0mil|HoleType=Round|Shape=RoundedRectangle|*
%AMROUNDEDRECTD54*
21,1,0.12296,0.03553,0,0,0.0*
21,1,0.11309,0.04540,0,0,0.0*
1,1,0.00987,0.05655,-0.01777*
1,1,0.00987,-0.05655,-0.01777*
1,1,0.00987,-0.05655,0.01777*
1,1,0.00987,0.05655,0.01777*
%
%ADD54ROUNDEDRECTD54*%
G04:AMPARAMS|DCode=55|XSize=122.96mil|YSize=45.4mil|CornerRadius=13.35mil|HoleSize=0mil|Usage=FLASHONLY|Rotation=0.000|XOffset=0mil|YOffset=0mil|HoleType=Round|Shape=RoundedRectangle|*
%AMROUNDEDRECTD55*
21,1,0.12296,0.01870,0,0,0.0*
21,1,0.09626,0.04540,0,0,0.0*
1,1,0.02670,0.04813,-0.00935*
1,1,0.02670,-0.04813,-0.00935*
1,1,0.02670,-0.04813,0.00935*
1,1,0.02670,0.04813,0.00935*
%
%ADD55ROUNDEDRECTD55*%
%ADD56O,0.01784X0.04934*%
%ADD57O,0.04934X0.01784*%
G04:AMPARAMS|DCode=58|XSize=67.06mil|YSize=185.17mil|CornerRadius=18.76mil|HoleSize=0mil|Usage=FLASHONLY|Rotation=0.000|XOffset=0mil|YOffset=0mil|HoleType=Round|Shape=RoundedRectangle|*
%AMROUNDEDRECTD58*
21,1,0.06706,0.14764,0,0,0.0*
21,1,0.02953,0.18517,0,0,0.0*
1,1,0.03753,0.01476,-0.07382*
1,1,0.03753,-0.01476,-0.07382*
1,1,0.03753,-0.01476,0.07382*
1,1,0.03753,0.01476,0.07382*
%
%ADD58ROUNDEDRECTD58*%
%ADD59C,0.14383*%
%ADD60C,0.07887*%
%ADD61C,0.05524*%
G04:AMPARAMS|DCode=62|XSize=102.49mil|YSize=67.06mil|CornerRadius=9.91mil|HoleSize=0mil|Usage=FLASHONLY|Rotation=0.000|XOffset=0mil|YOffset=0mil|HoleType=Round|Shape=RoundedRectangle|*
%AMROUNDEDRECTD62*
21,1,0.10249,0.04724,0,0,0.0*
21,1,0.08268,0.06706,0,0,0.0*
1,1,0.01981,0.04134,-0.02362*
1,1,0.01981,-0.04134,-0.02362*
1,1,0.01981,-0.04134,0.02362*
1,1,0.01981,0.04134,0.02362*
%
%ADD62ROUNDEDRECTD62*%
G04:AMPARAMS|DCode=63|XSize=120.2mil|YSize=120.2mil|CornerRadius=20.83mil|HoleSize=0mil|Usage=FLASHONLY|Rotation=180.000|XOffset=0mil|YOffset=0mil|HoleType=Round|Shape=RoundedRectangle|*
%AMROUNDEDRECTD63*
21,1,0.12020,0.07854,0,0,180.0*
21,1,0.07854,0.12020,0,0,180.0*
1,1,0.04166,-0.03927,0.03927*
1,1,0.04166,0.03927,0.03927*
1,1,0.04166,0.03927,-0.03927*
1,1,0.04166,-0.03927,-0.03927*
%
%ADD63ROUNDEDRECTD63*%
%ADD64C,0.06706*%
%ADD65R,0.06800X0.06800*%
%ADD66C,0.06800*%
%ADD67C,0.26391*%
D38*
X261811Y179921D02*
D03*
Y175197D02*
D03*
Y170472D02*
D03*
Y165748D02*
D03*
Y151575D02*
D03*
Y156299D02*
D03*
Y161024D02*
D03*
Y137402D02*
D03*
Y142126D02*
D03*
Y146850D02*
D03*
Y123228D02*
D03*
Y127953D02*
D03*
Y132677D02*
D03*
Y94882D02*
D03*
Y99606D02*
D03*
Y104331D02*
D03*
Y80709D02*
D03*
Y85433D02*
D03*
Y90158D02*
D03*
Y66535D02*
D03*
Y71260D02*
D03*
Y75984D02*
D03*
Y52362D02*
D03*
Y57087D02*
D03*
Y61811D02*
D03*
Y38189D02*
D03*
Y42913D02*
D03*
Y47638D02*
D03*
Y24016D02*
D03*
Y28740D02*
D03*
Y33465D02*
D03*
Y9843D02*
D03*
Y14567D02*
D03*
Y19291D02*
D03*
Y5118D02*
D03*
D47*
X30000Y93500D02*
D03*
Y86500D02*
D03*
X10000Y118500D02*
D03*
Y111500D02*
D03*
X7874Y147988D02*
D03*
Y140988D02*
D03*
X88583Y102406D02*
D03*
Y109406D02*
D03*
X95043Y97106D02*
D03*
Y104106D02*
D03*
X66929Y150209D02*
D03*
Y143209D02*
D03*
X112323Y154091D02*
D03*
Y147091D02*
D03*
X106323Y154091D02*
D03*
Y147091D02*
D03*
X126043Y148606D02*
D03*
Y155606D02*
D03*
Y140606D02*
D03*
Y133606D02*
D03*
Y118106D02*
D03*
Y111106D02*
D03*
X133543Y103606D02*
D03*
Y110606D02*
D03*
Y125606D02*
D03*
Y118606D02*
D03*
X123543Y96106D02*
D03*
Y103106D02*
D03*
X158543Y113106D02*
D03*
Y106106D02*
D03*
X183543Y116106D02*
D03*
Y123106D02*
D03*
X208543Y113106D02*
D03*
Y106106D02*
D03*
X233543D02*
D03*
Y113106D02*
D03*
D48*
X31500Y102500D02*
D03*
X38500D02*
D03*
Y110000D02*
D03*
X31500D02*
D03*
X38500Y122500D02*
D03*
X31500D02*
D03*
Y130000D02*
D03*
X38500D02*
D03*
X77799Y132579D02*
D03*
X84799D02*
D03*
X72543Y116606D02*
D03*
X79543D02*
D03*
X78402Y109153D02*
D03*
X71402D02*
D03*
X149543Y119606D02*
D03*
X142543D02*
D03*
Y127106D02*
D03*
X149543D02*
D03*
X167543Y114606D02*
D03*
X174543D02*
D03*
X192543D02*
D03*
X199543D02*
D03*
X224543D02*
D03*
X217543D02*
D03*
X142543Y112106D02*
D03*
X149543D02*
D03*
D49*
X23917Y150571D02*
D03*
X19980D02*
D03*
X16043D02*
D03*
X23917Y138839D02*
D03*
X19980D02*
D03*
X16043D02*
D03*
D50*
X43602Y150000D02*
D03*
Y140000D02*
D03*
X33602Y150000D02*
D03*
Y140000D02*
D03*
D51*
X76043Y149606D02*
D03*
X86043D02*
D03*
X76043Y140106D02*
D03*
X86043D02*
D03*
X82165Y124409D02*
D03*
X72165D02*
D03*
X113543Y103106D02*
D03*
X103543D02*
D03*
Y78106D02*
D03*
X113543D02*
D03*
D52*
X103622Y94346D02*
D03*
X113465D02*
D03*
Y86866D02*
D03*
X103622D02*
D03*
D53*
X57185Y124784D02*
D03*
Y87815D02*
D03*
D54*
X87933Y157106D02*
D03*
X64153D02*
D03*
X87933Y162106D02*
D03*
X64153D02*
D03*
X87933Y167106D02*
D03*
X64153D02*
D03*
X87933Y172106D02*
D03*
X64153D02*
D03*
X87933Y177106D02*
D03*
D55*
X64153D02*
D03*
D56*
X112933Y117461D02*
D03*
X110965D02*
D03*
X108996D02*
D03*
X107028D02*
D03*
X105059D02*
D03*
X103091D02*
D03*
X101122D02*
D03*
X99154D02*
D03*
Y136752D02*
D03*
X101122D02*
D03*
X103091D02*
D03*
X105059D02*
D03*
X107028D02*
D03*
X108996D02*
D03*
X110965D02*
D03*
X112933D02*
D03*
D57*
X96398Y120217D02*
D03*
Y122185D02*
D03*
Y124153D02*
D03*
Y126122D02*
D03*
Y128091D02*
D03*
Y130059D02*
D03*
Y132028D02*
D03*
Y133996D02*
D03*
X115689D02*
D03*
Y132028D02*
D03*
Y130059D02*
D03*
Y128091D02*
D03*
Y126122D02*
D03*
Y124153D02*
D03*
Y122185D02*
D03*
Y120217D02*
D03*
D58*
X158543Y144606D02*
D03*
D59*
X212992Y61004D02*
D03*
X95000Y42500D02*
D03*
D60*
X60984Y26752D02*
D03*
Y76752D02*
D03*
D61*
X20000Y115000D02*
D03*
Y104567D02*
D03*
Y125433D02*
D03*
D62*
X19980Y144705D02*
D03*
D63*
X106043Y127106D02*
D03*
D64*
X135043Y139606D02*
D03*
Y149606D02*
D03*
D65*
X246043Y124606D02*
D03*
D66*
Y114606D02*
D03*
Y104606D02*
D03*
D67*
X236221Y161417D02*
D03*
X23622Y23622D02*
D03*
M02*
