G04 Layer_Color=16711935*
%FSLAX25Y25*%
%MOIN*%
G70*
G01*
G75*
%ADD38C,0.02362*%
%ADD50R,0.06300X0.07100*%
%ADD53R,0.07099X0.10209*%
%ADD59C,0.14383*%
%ADD60C,0.07887*%
%ADD61C,0.05524*%
%ADD64C,0.06706*%
%ADD65R,0.06800X0.06800*%
%ADD66C,0.06800*%
%ADD67C,0.26391*%
%ADD68C,0.07099*%
%ADD69C,0.11036*%
D38*
X261811Y179921D02*
D03*
Y175197D02*
D03*
Y170472D02*
D03*
Y165748D02*
D03*
Y151575D02*
D03*
Y156299D02*
D03*
Y161024D02*
D03*
Y137402D02*
D03*
Y142126D02*
D03*
Y146850D02*
D03*
Y123228D02*
D03*
Y127953D02*
D03*
Y132677D02*
D03*
Y94882D02*
D03*
Y99606D02*
D03*
Y104331D02*
D03*
Y80709D02*
D03*
Y85433D02*
D03*
Y90158D02*
D03*
Y66535D02*
D03*
Y71260D02*
D03*
Y75984D02*
D03*
Y52362D02*
D03*
Y57087D02*
D03*
Y61811D02*
D03*
Y38189D02*
D03*
Y42913D02*
D03*
Y47638D02*
D03*
Y24016D02*
D03*
Y28740D02*
D03*
Y33465D02*
D03*
Y9843D02*
D03*
Y14567D02*
D03*
Y19291D02*
D03*
Y5118D02*
D03*
D50*
X30000Y60000D02*
D03*
Y70000D02*
D03*
D53*
X15000Y83484D02*
D03*
Y46516D02*
D03*
D59*
X212992Y61004D02*
D03*
X95000Y42500D02*
D03*
D60*
X60984Y26752D02*
D03*
Y76752D02*
D03*
D61*
X20000Y115000D02*
D03*
Y104567D02*
D03*
Y125433D02*
D03*
D64*
X135043Y139606D02*
D03*
Y149606D02*
D03*
D65*
X246043Y124606D02*
D03*
D66*
Y114606D02*
D03*
Y104606D02*
D03*
D67*
X236221Y161417D02*
D03*
X23622Y23622D02*
D03*
D68*
X19980Y144705D02*
D03*
D69*
X106043Y127106D02*
D03*
M02*
