M48
;Layer_Color=9474304
;FILE_FORMAT=2:5
INCH,TZ
;TYPE=PLATED
T1F00S00C0.01181
T2F00S00C0.01496
T3F00S00C0.03150
T4F00S00C0.03500
T5F00S00C0.03543
T6F00S00C0.04016
T7F00S00C0.07874
%
T01
X39370Y19685
X49213Y39370
X29528
X68898
X59055Y19685
X226378Y78740
X246063
Y98425
X236221
X237402Y101969
X238189Y105905
X241142Y108268
X250984
X228740Y105905
X229134Y101969
X233465Y100787
X226378Y98425
X216535
X221457Y108268
Y127953
X231299
X236221Y137795
X246063
X226378
X216535
X206693
X196850
X187008
X177165
X179921Y127165
X178740Y123228
X188189
X187795Y127165
X191929Y127953
X183465Y128740
X172244Y127953
X162402
X155118Y127165
X149606Y131890
X131496Y130709
X118043Y139606
X116344Y145578
X111909Y144882
X93701Y141437
X88878Y129134
X87697Y125197
Y121358
X91929Y121063
X90939Y115557
X95079Y115847
X104043Y108606
X119043Y111374
X127953Y98425
Y94095
X125591Y90945
X127953Y78740
X147638
X167323
X187008
X206693
Y98425
X205118Y101181
X203937Y104331
X201772Y108268
X191929
X182087
X172244
X163779Y106299
X162992Y101575
X159449Y100787
X157480Y98425
X154331Y101575
X153543Y105905
X147638Y98425
X137795
X167323
X177165
X187008
X196850
X209842Y100787
X213779Y102362
X213386Y106299
X211614Y127953
X201772
X206693Y157480
X187008
X167323
X147638
X82677Y134646
X69882Y131595
X70472Y138681
X62697Y132677
X59350Y142520
X62008Y105610
X67618Y109153
X88583Y78740
X49213
X30000Y78327
X38878Y93504
X44094Y105610
X47264Y110138
X42717Y117913
X51181Y126772
X51479Y132684
X54432Y139278
X51479Y142625
X40059Y132972
X39370Y59055
X19685
T02
X287008Y43701
Y51575
X306693Y51575
Y43701
Y59449
Y67323
Y75197
Y83071
Y90945
Y98819
Y106693
Y114567
X287008Y106693
Y98819
Y90945
Y83071
Y75197
Y67323
Y59449
T03
X135043Y139606
Y149606
X20000Y125433
Y115000
Y104567
T04
X246043Y104606
Y114606
Y124606
T05
X19980Y144705
T06
X60984Y26752
Y76752
T07
X106043Y127106
M30
