G04 Layer_Color=255*
%FSLAX25Y25*%
%MOIN*%
G70*
G01*
G75*
%ADD10R,0.03200X0.04500*%
%ADD11R,0.04500X0.03200*%
%ADD12R,0.01575X0.03543*%
%ADD13R,0.05500X0.06300*%
%ADD14R,0.06300X0.05500*%
G04:AMPARAMS|DCode=15|XSize=66.93mil|YSize=57.09mil|CornerRadius=4.28mil|HoleSize=0mil|Usage=FLASHONLY|Rotation=0.000|XOffset=0mil|YOffset=0mil|HoleType=Round|Shape=RoundedRectangle|*
%AMROUNDEDRECTD15*
21,1,0.06693,0.04852,0,0,0.0*
21,1,0.05837,0.05709,0,0,0.0*
1,1,0.00856,0.02918,-0.02426*
1,1,0.00856,-0.02918,-0.02426*
1,1,0.00856,-0.02918,0.02426*
1,1,0.00856,0.02918,0.02426*
%
%ADD15ROUNDEDRECTD15*%
%ADD16R,0.06299X0.09409*%
G04:AMPARAMS|DCode=17|XSize=114.96mil|YSize=37.4mil|CornerRadius=0.94mil|HoleSize=0mil|Usage=FLASHONLY|Rotation=0.000|XOffset=0mil|YOffset=0mil|HoleType=Round|Shape=RoundedRectangle|*
%AMROUNDEDRECTD17*
21,1,0.11496,0.03553,0,0,0.0*
21,1,0.11309,0.03740,0,0,0.0*
1,1,0.00187,0.05655,-0.01777*
1,1,0.00187,-0.05655,-0.01777*
1,1,0.00187,-0.05655,0.01777*
1,1,0.00187,0.05655,0.01777*
%
%ADD17ROUNDEDRECTD17*%
G04:AMPARAMS|DCode=18|XSize=114.96mil|YSize=37.4mil|CornerRadius=9.35mil|HoleSize=0mil|Usage=FLASHONLY|Rotation=0.000|XOffset=0mil|YOffset=0mil|HoleType=Round|Shape=RoundedRectangle|*
%AMROUNDEDRECTD18*
21,1,0.11496,0.01870,0,0,0.0*
21,1,0.09626,0.03740,0,0,0.0*
1,1,0.01870,0.04813,-0.00935*
1,1,0.01870,-0.04813,-0.00935*
1,1,0.01870,-0.04813,0.00935*
1,1,0.01870,0.04813,0.00935*
%
%ADD18ROUNDEDRECTD18*%
%ADD19O,0.00984X0.04134*%
%ADD20O,0.04134X0.00984*%
G04:AMPARAMS|DCode=21|XSize=59.06mil|YSize=177.16mil|CornerRadius=14.76mil|HoleSize=0mil|Usage=FLASHONLY|Rotation=0.000|XOffset=0mil|YOffset=0mil|HoleType=Round|Shape=RoundedRectangle|*
%AMROUNDEDRECTD21*
21,1,0.05906,0.14764,0,0,0.0*
21,1,0.02953,0.17716,0,0,0.0*
1,1,0.02953,0.01476,-0.07382*
1,1,0.02953,-0.01476,-0.07382*
1,1,0.02953,-0.01476,0.07382*
1,1,0.02953,0.01476,0.07382*
%
%ADD21ROUNDEDRECTD21*%
%ADD22C,0.03937*%
%ADD29C,0.13583*%
%ADD30C,0.07087*%
%ADD31C,0.04724*%
G04:AMPARAMS|DCode=32|XSize=94.49mil|YSize=59.06mil|CornerRadius=5.91mil|HoleSize=0mil|Usage=FLASHONLY|Rotation=0.000|XOffset=0mil|YOffset=0mil|HoleType=Round|Shape=RoundedRectangle|*
%AMROUNDEDRECTD32*
21,1,0.09449,0.04724,0,0,0.0*
21,1,0.08268,0.05906,0,0,0.0*
1,1,0.01181,0.04134,-0.02362*
1,1,0.01181,-0.04134,-0.02362*
1,1,0.01181,-0.04134,0.02362*
1,1,0.01181,0.04134,0.02362*
%
%ADD32ROUNDEDRECTD32*%
G04:AMPARAMS|DCode=33|XSize=112.21mil|YSize=112.21mil|CornerRadius=16.83mil|HoleSize=0mil|Usage=FLASHONLY|Rotation=180.000|XOffset=0mil|YOffset=0mil|HoleType=Round|Shape=RoundedRectangle|*
%AMROUNDEDRECTD33*
21,1,0.11221,0.07854,0,0,180.0*
21,1,0.07854,0.11221,0,0,180.0*
1,1,0.03366,-0.03927,0.03927*
1,1,0.03366,0.03927,0.03927*
1,1,0.03366,0.03927,-0.03927*
1,1,0.03366,-0.03927,-0.03927*
%
%ADD33ROUNDEDRECTD33*%
%ADD34C,0.05906*%
%ADD35R,0.06000X0.06000*%
%ADD36C,0.06000*%
%ADD37C,0.25590*%
%ADD38C,0.02362*%
D10*
X30000Y93500D02*
D03*
Y86500D02*
D03*
X10000Y118500D02*
D03*
Y111500D02*
D03*
X7874Y147988D02*
D03*
Y140988D02*
D03*
X88583Y102406D02*
D03*
Y109406D02*
D03*
X95043Y97106D02*
D03*
Y104106D02*
D03*
X66929Y150209D02*
D03*
Y143209D02*
D03*
X112323Y154091D02*
D03*
Y147091D02*
D03*
X106323Y154091D02*
D03*
Y147091D02*
D03*
X126043Y148606D02*
D03*
Y155606D02*
D03*
Y140606D02*
D03*
Y133606D02*
D03*
Y118106D02*
D03*
Y111106D02*
D03*
X133543Y103606D02*
D03*
Y110606D02*
D03*
Y125606D02*
D03*
Y118606D02*
D03*
X123543Y96106D02*
D03*
Y103106D02*
D03*
X158543Y113106D02*
D03*
Y106106D02*
D03*
X183543Y116106D02*
D03*
Y123106D02*
D03*
X208543Y113106D02*
D03*
Y106106D02*
D03*
X233543D02*
D03*
Y113106D02*
D03*
D11*
X31500Y102500D02*
D03*
X38500D02*
D03*
Y110000D02*
D03*
X31500D02*
D03*
X38500Y122500D02*
D03*
X31500D02*
D03*
Y130000D02*
D03*
X38500D02*
D03*
X77799Y132579D02*
D03*
X84799D02*
D03*
X72543Y116606D02*
D03*
X79543D02*
D03*
X78402Y109153D02*
D03*
X71402D02*
D03*
X149543Y119606D02*
D03*
X142543D02*
D03*
Y127106D02*
D03*
X149543D02*
D03*
X167543Y114606D02*
D03*
X174543D02*
D03*
X192543D02*
D03*
X199543D02*
D03*
X224543D02*
D03*
X217543D02*
D03*
X142543Y112106D02*
D03*
X149543D02*
D03*
D12*
X23917Y150571D02*
D03*
X19980D02*
D03*
X16043D02*
D03*
X23917Y138839D02*
D03*
X19980D02*
D03*
X16043D02*
D03*
D13*
X43602Y150000D02*
D03*
Y140000D02*
D03*
X33602Y150000D02*
D03*
Y140000D02*
D03*
D14*
X76043Y149606D02*
D03*
X86043D02*
D03*
X76043Y140106D02*
D03*
X86043D02*
D03*
X82165Y124409D02*
D03*
X72165D02*
D03*
X113543Y103106D02*
D03*
X103543D02*
D03*
Y78106D02*
D03*
X113543D02*
D03*
D15*
X103622Y94346D02*
D03*
X113465D02*
D03*
Y86866D02*
D03*
X103622D02*
D03*
D16*
X57185Y124784D02*
D03*
Y87815D02*
D03*
D17*
X87933Y157106D02*
D03*
X64153D02*
D03*
X87933Y162106D02*
D03*
X64153D02*
D03*
X87933Y167106D02*
D03*
X64153D02*
D03*
X87933Y172106D02*
D03*
X64153D02*
D03*
X87933Y177106D02*
D03*
D18*
X64153D02*
D03*
D19*
X112933Y117461D02*
D03*
X110965D02*
D03*
X108996D02*
D03*
X107028D02*
D03*
X105059D02*
D03*
X103091D02*
D03*
X101122D02*
D03*
X99154D02*
D03*
Y136752D02*
D03*
X101122D02*
D03*
X103091D02*
D03*
X105059D02*
D03*
X107028D02*
D03*
X108996D02*
D03*
X110965D02*
D03*
X112933D02*
D03*
D20*
X96398Y120217D02*
D03*
Y122185D02*
D03*
Y124153D02*
D03*
Y126122D02*
D03*
Y128091D02*
D03*
Y130059D02*
D03*
Y132028D02*
D03*
Y133996D02*
D03*
X115689D02*
D03*
Y132028D02*
D03*
Y130059D02*
D03*
Y128091D02*
D03*
Y126122D02*
D03*
Y124153D02*
D03*
Y122185D02*
D03*
Y120217D02*
D03*
D21*
X158543Y144606D02*
D03*
D22*
X261417Y114567D02*
D03*
D29*
X212992Y61004D02*
D03*
X95000Y42500D02*
D03*
D30*
X60984Y26752D02*
D03*
Y76752D02*
D03*
D31*
X20000Y115000D02*
D03*
Y104567D02*
D03*
Y125433D02*
D03*
D32*
X19980Y144705D02*
D03*
D33*
X106043Y127106D02*
D03*
D34*
X135043Y139606D02*
D03*
Y149606D02*
D03*
D35*
X246043Y124606D02*
D03*
D36*
Y114606D02*
D03*
Y104606D02*
D03*
D37*
X236221Y161417D02*
D03*
X23622Y23622D02*
D03*
D38*
X261811Y179921D02*
D03*
Y175197D02*
D03*
Y170472D02*
D03*
Y165748D02*
D03*
Y151575D02*
D03*
Y156299D02*
D03*
Y161024D02*
D03*
Y137402D02*
D03*
Y142126D02*
D03*
Y146850D02*
D03*
Y123228D02*
D03*
Y127953D02*
D03*
Y132677D02*
D03*
Y94882D02*
D03*
Y99606D02*
D03*
Y104331D02*
D03*
Y80709D02*
D03*
Y85433D02*
D03*
Y90158D02*
D03*
Y66535D02*
D03*
Y71260D02*
D03*
Y75984D02*
D03*
Y52362D02*
D03*
Y57087D02*
D03*
Y61811D02*
D03*
Y38189D02*
D03*
Y42913D02*
D03*
Y47638D02*
D03*
Y24016D02*
D03*
Y28740D02*
D03*
Y33465D02*
D03*
Y9843D02*
D03*
Y14567D02*
D03*
Y19291D02*
D03*
Y5118D02*
D03*
M02*
