M48
;Layer_Color=9474304
;FILE_FORMAT=2:5
INCH,TZ
;TYPE=NON_PLATED
T8F00S00C0.02362
T9F00S00C0.12598
T10F00S00C0.13583
%
T08
X261811Y5118
Y9843
Y14567
Y19291
Y24016
Y28740
Y33465
Y38189
Y42913
Y47638
Y52362
Y57087
Y61811
Y66535
Y71260
Y75984
Y80709
Y85433
Y90158
Y94882
Y99606
Y104331
Y123228
Y127953
Y132677
Y137402
Y142126
Y146850
Y151575
Y156299
Y161024
Y165748
Y170472
Y175197
Y179921
T09
X23622Y23622
X236221Y161417
T10
X95000Y42500
X212992Y61004
M30
