G04 ================== begin FILE IDENTIFICATION RECORD ==================*
G04 Layout Name:  CC13xxEM_5XD_7793_4L.brd*
G04 Film Name:    Bottom*
G04 File Format:  Gerber RS274X*
G04 File Origin:  Cadence Allegro 16.6-S026*
G04 Origin Date:  Wed Aug 05 15:39:24 2015*
G04 *
G04 Layer:  VIA CLASS/BOTTOM*
G04 Layer:  PIN/BOTTOM*
G04 Layer:  ETCH/BOTTOM*
G04 Layer:  BOARD GEOMETRY/OUTLINE*
G04 *
G04 Offset:    (0.000 0.000)*
G04 Mirror:    No*
G04 Mode:      Positive*
G04 Rotation:  0*
G04 FullContactRelief:  No*
G04 UndefLineWidth:     0.020*
G04 ================== end FILE IDENTIFICATION RECORD ====================*
%FSLAX25Y25*MOMM*%
%IR0*IPPOS*OFA0.00000B0.00000*MIA0B0*SFA1.00000B1.00000*%
%ADD12O,2.05X.65*%
%ADD11C,.099*%
%ADD13O,1.X1.*%
%ADD10C,.5*%
%ADD14C,.8*%
%ADD15C,.2*%
%ADD16C,.02*%
%ADD17C,.15*%
%ADD19C,1.806*%
%ADD20O,2.354X.954*%
%ADD18C,.758*%
G75*
%LPD*%
G75*
G36*
G01X10745400Y12482000D02*
X10745500Y12482100D01*
G02X10752500Y12485000I7042J-7100D01*
G01X14495000D01*
G02X14502000Y12482100I-42J-10000D01*
G01X14502100Y12482000D01*
G02X14505000Y12475000I-7100J-7042D01*
G01Y9467500D01*
G02X14495000Y9457500I-10000J0D01*
G01X10752500D01*
G02X10742500Y9467500I0J10000D01*
G01Y12475000D01*
G02X10745400Y12482000I10000J-42D01*
G37*
G36*
G01X11470500Y13794100D02*
G03X11399800Y13864800I-35345J35355D01*
G01X11298500Y13763500D01*
G03X11283800Y13728100I35308J-35414D01*
G01Y13448800D01*
X11199900Y13364900D01*
G03X11270600Y13294200I35370J-35330D01*
G01X11369200Y13392800D01*
G03X11383800Y13428100I-35393J35308D01*
G01Y13707400D01*
X11470500Y13794100D01*
G37*
G36*
G01X11870600D02*
G03X11799800Y13864800I-35400J35350D01*
G01X11698500Y13763500D01*
G03X11683900Y13728100I35399J-35310D01*
G01Y13448800D01*
X11600000Y13364900D01*
G03X11670700Y13294200I35341J-35359D01*
G01X11769200Y13392800D01*
G03X11783900Y13428100I-35303J35412D01*
G01Y13707400D01*
X11870600Y13794100D01*
G37*
G36*
G01X11670400D02*
G03X11599700Y13864800I-35350J35350D01*
G01X11498400Y13763500D01*
G03X11483700Y13728100I35303J-35412D01*
G01Y13448800D01*
X11399800Y13364900D01*
G03X11470500Y13294200I35365J-35335D01*
G01X11569100Y13392800D01*
G03X11583700Y13428100I-35399J35310D01*
G01Y13707400D01*
X11670400Y13794100D01*
G37*
G36*
G01X12270600D02*
G03X12199900Y13864800I-35349J35351D01*
G01X12098600Y13763500D01*
G03X12083900Y13728100I35304J-35412D01*
G01Y13448800D01*
X12000000Y13364900D01*
G03X12070700Y13294200I35366J-35334D01*
G01X12169300Y13392800D01*
G03X12183900Y13428100I-35398J35310D01*
G01Y13707400D01*
X12270600Y13794100D01*
G37*
G36*
G01X12070500D02*
G03X11999800Y13864800I-35375J35325D01*
G01X11898400Y13763500D01*
G03X11883800Y13728100I35398J-35310D01*
G01Y13448800D01*
X11799800Y13364900D01*
G03X11870600Y13294200I35400J-35350D01*
G01X11969100Y13392800D01*
G03X11983800Y13428100I-35304J35412D01*
G01Y13707400D01*
X12070500Y13794100D01*
G37*
G36*
G01X12670400D02*
G03X12599700Y13864800I-35351J35349D01*
G01X12498400Y13763500D01*
G03X12483700Y13728100I35301J-35411D01*
G01Y13448800D01*
X12399800Y13364900D01*
G03X12470500Y13294200I35364J-35336D01*
G01X12569100Y13392800D01*
G03X12583700Y13428100I-35400J35311D01*
G01Y13707400D01*
X12670400Y13794100D01*
G37*
G36*
G01X12470500D02*
G03X12399800Y13864800I-35350J35350D01*
G01X12298400Y13763500D01*
G03X12283800Y13728100I35426J-35321D01*
G01Y13448800D01*
X12199900Y13364900D01*
G03X12270600Y13294200I35365J-35335D01*
G01X12369200Y13392800D01*
G03X12383800Y13428100I-35399J35310D01*
G01Y13707400D01*
X12470500Y13794100D01*
G37*
G36*
G01X13070500D02*
G03X12999700Y13864800I-35400J35350D01*
G01X12898400Y13763500D01*
G03X12883800Y13728100I35396J-35309D01*
G01Y13448800D01*
X12799800Y13364900D01*
G03X12870600Y13294200I35400J-35350D01*
G01X12969100Y13392800D01*
G03X12983800Y13428100I-35305J35413D01*
G01Y13707400D01*
X13070500Y13794100D01*
G37*
G36*
G01X12870600D02*
G03X12799800Y13864800I-35400J35350D01*
G01X12698500Y13763500D01*
G03X12683900Y13728100I35398J-35310D01*
G01Y13448800D01*
X12600000Y13364900D01*
G03X12670700Y13294200I35340J-35360D01*
G01X12769200Y13392800D01*
G03X12783900Y13428100I-35304J35412D01*
G01Y13707400D01*
X12870600Y13794100D01*
G37*
G36*
G01X13270400D02*
G03X13199600Y13864800I-35400J35350D01*
G01X13098300Y13763500D01*
G03X13083600Y13728100I35274J-35400D01*
G01Y13448800D01*
X12999700Y13364900D01*
G03X13070500Y13294200I35400J-35350D01*
G01X13169000Y13392800D01*
G03X13183600Y13428100I-35373J35299D01*
G01Y13707400D01*
X13270400Y13794100D01*
G37*
%LPC*%
G75*
G36*
G01X11070000Y10444300D02*
X10930000D01*
G02Y10539700I0J47700D01*
G01X11072000D01*
G02X11072200I100J-10000D01*
G01X11072500D01*
G03X11078800Y10541900I39J10008D01*
G01X11090500Y10551400D01*
X11092300Y10554500D01*
X11092600Y10556300D01*
G02X11093500Y10560300I37389J-6311D01*
G03X11081500Y10572700I-9631J2686D01*
G02X11070100Y10571300I-11472J46303D01*
G01X10930000D01*
G02Y10666700I0J47700D01*
G01X11070000D01*
G02X11077900Y10666000I-244J-47682D01*
G01X11078000D01*
G03X11086700Y10668800I1627J9861D01*
G01X11089200Y10671300D01*
G03X11092100Y10678300I-7100J7042D01*
G01Y10678700D01*
G03X11088900Y10686000I-10000J-32D01*
G01X11078700Y10695600D01*
G03X11071900Y10698300I-6835J-7300D01*
G01X10930000D01*
G02Y10793700I0J47700D01*
G01X11070000D01*
G02X11115200Y10730800I0J-47690D01*
G03X11125700Y10717700I9488J-3153D01*
G02X11132700I3500J-37696D01*
G01X11133000D01*
G02X11134000Y10717600I-490J-9953D01*
G03X11144300Y10722300I1711J9886D01*
G03X11145200Y10730700I-8550J5164D01*
G02X11190400Y10793700I45200J15285D01*
G01X11330400D01*
G02X11369700Y10773000I0J-47657D01*
G03X11377900Y10768700I8220J5706D01*
G01X11450800D01*
G03X11452800Y10768900I10J10000D01*
G01X11455700Y10769500D01*
X11456300Y10769700D01*
G02X11459300Y10770200I3123J-9488D01*
G01X11482500D01*
G03X11489800Y10773400I-32J10000D01*
G02Y10721600I27700J-25900D01*
G03X11482500Y10724800I-7332J-6800D01*
G01X11480500D01*
X11476600Y10724000D01*
X11476000Y10723800D01*
G02X11473000Y10723300I-3123J9488D01*
G01X11430000D01*
G03X11421900Y10719200I-26J-10000D01*
G01X11410900Y10704100D01*
X11410200Y10699300D01*
X11411000Y10697000D01*
G02X11389600Y10650200I-35960J-11850D01*
G01X11388000Y10649500D01*
X11386400Y10648000D01*
X11385100Y10646900D01*
X11378300Y10634400D01*
G03X11377200Y10628700I8859J-4666D01*
G01X11377300Y10627500D01*
X11377400Y10627100D01*
G02X11330400Y10571300I-47000J-8106D01*
G01X11190400D01*
G02X11178600Y10572800I67J47691D01*
G01X11176000Y10573500D01*
X11170900Y10572000D01*
X11167000Y10568100D01*
X11165700Y10563100D01*
X11166500Y10560400D01*
G02X11167400Y10556500I-36477J-10472D01*
G01Y10556300D01*
G03X11169100Y10552200I9867J1689D01*
G03X11171000Y10550100I8286J5587D01*
G01X11181100Y10541900D01*
X11181300D01*
X11182700Y10540700D01*
X11186200Y10539600D01*
X11188400D01*
G02X11190400Y10539700I3379J-47537D01*
G01X11330400D01*
G02X11369700Y10519000I0J-47657D01*
G01X11370400Y10518000D01*
X11372100Y10516400D01*
X11373300Y10515800D01*
G03X11377900Y10514700I4562J8909D01*
G01X11497500D01*
G03X11504800Y10517900I-32J10000D01*
G02Y10466100I27700J-25900D01*
G03X11497500Y10469300I-7332J-6800D01*
G01X11377900D01*
G03X11373300Y10468200I-38J-10009D01*
G01X11372100Y10467600D01*
X11370400Y10466000D01*
X11369700Y10465000D01*
G02X11330400Y10444300I-39300J26957D01*
G01X11190400D01*
G02X11142900Y10496300I0J47695D01*
G01X11143100Y10498500D01*
X11141800Y10502300D01*
X11134500Y10510400D01*
X11130600Y10512100D01*
X11128700D01*
X11126700Y10512200D01*
X11122800Y10510700D01*
X11120000Y10507900D01*
G03X11117100Y10500900I7100J-7042D01*
G01Y10499200D01*
X11117200Y10498500D01*
G02X11070000Y10444300I-47200J-6548D01*
G37*
G36*
G01X11330400Y10825300D02*
X11190400D01*
G02Y10920700I0J47700D01*
G01X11330400D01*
G02X11364700Y10906200I0J-47819D01*
G01X11365900Y10904900D01*
X11368800Y10903400D01*
X11370500Y10903200D01*
X11378100Y10902100D01*
X11381200Y10902600D01*
X11382700Y10903400D01*
G02X11392300Y10907000I17987J-33365D01*
G02X11438500Y10869300I8314J-36970D01*
G02X11379900Y10838300I-37882J723D01*
G01X11378500Y10839200D01*
X11375400Y10840000D01*
X11366000Y10839400D01*
X11363000Y10838200D01*
X11361800Y10837100D01*
G02X11330400Y10825300I-31400J35878D01*
G37*
G36*
G01Y10952300D02*
X11190400D01*
G02Y11047700I0J47700D01*
G01X11330400D01*
G02X11363200Y11034600I0J-47613D01*
G03X11365900Y11032800I6827J7316D01*
G03X11369100Y11031900I4266J9029D01*
G01X11377000Y11031100D01*
X11379900Y11031800D01*
X11381400Y11032600D01*
G02Y10967400I19200J-32600D01*
G01X11379900Y10968200D01*
X11377000Y10968900D01*
X11369100Y10968100D01*
G03X11365900Y10967200I1066J-9929D01*
G03X11363200Y10965400I4127J-9116D01*
G02X11330400Y10952300I-32800J34513D01*
G37*
G36*
G01X14118000Y10063300D02*
X13978000D01*
G02X13940600Y10140600I0J47698D01*
G01X13941700Y10142000D01*
X13942800Y10145400D01*
X13941900Y10160600D01*
G03X13939000Y10167100I-9979J-555D01*
G01X13867700Y10238400D01*
G02X13864800Y10245400I7100J7042D01*
G01Y10287600D01*
G03X13861600Y10294900I-10000J-32D01*
G02X13902900Y10357100I25989J27555D01*
G01X13903000Y10357000D01*
G03X13911800Y10357400I3991J9201D01*
G01X13925800Y10365100D01*
G03X13930900Y10372200I-4749J8793D01*
G01Y10372300D01*
G02X13978000Y10412700I47100J-7256D01*
G01X14118000D01*
G02Y10317300I0J-47700D01*
G01X13978000D01*
G02X13953500Y10324100I42J47688D01*
G01X13951500Y10325300D01*
X13946900Y10325600D01*
X13927700Y10318000D01*
X13924600Y10314500D01*
X13924000Y10312300D01*
G02X13913400Y10294900I-36459J10282D01*
G03X13910200Y10287500I6805J-7335D01*
G01Y10264200D01*
G03X13913100Y10257200I10000J42D01*
G01X13917500Y10252800D01*
G03X13931700I7100J7042D01*
G01X13933100Y10254200D01*
X13933900Y10256100D01*
G02X13978000Y10285700I44100J-18052D01*
G01X14118000D01*
G02Y10190300I0J-47700D01*
G01X14077600D01*
G03X14068300Y10184100I-44J-10009D01*
G01X14067200Y10181300D01*
X14068300Y10175500D01*
X14069200Y10174600D01*
X14070700Y10171000D01*
Y10168700D01*
G03X14080700Y10158700I10000J0D01*
G01X14118000D01*
G02Y10063300I0J-47700D01*
G37*
G36*
G01X11330400Y9809300D02*
X11190400D01*
G02Y9904700I0J47700D01*
G01X11330400D01*
G02X11363200Y9891600I0J-47613D01*
G03X11369000Y9888900I6906J7256D01*
G01X11375200Y9888300D01*
G03X11381300Y9889600I1072J9929D01*
G02Y9824400I19300J-32600D01*
G03X11375200Y9825700I-5028J-8629D01*
G01X11369000Y9825100D01*
G03X11363200Y9822400I1106J-9956D01*
G02X11330400Y9809300I-32800J34513D01*
G37*
G36*
G01X14118000D02*
X13978000D01*
G02X13945200Y9822400I0J47613D01*
G03X13939400Y9825100I-6906J-7256D01*
G01X13933200Y9825700D01*
G03X13927100Y9824400I-1072J-9929D01*
G02Y9889600I-19300J32600D01*
G03X13933200Y9888300I5028J8629D01*
G01X13939400Y9888900D01*
G03X13945200Y9891600I-1106J9956D01*
G02X13978000Y9904700I32800J-34513D01*
G01X14118000D01*
G02Y9809300I0J-47700D01*
G37*
G36*
G01Y9936300D02*
X13978000D01*
G02X13945200Y9949400I0J47613D01*
G03X13939400Y9952100I-6906J-7256D01*
G01X13933200Y9952700D01*
G03X13927100Y9951400I-1072J-9929D01*
G02Y10016600I-19300J32600D01*
G03X13933200Y10015300I5028J8629D01*
G01X13939400Y10015900D01*
G03X13945200Y10018600I-1106J9956D01*
G02X13978000Y10031700I32800J-34513D01*
G01X14118000D01*
G02Y9936300I0J-47700D01*
G37*
G36*
G01Y10444300D02*
X13977900D01*
G02X13963300Y10446600I35J47710D01*
G01X13961800Y10447100D01*
X13828800D01*
G02X13821800Y10450000I42J10000D01*
G01X13800000Y10471800D01*
G02X13797100Y10478800I7100J7042D01*
G01Y10631200D01*
G02X13800000Y10638200I10000J-42D01*
G01X13821800Y10660000D01*
G02X13828800Y10662900I7042J-7100D01*
G01X13959300D01*
X13961000Y10663600D01*
G02X13977800Y10666700I16919J-44615D01*
G01X14118000D01*
G02X14162100Y10637200I0J-47713D01*
G01X14162800Y10635400D01*
X14162900Y10635300D01*
Y10635200D01*
X14163400Y10633700D01*
G02Y10604300I-45400J-14700D01*
G01X14162900Y10602800D01*
Y10508200D01*
X14163400Y10506700D01*
G02Y10477300I-45400J-14700D01*
G01X14162900Y10475800D01*
Y10474700D01*
X14162200Y10473900D01*
X14161400Y10472300D01*
G02X14118000Y10444300I-43400J19635D01*
G37*
G36*
G01X10972500Y12235200D02*
X10982500D01*
G02X10977500Y12034800I-5066J-100136D01*
G02X10972500Y12235200I66J100264D01*
G37*
G36*
G01X14141200Y10822300D02*
G03X14130100Y10826900I-8607J-5076D01*
G02X14118000Y10825300I-12249J46080D01*
G01X13978000D01*
G02Y10920700I0J47700D01*
G01X14015300D01*
G03X14025300Y10930700I0J10000D01*
G01Y10942300D01*
G03X14015300Y10952300I-10000J0D01*
G01X13978000D01*
G02Y11047700I0J47700D01*
G01X14118000D01*
G02X14164900Y10991300I0J-47700D01*
G01X14164500Y10989300D01*
X14165500Y10985200D01*
X14177200Y10969900D01*
X14180900Y10967900D01*
X14183000Y10967800D01*
G02X14184100Y10967700I-2882J-37804D01*
G03X14194400Y10981500I1105J9919D01*
G02X14238400Y11047700I44000J18478D01*
G01X14378400D01*
G02Y10952300I0J-47700D01*
G01X14238400D01*
G02X14228100Y10953400I-113J47712D01*
G03X14216300Y10940800I-2215J-9751D01*
G02X14217200Y10937000I-36344J-10614D01*
G01Y10936900D01*
X14217600Y10935200D01*
X14219300Y10932300D01*
X14232200Y10921800D01*
X14235600Y10920700D01*
X14378400D01*
G02Y10825300I0J-47700D01*
G01X14341100D01*
G03X14331100Y10815300I0J-10000D01*
G01Y10803700D01*
G03X14341100Y10793700I10000J0D01*
G01X14378400D01*
G02Y10698300I0J-47700D01*
G01X14238400D01*
G02X14190900Y10750800I0J47738D01*
G03X14188900Y10757900I-9945J1030D01*
G01X14182900Y10765600D01*
G03X14176000Y10769500I-7962J-6033D01*
G02X14173400Y10769800I3364J40570D01*
G03X14165600Y10767900I-1729J-9861D01*
G01X14165000Y10767400D01*
X14163200Y10761700D01*
X14164000Y10758700D01*
G02X14118000Y10698300I-46000J-12683D01*
G01X13978000D01*
G02Y10793700I0J47700D01*
G01X14118000D01*
G02X14121000Y10793600I-88J-47697D01*
G01X14123000Y10793500D01*
X14126700Y10794700D01*
X14136000Y10802900D01*
G03X14139300Y10810300I-6719J7432D01*
G02X14141200Y10822300I40699J-294D01*
G37*
G36*
G01X11941900Y11067900D02*
X11942700Y11061900D01*
G03X11945300Y11056200I9942J1092D01*
G02X11884600Y11048700I-27602J-25991D01*
G03X11885800Y11054800I-8731J4886D01*
G01X11885000Y11060800D01*
G03X11882400Y11066500I-9942J-1092D01*
G02X11913700Y11130200I27603J25976D01*
G02X11947800Y11090300I-3718J-37699D01*
G02X11943100Y11074000I-37855J2088D01*
G03X11941900Y11067900I8731J-4886D01*
G37*
G36*
G01X11482500Y9712700D02*
X11492500D01*
G02X11487500Y9512300I-5066J-100136D01*
G02X11482500Y9712700I66J100264D01*
G37*
G36*
G01X13822500Y9705200D02*
X13832500D01*
G02X13827500Y9504800I-5066J-100136D01*
G02X13822500Y9705200I66J100264D01*
G37*
G36*
G01X11190400Y10158700D02*
X11330400D01*
G02X11363200Y10145600I0J-47613D01*
G03X11369200Y10142900I6864J7238D01*
G01X11375400Y10142300D01*
G03X11381200Y10143500I966J9946D01*
G01X11381400Y10143600D01*
X11381500Y10143700D01*
G02Y10078300I19100J-32700D01*
G01X11381400Y10078400D01*
X11381200Y10078500D01*
G03X11375400Y10079700I-4834J-8746D01*
G01X11369200Y10079100D01*
G03X11363200Y10076400I864J-9938D01*
G02X11330400Y10063300I-32800J34513D01*
G01X11190200D01*
G02X11187900I-1150J47709D01*
G03X11180800Y10060600I-261J-9998D01*
G01X11177800Y10057800D01*
G03X11174600Y10050500I6802J-7333D01*
G01Y10050400D01*
G02Y10048500I-39598J-950D01*
G01Y10047900D01*
G02X11174500Y10047000I-39422J3925D01*
G01X11174400Y10045100D01*
X11175700Y10041300D01*
X11181700Y10034900D01*
G03X11189300Y10031700I7336J6798D01*
G01X11330400D01*
G02X11363200Y10018600I0J-47613D01*
G03X11365400Y10017000I6940J7230D01*
G03X11369200Y10015900I4625J8864D01*
G01X11375400Y10015300D01*
G03X11381200Y10016500I966J9948D01*
G01X11381400Y10016600D01*
X11381500Y10016700D01*
G02Y9951300I19100J-32700D01*
G01X11381400Y9951400D01*
X11381200Y9951500D01*
G03X11375400Y9952700I-4834J-8748D01*
G01X11369200Y9952100D01*
G03X11365400Y9951000I825J-9964D01*
G03X11363200Y9949400I4740J-8830D01*
G02X11330400Y9936300I-32800J34513D01*
G01X11190400D01*
G02X11144300Y9995800I0J47609D01*
G01Y9995900D01*
X11144600Y9997200D01*
Y9997300D01*
X11145400Y10000000D01*
X11143600Y10005600D01*
X11140700Y10008100D01*
G03X11134400Y10010400I-6383J-7706D01*
G02X11130900Y10010600I507J39600D01*
G01X11119700Y9997400D01*
G03X11117400Y9989800I7631J-6457D01*
G01Y9989700D01*
G02X11070000Y9936300I-47400J-5663D01*
G01X10930000D01*
G02X10883400Y9994300I0J47720D01*
G01X10883800Y9996000D01*
X10883300Y9999600D01*
X10875500Y10014200D01*
X10872800Y10016600D01*
X10871200Y10017200D01*
G02X10872700Y10088400I13776J35326D01*
G01X10874300Y10088900D01*
X10877000Y10091000D01*
X10882200Y10099400D01*
X10883000Y10102700D01*
X10882700Y10104500D01*
G02X10930000Y10158700I47300J6461D01*
G01X11070000D01*
G02X11116600Y10101000I0J-47668D01*
G03X11128000Y10089000I9770J-2134D01*
G02X11129100Y10089200I7636J-38872D01*
G01X11129300D01*
G02X11132400Y10089500I5361J-39235D01*
G03X11138600Y10093300I-1786J9872D01*
G01X11142500Y10098400D01*
X11143500Y10102200D01*
X11143200Y10104200D01*
G02X11190400Y10158700I47200J6811D01*
G37*
G36*
G01Y10412700D02*
X11330400D01*
G02X11363200Y10399600I0J-47613D01*
G03X11368000Y10397100I6848J7290D01*
G03X11369100Y10396900I2333J9707D01*
G01X11375300Y10396300D01*
G03X11381300Y10397600I984J9954D01*
G02X11381400Y10332400I19317J-32570D01*
G01X11381200D01*
X11379900Y10333200D01*
X11376900Y10333800D01*
X11369100Y10333100D01*
G03X11368000Y10332900I1233J-9907D01*
G03X11363200Y10330400I2048J-9790D01*
G02X11330400Y10317300I-32800J34513D01*
G01X11190400D01*
G02X11188100Y10317400I920J47663D01*
G01X11188000D01*
G03X11181200Y10315200I-525J-9986D01*
G01X11170900Y10306900D01*
G03X11167300Y10301000I6210J-7837D01*
G01Y10300900D01*
G02X11166300Y10296700I-37294J6660D01*
G03X11178400Y10284200I9592J-2821D01*
G02X11190400Y10285700I11871J-46216D01*
G01X11330400D01*
G02X11363200Y10272600I0J-47613D01*
G01X11364500Y10271400D01*
X11367400Y10270000D01*
X11375400Y10269300D01*
G03X11381200Y10270600I816J9947D01*
G01X11381300D01*
G02X11381400Y10205400I19317J-32570D01*
G01X11381200D01*
X11379900Y10206200D01*
X11376900Y10206900D01*
X11367400Y10206000D01*
X11364500Y10204600D01*
X11363200Y10203400D01*
G02X11330400Y10190300I-32800J34513D01*
G01X11190400D01*
G02X11146300Y10256300I0J47733D01*
G03X11143300Y10268000I-9249J3863D01*
G03X11135200Y10270000I-6236J-7852D01*
G02X11134300Y10269800I-8657J36832D01*
G01X11132300Y10269600D01*
X11128600Y10267600D01*
X11118800Y10254200D01*
G03X11117000Y10250400I7936J-6085D01*
G01X11116600Y10248400D01*
X11116900Y10246500D01*
G02X11070000Y10190300I-46900J-8531D01*
G01X10930000D01*
G02Y10285700I0J47700D01*
G01X11023000D01*
G03X11032300Y10291900I44J10009D01*
G01X11033400Y10294700D01*
X11032300Y10300600D01*
X11018500Y10314400D01*
G03X11011400Y10317300I-7044J-7103D01*
G01X10930000D01*
G02Y10412700I0J47700D01*
G01X11070000D01*
G02X11117500Y10361200I0J-47655D01*
G01X11117300Y10359100D01*
X11118700Y10355100D01*
X11120100Y10353600D01*
X11122800Y10350600D01*
G03X11130200Y10347300I7425J6704D01*
G01X11132300D01*
X11136100Y10349000D01*
X11140300Y10353600D01*
X11141700Y10355100D01*
X11143100Y10359100D01*
X11142900Y10361200D01*
G02X11190400Y10412700I47500J3845D01*
G37*
G54D19*
X14178200Y11158800D03*
Y9698300D03*
X11130200Y11158800D03*
Y9698300D03*
G54D20*
X11000000Y9857000D03*
Y10873000D03*
Y11000000D03*
X14308400Y9857000D03*
Y9984000D03*
Y10111000D03*
Y10238000D03*
Y10365000D03*
Y10492000D03*
Y10619000D03*
G54D18*
X12037500Y11337200D03*
X12865000Y11017500D03*
X12864300Y11249500D03*
X13652500Y10440000D03*
X12840900Y11378400D03*
X12440200Y10470000D03*
X12527500Y10530300D03*
X11677500Y10687500D03*
X12027500Y10515000D03*
X11725000Y10440000D03*
%LPD*%
G75*
G36*
G01X13812900Y10632900D02*
X13827100Y10647100D01*
G02X13834100Y10650000I7042J-7100D01*
G01X14125900D01*
G02X14132900Y10647100I-42J-10000D01*
G01X14147100Y10632900D01*
G02X14150000Y10625900I-7100J-7042D01*
G01Y10484100D01*
G02X14147100Y10477100I-10000J42D01*
G01X14132900Y10462900D01*
G02X14125900Y10460000I-7042J7100D01*
G01X13834100D01*
G02X13827100Y10462900I42J10000D01*
G01X13812900Y10477100D01*
G02X13810000Y10484100I7100J7042D01*
G01Y10625900D01*
G02X13812900Y10632900I10000J-42D01*
G37*
G54D10*
G01X11000000Y9857000D02*
Y9780800D01*
G01Y9857000D02*
X10850000D01*
G01X11000000Y11000000D02*
Y11085000D01*
G01Y11000000D02*
X10850000D01*
G01X14460000Y9860000D02*
X14457000Y9857000D01*
G01X14310000Y9750000D02*
X14308400Y9751600D01*
G01X14457000Y9857000D02*
X14308400D01*
G01Y9751600D02*
Y9857000D01*
G01Y11000000D02*
Y11087500D01*
G01X14460000Y11000000D02*
X14308400D01*
X10810000Y9720000D03*
X10790000Y10080000D03*
X10800000Y10480000D03*
X10805000Y11252500D03*
X10800000Y10860000D03*
X10805000Y11577500D03*
Y11437500D03*
Y11792500D03*
Y12010000D03*
Y12227500D03*
Y12445000D03*
X11130000Y9520000D03*
X10850000Y9857000D03*
X11000000Y9780800D03*
X10865000Y9580000D03*
X11135000Y10050000D03*
X11130000Y10307500D03*
X11140000Y10175000D03*
X10885000Y10052500D03*
X11130000Y10680000D03*
Y10550000D03*
X11000000Y11085000D03*
X10850000Y11000000D03*
X10860000Y11090000D03*
X11255000Y11567500D03*
X10980000Y11370000D03*
X11215000Y12010000D03*
X10995000Y11720000D03*
X11130000Y12445000D03*
X11670000Y9520000D03*
X11290000Y9590000D03*
X11400600Y9857000D03*
Y10238000D03*
X11540000Y10300000D03*
X11617500Y10205000D03*
X11400600Y10365000D03*
Y9984000D03*
Y10111000D03*
X11517500Y10747500D03*
X11392500Y10800000D03*
X11387500Y10555000D03*
X11527500Y10620000D03*
X11572500Y10412500D03*
X11677500Y10687500D03*
X11532500Y10492000D03*
X11375000Y10685000D03*
X11400600Y11000000D03*
X11685000Y11220000D03*
X11500000Y11037500D03*
X11617500Y10940000D03*
X11525000Y10837500D03*
X11400600Y10870000D03*
X11665000Y11567500D03*
X11270000Y11420000D03*
X11655000Y11932300D03*
X11517300Y12070000D03*
X11470000Y11757500D03*
X11455000Y12445000D03*
X11655000Y12207700D03*
X11340000Y12217500D03*
X11995000Y9520000D03*
X11807500Y9692500D03*
X11965000Y10282500D03*
X11697500Y10300000D03*
X11792500Y10197500D03*
X12107500Y10162500D03*
X12027500Y10515000D03*
X11972500Y10687500D03*
X12090000Y10695000D03*
X11827500Y10420000D03*
X11725000Y10440000D03*
X11917700Y11030200D03*
X11910000Y11092500D03*
X12085000Y10867500D03*
X12027500Y10830200D03*
X11717500Y11037500D03*
X11820000Y11132500D03*
X11897500Y11222500D03*
X11964800Y11187500D03*
X11750000Y10937500D03*
X12037500Y11337200D03*
X11862500Y11392500D03*
X11943600Y11270200D03*
X11890000Y11560000D03*
X12105000Y11732500D03*
X11890000Y11820000D03*
X12077300Y12070000D03*
X11792700D03*
X11775000Y11700000D03*
X11777500Y12445000D03*
X12102500D03*
X12537500Y9520000D03*
X12240000Y9510000D03*
X12465000Y9687500D03*
X12527500Y10530300D03*
X12440200Y10470000D03*
X12250100Y10695000D03*
X12285000Y10580000D03*
X12447500Y10742200D03*
X12314800Y10640200D03*
X12474800Y11213500D03*
Y11035000D03*
Y11125000D03*
X12392300Y11213500D03*
Y11035000D03*
Y11125000D03*
X12314800Y11035000D03*
Y11125000D03*
Y11213500D03*
X12474800Y11295500D03*
X12392300D03*
X12314800D03*
X12525000Y12040000D03*
X12435000Y12025000D03*
X12420000Y11905000D03*
X12424400Y11808500D03*
X12185000Y11700000D03*
Y11760000D03*
X12387500Y11757700D03*
X12215000Y11932300D03*
X12515000Y12182500D03*
X12427500Y12445000D03*
X12215000Y12207700D03*
X12770000Y9510000D03*
X12772500Y10185000D03*
X12864300Y11249500D03*
X12865000Y11017500D03*
X12557300Y11213500D03*
Y11035000D03*
Y11125000D03*
X12840900Y11378400D03*
X12557300Y11295500D03*
X12775200Y11613700D03*
X12782700Y11523600D03*
X12802800Y11682500D03*
X12965000Y11772500D03*
X12852500Y11757300D03*
X12765000Y11762500D03*
X12920000Y12037500D03*
X12782500D03*
X12649700Y12039300D03*
X12590000Y12047500D03*
X12952500Y12185000D03*
X12752500Y12445000D03*
X13077500Y9520000D03*
X13360000Y9510000D03*
X13327500Y9705000D03*
X13115000Y10570000D03*
X13082500Y10820000D03*
X13102500Y11185000D03*
X13212500Y11145000D03*
X13332500Y10910000D03*
X13395000Y11040000D03*
X13009500Y11184800D03*
X13075000Y11512500D03*
X13275000Y11497500D03*
Y11362500D03*
X13402500Y11372500D03*
X13252700Y11630000D03*
X13160000Y11532300D03*
X12990000Y11507700D03*
X13225200Y11287500D03*
X13367500Y12115000D03*
X13397500Y11735000D03*
X13245000Y11770000D03*
X13080000Y11772500D03*
X13053400Y12035700D03*
X13115000Y12047700D03*
X13160000Y11727700D03*
X13110000Y12130000D03*
X13077500Y12445000D03*
X13367500Y12272500D03*
X13105000Y12207500D03*
X13089800Y12272500D03*
X13135000Y12337200D03*
X13397500Y12442500D03*
X13542500Y10360000D03*
X13552500Y10190000D03*
X13545000Y9985000D03*
X13840000Y10520000D03*
Y10620000D03*
X13652500Y10440000D03*
X13687500Y10567500D03*
X13462500Y10562500D03*
X13520000Y10745000D03*
X13802500Y11115000D03*
X13700000Y10910000D03*
X13510000Y11042500D03*
X13617500Y11045000D03*
X13510000Y11185000D03*
X13820000Y11337500D03*
X13727500Y11622500D03*
X13590000Y11484800D03*
X13445000Y11615000D03*
X13657500Y12440000D03*
X13727500Y12187500D03*
X13587500Y12320200D03*
X13445000Y12182500D03*
X14080000Y9550000D03*
X13907800Y9857000D03*
X13887500Y10322500D03*
X13907800Y9984000D03*
X13870000Y10570000D03*
X13900000Y10620000D03*
Y10520000D03*
X14180000Y10810000D03*
Y10930000D03*
X14025000Y11355000D03*
X14007500Y11602500D03*
X14150000Y11482500D03*
X13875000Y12085000D03*
Y11727500D03*
X14157500Y11905000D03*
X14150000Y11760200D03*
Y12044800D03*
X13927500Y12445000D03*
X14190000D03*
X14150000Y12320000D03*
X14012500Y12177500D03*
X14427500Y9737500D03*
X14460000Y9860000D03*
X14310000Y9750000D03*
X14367500Y9542500D03*
X14465000Y10050000D03*
X14460000Y10305000D03*
X14455000Y10560000D03*
X14470000Y10900000D03*
X14460000Y11000000D03*
X14308400Y11087500D03*
X14395000Y11110000D03*
X14282500Y11622500D03*
X14425000Y11357500D03*
Y12047500D03*
Y11767500D03*
X14455000Y12257500D03*
X14457500Y12447500D03*
X14285000Y12182500D03*
G54D11*
X11130200Y9698300D03*
Y11158800D03*
X14178200Y9698300D03*
Y11158800D03*
G54D12*
X11260400Y9857000D03*
X11000000D03*
X11260400Y9984000D03*
Y10111000D03*
Y10238000D03*
Y10365000D03*
X11000000Y9984000D03*
Y10111000D03*
Y10238000D03*
Y10365000D03*
X11260400Y10492000D03*
Y10619000D03*
Y10746000D03*
X11000000Y10492000D03*
Y10619000D03*
Y10746000D03*
X11260400Y10873000D03*
Y11000000D03*
X11000000Y10873000D03*
Y11000000D03*
X14308400Y9857000D03*
X14048000D03*
X14308400Y9984000D03*
Y10111000D03*
Y10238000D03*
Y10365000D03*
X14048000Y9984000D03*
Y10111000D03*
Y10238000D03*
Y10365000D03*
X14308400Y10492000D03*
Y10619000D03*
Y10746000D03*
X14048000Y10492000D03*
Y10619000D03*
Y10746000D03*
X14308400Y10873000D03*
Y11000000D03*
X14048000Y10873000D03*
Y11000000D03*
G54D13*
X10977500Y12135000D03*
X11487500Y9612500D03*
X13827500Y9605000D03*
G54D14*
X11235300Y13329600D03*
Y13829500D03*
X11635000Y13329600D03*
X11435200D03*
X11635000Y13829500D03*
X11435200D03*
X12035100Y13329600D03*
X11835200D03*
X12035100Y13829500D03*
X11835200D03*
X12435200Y13329600D03*
X12235300D03*
X12435200Y13829500D03*
X12235300D03*
X12835200Y13329600D03*
X12635000D03*
X12835200Y13829500D03*
X12635000D03*
X13035100Y13329600D03*
Y13829500D03*
X13235000D03*
G54D15*
G01X11260400Y9857000D02*
X11400600D01*
G54D16*
G01X10735000Y13935000D02*
Y9450000D01*
X14512500D01*
Y13935000D01*
X10735000D01*
G54D17*
G01X11000000Y9857000D02*
Y9914700D01*
G01Y9857000D02*
X11127700D01*
G01X11135000Y10050000D02*
X11013300D01*
X11000000Y10036700D01*
Y9984000D01*
G01X11130000Y10307500D02*
X11057500D01*
X11000000Y10365000D01*
G01X10885000Y10052500D02*
X10945000Y10112500D01*
X10998500D01*
X11000000Y10111000D01*
G01Y10619000D02*
X11069000D01*
X11130000Y10680000D01*
G01X11000000Y10492000D02*
X11072000D01*
X11130000Y10550000D01*
G01X11000000Y10942300D02*
Y11000000D01*
G01D02*
X11127700D01*
G01X11260400Y10238000D02*
X11400600D01*
G01X11260400Y10365000D02*
X11400600D01*
G01X11260400Y9984000D02*
X11400600D01*
G01X11260400Y10111000D02*
X11400600D01*
G01X11517500Y10747500D02*
X11466900D01*
X11465400Y10746000D01*
X11260400D01*
G01Y10492000D02*
X11532500D01*
G01X11375000Y10685000D02*
X11273700D01*
X11260400Y10671700D01*
Y10619000D01*
G01Y11000000D02*
X11400600D01*
G01X11260400Y10873000D02*
X11397600D01*
X11400600Y10870000D01*
G01X14180700Y9857000D02*
X14308400D01*
G01X14048000D02*
X13907800D01*
G01X13887500Y10322500D02*
Y10250700D01*
X13955200Y10183000D01*
X14028700D01*
X14048000Y10163700D01*
Y10111000D01*
G01Y9984000D02*
X13907800D01*
G01X14048000Y11000000D02*
Y10937000D01*
X14055000Y10930000D01*
X14180000D01*
G01X14308400Y10873000D02*
Y10810000D01*
X14180000D01*
G01X14180700Y11000000D02*
X14308400D01*
G01Y9857000D02*
Y9914700D01*
G01Y10942300D02*
Y11000000D01*
M02*
