G04 ================== begin FILE IDENTIFICATION RECORD ==================*
G04 Layout Name:  CC13xxEM_5XD_7793_4L.brd*
G04 Film Name:    L3*
G04 File Format:  Gerber RS274X*
G04 File Origin:  Cadence Allegro 16.6-S026*
G04 Origin Date:  Wed Aug 05 15:39:24 2015*
G04 *
G04 Layer:  VIA CLASS/L3*
G04 Layer:  ETCH/L3*
G04 Layer:  BOARD GEOMETRY/OUTLINE*
G04 *
G04 Offset:    (0.000 0.000)*
G04 Mirror:    No*
G04 Mode:      Positive*
G04 Rotation:  0*
G04 FullContactRelief:  No*
G04 UndefLineWidth:     0.000*
G04 ================== end FILE IDENTIFICATION RECORD ====================*
%FSLAX25Y25*MOMM*%
%IR0*IPPOS*OFA0.00000B0.00000*MIA0B0*SFA1.00000B1.00000*%
%ADD10C,.5*%
%ADD11C,.8*%
%ADD12C,.15*%
%ADD14C,1.806*%
%ADD13C,.758*%
G75*
%LPD*%
G75*
G36*
G01X14495000Y12485000D02*
G02X14502000Y12482100I-42J-10000D01*
G01X14502100Y12482000D01*
G02X14505000Y12475000I-7100J-7042D01*
G01Y9467500D01*
G02X14495000Y9457500I-10000J0D01*
G01X10752500D01*
G02X10742500Y9467500I0J10000D01*
G01Y12475000D01*
G02X10745400Y12482000I10000J-42D01*
G01X10745500Y12482100D01*
G02X10752500Y12485000I7042J-7100D01*
G01X14495000D01*
G37*
%LPC*%
G75*
G36*
G01X13925000Y10222300D02*
X12090500D01*
G02X12083500Y10225200I42J9999D01*
G01X11807700Y10501000D01*
G02X11804800Y10508000I7099J7042D01*
G01Y11015300D01*
G02X11807700Y11022300I9999J-42D01*
G01X11870700Y11085300D01*
X11872200Y11089100D01*
X11872100Y11091200D01*
G02X11943100Y11074000I37892J1275D01*
G03X11941900Y11067900I8715J-4882D01*
G01X11942600Y11061800D01*
G03X11945300Y11056200I9919J1331D01*
G02X11946700Y11054700I-27020J-26622D01*
G01X11948100Y11053000D01*
X11951700Y11051200D01*
X11968600Y11050500D01*
G03X11976100Y11053400I443J10002D01*
G01X11994400Y11071700D01*
G03X11997300Y11078800I-7112J7047D01*
G01Y11337200D01*
G02X12077700I40200J0D01*
G01Y11045500D01*
G02X12074800Y11038400I-10011J-53D01*
G01X12026100Y10989700D01*
G03X12023900Y10978800I7043J-7094D01*
G01X12025100Y10976000D01*
X12030100Y10972700D01*
X12759200D01*
G03X12766300Y10975600I53J10012D01*
G01X12836600Y11045900D01*
G02X12868200Y11057600I28472J-28375D01*
G01X12870400Y11057400D01*
X12874200Y11058700D01*
X12886600Y11070200D01*
G03X12889800Y11077500I-6793J7329D01*
G01Y11163000D01*
G03X12886900Y11170100I-10012J53D01*
G01X12803600Y11253300D01*
G02X12800700Y11260400I7111J7047D01*
G01Y11378400D01*
G02X12881100I40200J0D01*
G01Y11293700D01*
G03X12884000Y11286600I10012J-53D01*
G01X12967300Y11203400D01*
G02X12970200Y11196300I-7111J-7047D01*
G01Y10978000D01*
G02X12967300Y10970900I-10011J-53D01*
G01X12619100Y10622700D01*
G02X12612000Y10619800I-7047J7111D01*
G01X12559000D01*
G03X12551900Y10616900I-53J-10012D01*
G01X12533700Y10598600D01*
G03X12531000Y10589500I7072J-7049D01*
G01X12535100Y10570500D01*
X12538400Y10566700D01*
X12540800Y10565800D01*
G02X12555200Y10556200I-13274J-35511D01*
G03X12562500Y10553000I7329J6793D01*
G01X12590800D01*
G02X12597800Y10550100I-42J-9999D01*
G01X12612300Y10535600D01*
G03X12619300Y10532700I7042J7101D01*
G01X13705300D01*
G02X13712300Y10529800I-42J-9999D01*
G01X13880300Y10361800D01*
X13884100Y10360300D01*
X13886200Y10360400D01*
G02X13916400Y10347000I1264J-37882D01*
G01X13917900Y10345300D01*
X13921500Y10343500D01*
X13938400Y10342800D01*
G03X13945800Y10345700I348J10004D01*
G01X14106900Y10506800D01*
G03X14109800Y10513800I-7101J7042D01*
G01Y10887800D01*
G02X14112700Y10894800I9999J-42D01*
G01X14140700Y10922800D01*
X14142200Y10926600D01*
X14142100Y10928700D01*
G02X14178700Y10892100I37900J1300D01*
G01X14176600Y10892200D01*
X14172800Y10890700D01*
X14158100Y10876000D01*
G03X14155200Y10869000I7101J-7042D01*
G01Y10867700D01*
G03X14158400Y10860300I10016J-61D01*
G01X14170900Y10848900D01*
X14174700Y10847600D01*
X14176900Y10847800D01*
G02X14205900Y10782300I3122J-37788D01*
G03X14202700Y10775000I6793J-7329D01*
G01Y10500000D01*
G02X14199800Y10493000I-9999J42D01*
G01X13932000Y10225200D01*
G02X13925000Y10222300I-7042J7099D01*
G37*
G36*
G01X12231100Y9911500D02*
X12230000Y9908700D01*
G03X12232100Y9897800I9210J-3878D01*
G01X12247300Y9882600D01*
G03X12254300Y9879700I7042J7101D01*
G01X13872800D01*
G03X13880100Y9882900I-29J9993D01*
G02Y9831100I27700J-25900D01*
G03X13872800Y9834300I-7329J-6793D01*
G01X12235500D01*
G02X12228500Y9837200I42J9999D01*
G01X11657700Y10408000D01*
G02X11654800Y10415000I7099J7042D01*
G01Y10652500D01*
G03X11651600Y10659800I-9993J-29D01*
G02X11703400I25900J27700D01*
G03X11700200Y10652500I6793J-7329D01*
G01Y10497700D01*
G03X11703400Y10490300I10016J-61D01*
G01X11715900Y10478900D01*
X11719700Y10477600D01*
X11721900Y10477800D01*
G02X11762900Y10438700I3106J-37789D01*
G01X11762800Y10436600D01*
X11764300Y10432800D01*
X12234000Y9963100D01*
G03X12241000Y9960200I7042J7101D01*
G01X13847800D01*
G03X13854800Y9963100I-42J10001D01*
G01X13868500Y9976800D01*
X13870000Y9980600D01*
X13869900Y9982700D01*
G02X13906500Y9946100I37900J1300D01*
G01X13904400Y9946200D01*
X13900600Y9944700D01*
X13873600Y9917700D01*
G02X13866600Y9914800I-7042J7099D01*
G01X12236100D01*
X12231100Y9911500D01*
G37*
G36*
G01X13873000Y10490500D02*
X13867000D01*
G03X13861400Y10488700I128J-10009D01*
G02X13823500Y10554100I-21394J31284D01*
G03X13827700Y10558000I-4417J8968D01*
G01X13830700Y10563000D01*
G03X13832100Y10568500I-8573J5110D01*
G02Y10571500I37900J1500D01*
G03X13830700Y10577000I-9973J390D01*
G01X13827700Y10582000D01*
G03X13823500Y10585900I-8617J-5068D01*
G02X13861400Y10651300I16506J34116D01*
G03X13867000Y10649500I5728J8209D01*
G01X13873000D01*
G03X13878600Y10651300I-128J10009D01*
G02X13916500Y10585900I21394J-31284D01*
G03X13912300Y10582000I4417J-8968D01*
G01X13909300Y10577000D01*
G03X13907900Y10571500I8573J-5110D01*
G02Y10568500I-37900J-1500D01*
G03X13909300Y10563000I9973J-390D01*
G01X13912300Y10558000D01*
G03X13916500Y10554100I8617J5068D01*
G02X13878600Y10488700I-16506J-34116D01*
G03X13873000Y10490500I-5728J-8209D01*
G37*
G54D14*
X11130200Y9698300D03*
Y11158800D03*
X14178200Y9698300D03*
Y11158800D03*
G54D13*
X11400600Y10870000D03*
X11375000Y10685000D03*
X11400600Y11000000D03*
X11532500Y10492000D03*
X11130000Y10307500D03*
X11400600Y10238000D03*
Y10111000D03*
X11130000Y10550000D03*
Y10680000D03*
X11400600Y10365000D03*
Y9984000D03*
Y9857000D03*
X11135000Y10050000D03*
X10885000Y10052500D03*
X11517500Y10747500D03*
%LPD*%
G75*
G36*
G01X11946800Y10560700D02*
G02X11945200Y10566300I8432J5438D01*
G01Y10893700D01*
G02X11951400Y10903000I10010J43D01*
G01X11954200Y10904100D01*
X11960000Y10903000D01*
X11967800Y10895200D01*
G03X11974800Y10892300I7047J7111D01*
G01X12750800D01*
G02X12760000Y10886100I-37J-9981D01*
G01X12761200Y10883300D01*
X12760000Y10877400D01*
X12585800Y10703100D01*
G02X12584800Y10702200I-7182J6974D01*
G02X12578700Y10700200I-6007J8020D01*
G01X12525600D01*
G03X12518600Y10697300I47J-10011D01*
G01X12379500Y10558100D01*
G02X12378500Y10557200I-7182J6974D01*
G02X12372400Y10555200I-6007J8020D01*
G01X12027500D01*
G03X11996900Y10541100I-70J-40103D01*
G01Y10541000D01*
X11995500Y10539400D01*
X11993700Y10538500D01*
G02X11989700Y10537500I-4376J9004D01*
G01X11972900Y10536800D01*
X11969000Y10538400D01*
X11967500Y10539900D01*
X11948100Y10559200D01*
G02X11946800Y10560700I6890J7285D01*
G37*
G36*
G01X12114800Y10300600D02*
X12092600Y10322800D01*
G02X12090500Y10333700I7110J7022D01*
G01X12091600Y10336500D01*
X12096600Y10339800D01*
X13483000D01*
G03X13490100Y10342700I53J10011D01*
G01X13544200Y10396900D01*
G02X13551300Y10399800I7047J-7112D01*
G01X13652500D01*
G03X13679400Y10469900I0J40211D01*
G01X13677800Y10471300D01*
X13676100Y10475200D01*
Y10477300D01*
G02X13686100Y10487300I10000J0D01*
G01X13686500D01*
G02X13693500Y10484400I-42J-10001D01*
G01X13848200Y10329700D01*
X13849700Y10325900D01*
X13849600Y10323800D01*
G03X13849700Y10319400I37893J-1340D01*
G01X13849900Y10317200D01*
X13848600Y10313400D01*
X13837200Y10300900D01*
G02X13829800Y10297700I-7339J6816D01*
G01X12121800D01*
G02X12114800Y10300600I42J10001D01*
G37*
G54D10*
G01X12440000Y10380000D02*
X12070500D01*
X11905000Y10545500D01*
Y10925500D01*
X11949700Y10970200D01*
G01X12864300Y11249500D02*
X12930000Y11183800D01*
Y10990500D01*
X12599500Y10660000D01*
X12538200D01*
X12393200Y10515000D01*
X12027500D01*
G01X11949700Y10970200D02*
X12037500Y11058000D01*
Y11337200D01*
G01X12865000Y11017500D02*
X12780000Y10932500D01*
X11987400D01*
X11949700Y10970200D01*
G01X13652500Y10440000D02*
X13530500D01*
X13470500Y10380000D01*
X12440000D01*
G01D02*
X12440200Y10380200D01*
Y10470000D01*
G01X12864300Y11249500D02*
X12840900Y11272900D01*
Y11378400D01*
X10810000Y9720000D03*
X10790000Y10080000D03*
X10800000Y10480000D03*
X10805000Y11252500D03*
X10800000Y10860000D03*
X10805000Y11577500D03*
Y11437500D03*
Y11792500D03*
Y12010000D03*
Y12227500D03*
Y12445000D03*
X11130000Y9520000D03*
X10850000Y9857000D03*
X11000000Y9780800D03*
X10865000Y9580000D03*
X11135000Y10050000D03*
X11130000Y10307500D03*
X11140000Y10175000D03*
X10885000Y10052500D03*
X11130000Y10680000D03*
Y10550000D03*
X11000000Y11085000D03*
X10850000Y11000000D03*
X10860000Y11090000D03*
X11255000Y11567500D03*
X10980000Y11370000D03*
X11215000Y12010000D03*
X10995000Y11720000D03*
X11130000Y12445000D03*
X11670000Y9520000D03*
X11290000Y9590000D03*
X11400600Y9857000D03*
Y10238000D03*
X11540000Y10300000D03*
X11617500Y10205000D03*
X11400600Y10365000D03*
Y9984000D03*
Y10111000D03*
X11517500Y10747500D03*
X11392500Y10800000D03*
X11387500Y10555000D03*
X11527500Y10620000D03*
X11572500Y10412500D03*
X11677500Y10687500D03*
X11532500Y10492000D03*
X11375000Y10685000D03*
X11400600Y11000000D03*
X11685000Y11220000D03*
X11500000Y11037500D03*
X11617500Y10940000D03*
X11525000Y10837500D03*
X11400600Y10870000D03*
X11665000Y11567500D03*
X11270000Y11420000D03*
X11655000Y11932300D03*
X11517300Y12070000D03*
X11470000Y11757500D03*
X11455000Y12445000D03*
X11655000Y12207700D03*
X11340000Y12217500D03*
X11995000Y9520000D03*
X11807500Y9692500D03*
X11965000Y10282500D03*
X11697500Y10300000D03*
X11792500Y10197500D03*
X12107500Y10162500D03*
X12027500Y10515000D03*
X11972500Y10687500D03*
X12090000Y10695000D03*
X11827500Y10420000D03*
X11725000Y10440000D03*
X11917700Y11030200D03*
X11910000Y11092500D03*
X12085000Y10867500D03*
X12027500Y10830200D03*
X11717500Y11037500D03*
X11820000Y11132500D03*
X11897500Y11222500D03*
X11964800Y11187500D03*
X11750000Y10937500D03*
X12037500Y11337200D03*
X11862500Y11392500D03*
X11943600Y11270200D03*
X11890000Y11560000D03*
X12105000Y11732500D03*
X11890000Y11820000D03*
X12077300Y12070000D03*
X11792700D03*
X11775000Y11700000D03*
X11777500Y12445000D03*
X12102500D03*
X12537500Y9520000D03*
X12240000Y9510000D03*
X12465000Y9687500D03*
X12527500Y10530300D03*
X12440200Y10470000D03*
X12250100Y10695000D03*
X12285000Y10580000D03*
X12447500Y10742200D03*
X12314800Y10640200D03*
X12474800Y11213500D03*
Y11035000D03*
Y11125000D03*
X12392300Y11213500D03*
Y11035000D03*
Y11125000D03*
X12314800Y11035000D03*
Y11125000D03*
Y11213500D03*
X12474800Y11295500D03*
X12392300D03*
X12314800D03*
X12525000Y12040000D03*
X12435000Y12025000D03*
X12420000Y11905000D03*
X12424400Y11808500D03*
X12185000Y11700000D03*
Y11760000D03*
X12387500Y11757700D03*
X12215000Y11932300D03*
X12515000Y12182500D03*
X12427500Y12445000D03*
X12215000Y12207700D03*
X12770000Y9510000D03*
X12772500Y10185000D03*
X12864300Y11249500D03*
X12865000Y11017500D03*
X12557300Y11213500D03*
Y11035000D03*
Y11125000D03*
X12840900Y11378400D03*
X12557300Y11295500D03*
X12775200Y11613700D03*
X12782700Y11523600D03*
X12802800Y11682500D03*
X12965000Y11772500D03*
X12852500Y11757300D03*
X12765000Y11762500D03*
X12920000Y12037500D03*
X12782500D03*
X12649700Y12039300D03*
X12590000Y12047500D03*
X12952500Y12185000D03*
X12752500Y12445000D03*
X13077500Y9520000D03*
X13360000Y9510000D03*
X13327500Y9705000D03*
X13115000Y10570000D03*
X13082500Y10820000D03*
X13102500Y11185000D03*
X13212500Y11145000D03*
X13332500Y10910000D03*
X13395000Y11040000D03*
X13009500Y11184800D03*
X13075000Y11512500D03*
X13275000Y11497500D03*
Y11362500D03*
X13402500Y11372500D03*
X13252700Y11630000D03*
X13160000Y11532300D03*
X12990000Y11507700D03*
X13225200Y11287500D03*
X13367500Y12115000D03*
X13397500Y11735000D03*
X13245000Y11770000D03*
X13080000Y11772500D03*
X13053400Y12035700D03*
X13115000Y12047700D03*
X13160000Y11727700D03*
X13110000Y12130000D03*
X13077500Y12445000D03*
X13367500Y12272500D03*
X13105000Y12207500D03*
X13089800Y12272500D03*
X13135000Y12337200D03*
X13397500Y12442500D03*
X13542500Y10360000D03*
X13552500Y10190000D03*
X13545000Y9985000D03*
X13840000Y10520000D03*
Y10620000D03*
X13652500Y10440000D03*
X13687500Y10567500D03*
X13462500Y10562500D03*
X13520000Y10745000D03*
X13802500Y11115000D03*
X13700000Y10910000D03*
X13510000Y11042500D03*
X13617500Y11045000D03*
X13510000Y11185000D03*
X13820000Y11337500D03*
X13727500Y11622500D03*
X13590000Y11484800D03*
X13445000Y11615000D03*
X13657500Y12440000D03*
X13727500Y12187500D03*
X13587500Y12320200D03*
X13445000Y12182500D03*
X14080000Y9550000D03*
X13907800Y9857000D03*
X13887500Y10322500D03*
X13907800Y9984000D03*
X13870000Y10570000D03*
X13900000Y10620000D03*
Y10520000D03*
X14180000Y10810000D03*
Y10930000D03*
X14025000Y11355000D03*
X14007500Y11602500D03*
X14150000Y11482500D03*
X13875000Y12085000D03*
Y11727500D03*
X14157500Y11905000D03*
X14150000Y11760200D03*
Y12044800D03*
X13927500Y12445000D03*
X14190000D03*
X14150000Y12320000D03*
X14012500Y12177500D03*
X14427500Y9737500D03*
X14460000Y9860000D03*
X14310000Y9750000D03*
X14367500Y9542500D03*
X14465000Y10050000D03*
X14460000Y10305000D03*
X14455000Y10560000D03*
X14470000Y10900000D03*
X14460000Y11000000D03*
X14308400Y11087500D03*
X14395000Y11110000D03*
X14282500Y11622500D03*
X14425000Y11357500D03*
Y12047500D03*
Y11767500D03*
X14455000Y12257500D03*
X14457500Y12447500D03*
X14285000Y12182500D03*
G54D11*
X11235300Y13329600D03*
Y13829500D03*
X11635000Y13329600D03*
X11435200D03*
X11635000Y13829500D03*
X11435200D03*
X12035100Y13329600D03*
X11835200D03*
X12035100Y13829500D03*
X11835200D03*
X12435200Y13329600D03*
X12235300D03*
X12435200Y13829500D03*
X12235300D03*
X12835200Y13329600D03*
X12635000D03*
X12835200Y13829500D03*
X12635000D03*
X13035100Y13329600D03*
Y13829500D03*
X13235000D03*
G54D12*
G01X11917700Y11030200D02*
X11857500Y10970000D01*
Y10525800D01*
X12108300Y10275000D01*
X13907200D01*
X14132500Y10500300D01*
Y10882500D01*
X14180000Y10930000D01*
G01X11910000Y11092500D02*
X11827500Y11010000D01*
Y10513300D01*
X12095800Y10245000D01*
X13919700D01*
X14180000Y10505300D01*
Y10810000D01*
G01X11725000Y10440000D02*
X12227500Y9937500D01*
X13861300D01*
X13907800Y9984000D01*
G01X11677500Y10687500D02*
Y10420300D01*
X12240800Y9857000D01*
X13907800D01*
G01X13887500Y10322500D02*
X13700000Y10510000D01*
X12605800D01*
X12585500Y10530300D01*
X12527500D01*
M02*
