G04 ================== begin FILE IDENTIFICATION RECORD ==================*
G04 Layout Name:  CC13xxEM_5XD_7793_4L.brd*
G04 Film Name:    soldmask_top*
G04 File Format:  Gerber RS274X*
G04 File Origin:  Cadence Allegro 16.6-S026*
G04 Origin Date:  Wed Aug 05 15:39:24 2015*
G04 *
G04 Layer:  PIN/SOLDERMASK_TOP*
G04 Layer:  BOARD GEOMETRY/OUTLINE*
G04 *
G04 Offset:    (0.000 0.000)*
G04 Mirror:    No*
G04 Mode:      Positive*
G04 Rotation:  0*
G04 FullContactRelief:  No*
G04 UndefLineWidth:     0.020*
G04 ================== end FILE IDENTIFICATION RECORD ====================*
%FSLAX25Y25*MOMM*%
%IR0*IPPOS*OFA0.00000B0.00000*MIA0B0*SFA1.00000B1.00000*%
%AMMACRO28*
4,1,41,0.0,-1.075,
.538,-1.075,
.631328,-1.066747,
.721806,-1.042414,
.806683,-1.002739,
.883381,-.948927,
.94957,-.882615,
1.003239,-.805817,
1.042756,-.720866,
1.066921,-.630343,
1.075,-.538,
1.075,.538,
1.066747,.631328,
1.042414,.721806,
1.002739,.806683,
.948927,.883381,
.882615,.94957,
.805817,1.003239,
.720866,1.042756,
.630343,1.066921,
.538,1.075,
-.538,1.075,
-.631328,1.066747,
-.721806,1.042414,
-.806683,1.002739,
-.883381,.948927,
-.94957,.882615,
-1.003239,.805817,
-1.042756,.720866,
-1.066921,.630343,
-1.075,.538,
-1.075,-.538,
-1.066747,-.631328,
-1.042414,-.721806,
-1.002739,-.806683,
-.948927,-.883381,
-.882615,-.94957,
-.805817,-1.003239,
-.720866,-1.042756,
-.630343,-1.066921,
-.538,-1.075,
0.0,-1.075,
0.0*
%
%ADD28MACRO28*%
%ADD20O,1.X.4*%
%ADD19O,.4X1.*%
%AMMACRO23*
4,1,40,.325,.16,
.325,-.16,
.322569,-.187784,
.315351,-.214723,
.303564,-.24,
.287567,-.262846,
.267846,-.282567,
.245,-.298564,
.219723,-.310351,
.192784,-.317569,
.165,-.32,
-.165,-.32,
-.192784,-.317569,
-.219723,-.310351,
-.245,-.298564,
-.267846,-.282567,
-.287567,-.262846,
-.303564,-.24,
-.315351,-.214723,
-.322569,-.187784,
-.325,-.16,
-.325,.16,
-.322569,.187784,
-.315351,.214723,
-.303564,.24,
-.287567,.262846,
-.267846,.282567,
-.245,.298564,
-.219723,.310351,
-.192784,.317569,
-.165,.32,
.165,.32,
.192784,.317569,
.219723,.310351,
.245,.298564,
.267846,.282567,
.287567,.262846,
.303564,.24,
.315351,.214723,
.322569,.187784,
.325,.16,
0.0*
%
%ADD23MACRO23*%
%AMMACRO16*
4,1,40,.16,-.325,
-.16,-.325,
-.187784,-.322569,
-.214723,-.315351,
-.24,-.303564,
-.262846,-.287567,
-.282567,-.267846,
-.298564,-.245,
-.310351,-.219723,
-.317569,-.192784,
-.32,-.165,
-.32,.165,
-.317569,.192784,
-.310351,.219723,
-.298564,.245,
-.282567,.267846,
-.262846,.287567,
-.24,.303564,
-.214723,.315351,
-.187784,.322569,
-.16,.325,
.16,.325,
.187784,.322569,
.214723,.315351,
.24,.303564,
.262846,.287567,
.282567,.267846,
.298564,.245,
.310351,.219723,
.317569,.192784,
.32,.165,
.32,-.165,
.317569,-.192784,
.310351,-.219723,
.298564,-.245,
.282567,-.267846,
.262846,-.287567,
.24,-.303564,
.214723,-.315351,
.187784,-.322569,
.16,-.325,
0.0*
%
%ADD16MACRO16*%
%ADD26R,1.15X1.15*%
%ADD29C,1.951*%
%ADD21R,3.7X3.7*%
%ADD10C,1.699*%
%AMMACRO13*
4,1,45,.525,0.0,
.525,.187,
.521099,.23259,
.50934,.27681,
.490082,.318317,
.463908,.355849,
.431615,.388265,
.394183,.414582,
.35275,.433998,
.308575,.445925,
.263,.45,
.262,.45,
-.262,.45,
-.30759,.446099,
-.35181,.43434,
-.393317,.415082,
-.430849,.388908,
-.463265,.356615,
-.489582,.319183,
-.508998,.27775,
-.520925,.233575,
-.525,.188,
-.525,.187,
-.525,-.187,
-.521099,-.23259,
-.50934,-.27681,
-.490082,-.318317,
-.463908,-.355849,
-.431615,-.388265,
-.394183,-.414582,
-.35275,-.433998,
-.308575,-.445925,
-.263,-.45,
-.262,-.45,
.262,-.45,
.30759,-.446099,
.35181,-.43434,
.393317,-.415082,
.430849,-.388908,
.463265,-.356615,
.489582,-.319183,
.508998,-.27775,
.520925,-.233575,
.525,-.188,
.525,-.187,
.525,0.0,
0.0*
%
%ADD13MACRO13*%
%AMMACRO17*
4,1,44,-.749,-.274,
-.749,.274,
-.74517,.321783,
-.7331,.368174,
-.713158,.411765,
-.68595,.451231,
-.652302,.485372,
-.613236,.513152,
-.56994,.533726,
-.523729,.546469,
-.476007,.550995,
-.475,.551,
.475,.551,
.522738,.54665,
.568995,.534076,
.612366,.51366,
.651534,.486024,
.685307,.452006,
.712659,.41264,
.732761,.369122,
.745,.322775,
.749005,.275007,
.749,.274,
.749,-.274,
.74517,-.321783,
.7331,-.368174,
.713158,-.411765,
.68595,-.451231,
.652302,-.485372,
.613236,-.513152,
.56994,-.533726,
.523729,-.546469,
.476007,-.550995,
.475,-.551,
-.475,-.551,
-.522738,-.54665,
-.568995,-.534076,
-.612366,-.51366,
-.651534,-.486024,
-.685307,-.452006,
-.712659,-.41264,
-.732761,-.369122,
-.745,-.322775,
-.749005,-.275007,
-.749,-.274,
0.0*
%
%ADD17MACRO17*%
%AMMACRO25*
4,1,41,0.0,.325,
-.135,.325,
-.167125,.322189,
-.198274,.313843,
-.2275,.300215,
-.253916,.281718,
-.276718,.258916,
-.295215,.2325,
-.308843,.203274,
-.317189,.172125,
-.32,.14,
-.32,-.14,
-.317189,-.172125,
-.308843,-.203274,
-.295215,-.2325,
-.276718,-.258916,
-.253916,-.281718,
-.2275,-.300215,
-.198274,-.313843,
-.167125,-.322189,
-.135,-.325,
.135,-.325,
.167125,-.322189,
.198274,-.313843,
.2275,-.300215,
.253916,-.281718,
.276718,-.258916,
.295215,-.2325,
.308843,-.203274,
.317189,-.172125,
.32,-.14,
.32,.14,
.317189,.172125,
.308843,.203274,
.295215,.2325,
.276718,.258916,
.253916,.281718,
.2275,.300215,
.198274,.313843,
.167125,.322189,
.135,.325,
0.0,.325,
0.0*
%
%ADD25MACRO25*%
%AMMACRO24*
4,1,44,.312,.675,
-.312,.675,
-.366273,.670339,
-.418911,.656325,
-.468317,.633383,
-.512988,.60221,
-.551567,.563754,
-.582883,.519183,
-.605983,.469851,
-.620166,.417257,
-.625,.363,
-.625,.362,
-.625,-.362,
-.620339,-.416273,
-.606325,-.468911,
-.583383,-.518317,
-.55221,-.562988,
-.513754,-.601567,
-.469183,-.632883,
-.419851,-.655983,
-.367257,-.670166,
-.313,-.675,
-.312,-.675,
.312,-.675,
.366273,-.670339,
.418911,-.656325,
.468317,-.633383,
.512988,-.60221,
.551567,-.563754,
.582883,-.519183,
.605983,-.469851,
.620166,-.417257,
.625,-.363,
.625,-.362,
.625,.362,
.620339,.416273,
.606325,.468911,
.583383,.518317,
.55221,.562988,
.513754,.601567,
.469183,.632883,
.419851,.655983,
.367257,.670166,
.313,.675,
.312,.675,
0.0*
%
%ADD24MACRO24*%
%AMMACRO27*
4,1,41,0.0,-.525,
.225,-.525,
.264071,-.521582,
.301955,-.511431,
.3375,-.494856,
.369627,-.47236,
.39736,-.444627,
.419856,-.4125,
.436431,-.376955,
.446582,-.339071,
.45,-.3,
.45,.3,
.446582,.339071,
.436431,.376955,
.419856,.4125,
.39736,.444627,
.369627,.47236,
.3375,.494856,
.301955,.511431,
.264071,.521582,
.225,.525,
-.225,.525,
-.264071,.521582,
-.301955,.511431,
-.3375,.494856,
-.369627,.47236,
-.39736,.444627,
-.419856,.4125,
-.436431,.376955,
-.446582,.339071,
-.45,.3,
-.45,-.3,
-.446582,-.339071,
-.436431,-.376955,
-.419856,-.4125,
-.39736,-.444627,
-.369627,-.47236,
-.3375,-.494856,
-.301955,-.511431,
-.264071,-.521582,
-.225,-.525,
0.0,-.525,
0.0*
%
%ADD27MACRO27*%
%AMMACRO15*
4,1,40,-.975,.288,
-.975,-.288,
-.970545,-.337916,
-.957491,-.386301,
-.936232,-.431683,
-.907416,-.472684,
-.871918,-.508059,
-.830817,-.536732,
-.785361,-.557833,
-.736931,-.570719,
-.688,-.575,
.688,-.575,
.737916,-.570545,
.786301,-.557491,
.831683,-.536232,
.872684,-.507416,
.908059,-.471918,
.936732,-.430817,
.957833,-.385361,
.970719,-.336931,
.975,-.288,
.975,.288,
.970545,.337916,
.957491,.386301,
.936232,.431683,
.907416,.472684,
.871918,.508059,
.830817,.536732,
.785361,.557833,
.736931,.570719,
.688,.575,
-.688,.575,
-.737916,.570545,
-.786301,.557491,
-.831683,.536232,
-.872684,.507416,
-.908059,.471918,
-.936732,.430817,
-.957833,.385361,
-.970719,.336931,
-.975,.288,
0.0*
%
%ADD15MACRO15*%
%AMMACRO14*
4,1,40,-.325,-.16,
-.325,.16,
-.322569,.187784,
-.315351,.214723,
-.303564,.24,
-.287567,.262846,
-.267846,.282567,
-.245,.298564,
-.219723,.310351,
-.192784,.317569,
-.165,.32,
.165,.32,
.192784,.317569,
.219723,.310351,
.245,.298564,
.267846,.282567,
.287567,.262846,
.303564,.24,
.315351,.214723,
.322569,.187784,
.325,.16,
.325,-.16,
.322569,-.187784,
.315351,-.214723,
.303564,-.24,
.287567,-.262846,
.267846,-.282567,
.245,-.298564,
.219723,-.310351,
.192784,-.317569,
.165,-.32,
-.165,-.32,
-.192784,-.317569,
-.219723,-.310351,
-.245,-.298564,
-.267846,-.282567,
-.287567,-.262846,
-.303564,-.24,
-.315351,-.214723,
-.322569,-.187784,
-.325,-.16,
0.0*
%
%ADD14MACRO14*%
%AMMACRO12*
4,1,40,-.16,.325,
.16,.325,
.187784,.322569,
.214723,.315351,
.24,.303564,
.262846,.287567,
.282567,.267846,
.298564,.245,
.310351,.219723,
.317569,.192784,
.32,.165,
.32,-.165,
.317569,-.192784,
.310351,-.219723,
.298564,-.245,
.282567,-.267846,
.262846,-.287567,
.24,-.303564,
.214723,-.315351,
.187784,-.322569,
.16,-.325,
-.16,-.325,
-.187784,-.322569,
-.214723,-.315351,
-.24,-.303564,
-.262846,-.287567,
-.282567,-.267846,
-.298564,-.245,
-.310351,-.219723,
-.317569,-.192784,
-.32,-.165,
-.32,.165,
-.317569,.192784,
-.310351,.219723,
-.298564,.245,
-.282567,.267846,
-.262846,.287567,
-.24,.303564,
-.214723,.315351,
-.187784,.322569,
-.16,.325,
0.0*
%
%ADD12MACRO12*%
%ADD11O,1.15X1.15*%
%AMMACRO18*
4,1,45,0.0,.525,
-.187,.525,
-.23259,.521099,
-.27681,.50934,
-.318317,.490082,
-.355849,.463908,
-.388265,.431615,
-.414582,.394183,
-.433998,.35275,
-.445925,.308575,
-.45,.263,
-.45,.262,
-.45,-.262,
-.446099,-.30759,
-.43434,-.35181,
-.415082,-.393317,
-.388908,-.430849,
-.356615,-.463265,
-.319183,-.489582,
-.27775,-.508998,
-.233575,-.520925,
-.188,-.525,
-.187,-.525,
.187,-.525,
.23259,-.521099,
.27681,-.50934,
.318317,-.490082,
.355849,-.463908,
.388265,-.431615,
.414582,-.394183,
.433998,-.35275,
.445925,-.308575,
.45,-.263,
.45,-.262,
.45,.262,
.446099,.30759,
.43434,.35181,
.415082,.393317,
.388908,.430849,
.356615,.463265,
.319183,.489582,
.27775,.508998,
.233575,.520925,
.188,.525,
.187,.525,
0.0,.525,
0.0*
%
%ADD18MACRO18*%
%AMMACRO22*
4,1,41,.325,0.0,
.325,.135,
.322189,.167125,
.313843,.198274,
.300215,.2275,
.281718,.253916,
.258916,.276718,
.2325,.295215,
.203274,.308843,
.172125,.317189,
.14,.32,
-.14,.32,
-.172125,.317189,
-.203274,.308843,
-.2325,.295215,
-.258916,.276718,
-.281718,.253916,
-.300215,.2275,
-.313843,.198274,
-.322189,.167125,
-.325,.135,
-.325,-.135,
-.322189,-.167125,
-.313843,-.198274,
-.300215,-.2275,
-.281718,-.253916,
-.258916,-.276718,
-.2325,-.295215,
-.203274,-.308843,
-.172125,-.317189,
-.14,-.32,
.14,-.32,
.172125,-.317189,
.203274,-.308843,
.2325,-.295215,
.258916,-.276718,
.281718,-.253916,
.300215,-.2275,
.313843,-.198274,
.322189,-.167125,
.325,-.135,
.325,0.0,
0.0*
%
%ADD22MACRO22*%
%ADD30C,.02*%
G75*
%LPD*%
G75*
G54D10*
X11130200Y9698300D03*
Y11158800D03*
X14178200Y9698300D03*
Y11158800D03*
G54D11*
X10977500Y12135000D03*
X11487500Y9612500D03*
X13827500Y9605000D03*
G54D20*
X12195000Y10990000D03*
Y11040000D03*
Y11090000D03*
Y11140000D03*
Y11190000D03*
Y11240000D03*
Y11290000D03*
Y11340000D03*
X12685000Y11240000D03*
Y11190000D03*
Y11140000D03*
Y11090000D03*
Y11040000D03*
Y10990000D03*
Y11340000D03*
Y11290000D03*
G54D30*
G01X10735000Y13935000D02*
Y9450000D01*
X14512500D01*
Y13935000D01*
X10735000D01*
G54D12*
X11635000Y10620000D03*
Y10540000D03*
Y10747500D03*
Y10827500D03*
X11717500Y10747500D03*
Y10620000D03*
Y10540000D03*
Y10827500D03*
X12387500Y11612500D03*
X12255000Y11685000D03*
Y11605000D03*
X12387500Y11692500D03*
X12867500Y11660000D03*
Y11580000D03*
X12782700Y11458400D03*
Y11378400D03*
X12550000Y11775000D03*
Y11695000D03*
X12590000Y11982500D03*
Y11902500D03*
X12852500D03*
Y11822500D03*
X13235200Y12107800D03*
Y12187800D03*
G54D21*
X12440000Y11165000D03*
G54D22*
X12470000Y11612500D03*
X12550000D03*
G54D13*
X12027500Y10755000D03*
Y10615000D03*
G54D14*
X12030000Y11190000D03*
X12110000D03*
X12008800Y11270200D03*
X12088800D03*
X12447500Y10595000D03*
X12527500D03*
X12447500Y10677500D03*
X12527500D03*
X12630000Y11612500D03*
X12710000D03*
X13235000Y11902500D03*
X13315000D03*
X13155000Y12272500D03*
X13235000D03*
G54D23*
X12944000Y11102300D03*
X12864000D03*
X12944300Y11184800D03*
X12864300D03*
X12630000Y11530000D03*
X12550000D03*
X12935000Y11902500D03*
X12752500D03*
X12672500D03*
X13160000Y11287500D03*
X13080000D03*
X13015000Y11902500D03*
G54D15*
X12095000Y11605000D03*
Y11855000D03*
G54D24*
X12990000Y11630000D03*
Y11410000D03*
X13160000Y11630000D03*
Y11410000D03*
G54D25*
X12630000Y11775000D03*
Y11695000D03*
G54D16*
X12314800Y10714400D03*
Y10794400D03*
X12255000Y11775000D03*
Y11855000D03*
X13115000Y11902500D03*
Y11982500D03*
X13235000Y11902500D03*
Y11982500D03*
G54D17*
X12165000Y10615000D03*
Y10775000D03*
G54D26*
X13235000Y12437500D03*
G54D18*
X12225000Y10470000D03*
X12365000D03*
G54D27*
X13730000Y10440000D03*
X13870000D03*
G54D19*
X12515000Y10920000D03*
X12465000D03*
X12415000D03*
X12365000D03*
X12315000D03*
X12265000D03*
Y11410000D03*
X12315000D03*
X12365000D03*
X12415000D03*
X12465000D03*
X12515000D03*
X12615000Y10920000D03*
X12565000D03*
Y11410000D03*
X12615000D03*
G54D28*
X13590000Y11622500D03*
Y12182500D03*
X14150000Y11622500D03*
Y12182500D03*
G54D29*
X13870000Y11902500D03*
M02*
